999
DXF created by Inkscape
  0
SECTION
  2
HEADER
  9
$ACADVER
  1
AC1014
  9
$HANDSEED
  5
FFFF
  9
$MEASUREMENT
 70
     1
  0
ENDSEC
  0
SECTION
  2
TABLES
  0
TABLE
  2
VPORT
  5
8
330
0
100
AcDbSymbolTable
 70
     4
  0
VPORT
  5
2E
330
8
100
AcDbSymbolTableRecord
100
AcDbViewportTableRecord
  2
*ACTIVE
 70
     0
 10
0.0
 20
0.0
 11
1.0
 21
1.0
 12
210.0
 22
148.5
 13
0.0
 23
0.0
 14
10.0
 24
10.0
 15
10.0
 25
10.0
 16
0.0
 26
0.0
 36
1.0
 17
0.0
 27
0.0
 37
0.0
 40
341.0
 41
1.24
 42
50.0
 43
0.0
 44
0.0
 50
0.0
 51
0.0
 71
     0
 72
   100
 73
     1
 74
     3
 75
     0
 76
     0
 77
     0
 78
     0
  0
ENDTAB
  0
TABLE
  2
LTYPE
  5
5
330
0
100
AcDbSymbolTable
 70
     1
  0
LTYPE
  5
14
330
5
100
AcDbSymbolTableRecord
100
AcDbLinetypeTableRecord
  2
BYBLOCK
 70
     0
  3

 72
    65
 73
     0
 40
0.0
  0
LTYPE
  5
15
330
5
100
AcDbSymbolTableRecord
100
AcDbLinetypeTableRecord
  2
BYLAYER
 70
     0
  3

 72
    65
 73
     0
 40
0.0
  0
LTYPE
  5
16
330
5
100
AcDbSymbolTableRecord
100
AcDbLinetypeTableRecord
  2
CONTINUOUS
 70
     0
  3
Solid line
 72
    65
 73
     0
 40
0.0
  0
ENDTAB
  0
TABLE
  2
LAYER
  5
2
100
AcDbSymbolTable
 70
2
  0
LAYER
  5
50
100
AcDbSymbolTableRecord
100
AcDbLayerTableRecord
  2
0
 70
0
  6
CONTINUOUS
  0
LAYER
  5
51
100
AcDbSymbolTableRecord
100
AcDbLayerTableRecord
  2
Layer_1
 70
0
  6
CONTINUOUS
  0
ENDTAB
  0
TABLE
  2
STYLE
  5
3
330
0
100
AcDbSymbolTable
 70
     1
  0
STYLE
  5
11
330
3
100
AcDbSymbolTableRecord
100
AcDbTextStyleTableRecord
  2
STANDARD
 70
     0
 40
0.0
 41
1.0
 50
0.0
 71
     0
 42
2.5
  3
txt
  4

  0
ENDTAB
  0
TABLE
  2
VIEW
  5
6
330
0
100
AcDbSymbolTable
 70
     0
  0
ENDTAB
  0
TABLE
  2
UCS
  5
7
330
0
100
AcDbSymbolTable
 70
     0
  0
ENDTAB
  0
TABLE
  2
APPID
  5
9
330
0
100
AcDbSymbolTable
 70
     2
  0
APPID
  5
12
330
9
100
AcDbSymbolTableRecord
100
AcDbRegAppTableRecord
  2
ACAD
 70
     0
  0
ENDTAB
  0
TABLE
  2
DIMSTYLE
  5
A
330
0
100
AcDbSymbolTable
 70
     1
  0
DIMSTYLE
105
27
330
A
100
AcDbSymbolTableRecord
100
AcDbDimStyleTableRecord
  2
ISO-25
 70
     0
  3

  4

  5

  6

  7

 40
1.0
 41
2.5
 42
0.625
 43
3.75
 44
1.25
 45
0.0
 46
0.0
 47
0.0
 48
0.0
140
2.5
141
2.5
142
0.0
143
0.03937007874016
144
1.0
145
0.0
146
1.0
147
0.625
 71
     0
 72
     0
 73
     0
 74
     0
 75
     0
 76
     0
 77
     1
 78
     8
170
     0
171
     3
172
     1
173
     0
174
     0
175
     0
176
     0
177
     0
178
     0
270
     2
271
     2
272
     2
273
     2
274
     3
340
11
275
     0
280
     0
281
     0
282
     0
283
     0
284
     8
285
     0
286
     0
287
     3
288
     0
  0
ENDTAB
  0
TABLE
  2
BLOCK_RECORD
  5
1
330
0
100
AcDbSymbolTable
 70
     1
  0
BLOCK_RECORD
  5
1F
330
1
100
AcDbSymbolTableRecord
100
AcDbBlockTableRecord
  2
*MODEL_SPACE
  0
BLOCK_RECORD
  5
1B
330
1
100
AcDbSymbolTableRecord
100
AcDbBlockTableRecord
  2
*PAPER_SPACE
  0
ENDTAB
  0
ENDSEC
  0
SECTION
  2
BLOCKS
  0
BLOCK
  5
20
330
1F
100
AcDbEntity
  8
0
100
AcDbBlockBegin
  2
*MODEL_SPACE
 70
     0
 10
0.0
 20
0.0
 30
0.0
  3
*MODEL_SPACE
  1

  0
ENDBLK
  5
21
330
1F
100
AcDbEntity
  8
0
100
AcDbBlockEnd
  0
BLOCK
  5
1C
330
1B
100
AcDbEntity
 67
     1
  8
0
100
AcDbBlockBegin
  2
*PAPER_SPACE
  1

  0
ENDBLK
  5
1D
330
1B
100
AcDbEntity
 67
     1
  8
0
100
AcDbBlockEnd
  0
ENDSEC
  0
SECTION
  2
ENTITIES
  0
LWPOLYLINE
  5
100
100
AcDbEntity
  8
Layer_1
 62
7
100
AcDbPolyline
 90
81
 70
0
 10
6.155882
 20
21.665516
 30
0.0
 10
6.475490
 20
21.770113
 30
0.0
 10
6.795097
 20
21.874713
 30
0.0
 10
7.114704
 20
21.979310
 30
0.0
 10
7.434312
 20
22.083910
 30
0.0
 10
8.342283
 20
22.144915
 30
0.0
 10
9.160185
 20
22.025783
 30
0.0
 10
9.888020
 20
21.726518
 30
0.0
 10
10.525786
 20
21.247118
 30
0.0
 10
10.514164
 20
21.183198
 30
0.0
 10
10.502542
 20
21.119274
 30
0.0
 10
10.490921
 20
21.055354
 30
0.0
 10
10.479299
 20
20.991433
 30
0.0
 10
10.036202
 20
19.916381
 30
0.0
 10
9.752912
 20
18.806466
 30
0.0
 10
9.629429
 20
17.661697
 30
0.0
 10
9.665752
 20
16.482064
 30
0.0
 10
9.479799
 20
16.540174
 30
0.0
 10
9.293846
 20
16.598283
 30
0.0
 10
9.107892
 20
16.656396
 30
0.0
 10
8.921939
 20
16.714505
 30
0.0
 10
8.278362
 20
16.804568
 30
0.0
 10
7.626072
 20
16.795847
 30
0.0
 10
6.965067
 20
16.688346
 30
0.0
 10
6.295348
 20
16.482061
 30
0.0
 10
6.173316
 20
16.848157
 30
0.0
 10
6.051284
 20
17.214253
 30
0.0
 10
5.929252
 20
17.580349
 30
0.0
 10
5.807220
 20
17.946445
 30
0.0
 10
5.795598
 20
17.992932
 30
0.0
 10
5.783976
 20
18.039420
 30
0.0
 10
5.772354
 20
18.085910
 30
0.0
 10
5.760732
 20
18.132398
 30
0.0
 10
5.725866
 20
18.207941
 30
0.0
 10
5.691000
 20
18.283483
 30
0.0
 10
5.656134
 20
18.359028
 30
0.0
 10
5.621267
 20
18.434571
 30
0.0
 10
5.586401
 20
18.527546
 30
0.0
 10
5.551535
 20
18.620524
 30
0.0
 10
5.516669
 20
18.713499
 30
0.0
 10
5.481802
 20
18.806477
 30
0.0
 10
5.470180
 20
18.852965
 30
0.0
 10
5.458558
 20
18.899453
 30
0.0
 10
5.446937
 20
18.945943
 30
0.0
 10
5.435315
 20
18.992431
 30
0.0
 10
5.423693
 20
19.038918
 30
0.0
 10
5.412071
 20
19.085409
 30
0.0
 10
5.400449
 20
19.131897
 30
0.0
 10
5.388827
 20
19.178384
 30
0.0
 10
5.319094
 20
19.358527
 30
0.0
 10
5.249362
 20
19.538669
 30
0.0
 10
5.179630
 20
19.718812
 30
0.0
 10
5.109897
 20
19.898954
 30
0.0
 10
5.096822
 20
19.957055
 30
0.0
 10
5.080839
 20
20.015162
 30
0.0
 10
5.061953
 20
20.073274
 30
0.0
 10
5.040163
 20
20.131395
 30
0.0
 10
5.016916
 20
20.199665
 30
0.0
 10
4.993672
 20
20.265036
 30
0.0
 10
4.970428
 20
20.327508
 30
0.0
 10
4.947187
 20
20.387083
 30
0.0
 10
4.900699
 20
20.538170
 30
0.0
 10
4.854211
 20
20.689258
 30
0.0
 10
4.807722
 20
20.840343
 30
0.0
 10
4.761234
 20
20.991431
 30
0.0
 10
4.836778
 20
21.032107
 30
0.0
 10
4.912321
 20
21.072787
 30
0.0
 10
4.987865
 20
21.113463
 30
0.0
 10
5.063408
 20
21.154140
 30
0.0
 10
5.121517
 20
21.174460
 30
0.0
 10
5.202870
 20
21.212227
 30
0.0
 10
5.307470
 20
21.267438
 30
0.0
 10
5.435315
 20
21.340091
 30
0.0
 10
5.507950
 20
21.367692
 30
0.0
 10
5.586399
 20
21.404008
 30
0.0
 10
5.670660
 20
21.449048
 30
0.0
 10
5.760734
 20
21.502812
 30
0.0
 10
5.863877
 20
21.556552
 30
0.0
 10
5.964116
 20
21.601584
 30
0.0
 10
6.061452
 20
21.637906
 30
0.0
 10
6.155884
 20
21.665507
 30
0.0
  0
LWPOLYLINE
  5
101
100
AcDbEntity
  8
Layer_1
 62
7
100
AcDbPolyline
 90
33
 70
0
 10
4.807722
 20
15.389579
 30
0.0
 10
5.367033
 20
15.789079
 30
0.0
 10
5.975738
 20
16.104327
 30
0.0
 10
6.633840
 20
16.335317
 30
0.0
 10
7.341337
 20
16.482056
 30
0.0
 10
8.275458
 20
16.496562
 30
0.0
 10
9.148566
 20
16.307702
 30
0.0
 10
9.960660
 20
15.915458
 30
0.0
 10
10.711742
 20
15.319836
 30
0.0
 10
10.700120
 20
15.180373
 30
0.0
 10
10.688498
 20
15.040910
 30
0.0
 10
10.676876
 20
14.901445
 30
0.0
 10
10.665254
 20
14.761982
 30
0.0
 10
10.572278
 20
14.680617
 30
0.0
 10
10.479301
 20
14.599281
 30
0.0
 10
10.386324
 20
14.517916
 30
0.0
 10
10.293347
 20
14.436551
 30
0.0
 10
10.159694
 20
14.448122
 30
0.0
 10
10.026040
 20
14.459694
 30
0.0
 10
9.892385
 20
14.471265
 30
0.0
 10
9.758731
 20
14.482836
 30
0.0
 10
8.773756
 20
14.973869
 30
0.0
 10
7.748106
 20
15.122052
 30
0.0
 10
6.681781
 20
14.927387
 30
0.0
 10
5.574781
 20
14.389872
 30
0.0
 10
5.361223
 20
14.404265
 30
0.0
 10
5.162194
 20
14.471095
 30
0.0
 10
4.977694
 20
14.590221
 30
0.0
 10
4.807723
 20
14.761671
 30
0.0
 10
4.790287
 20
14.905483
 30
0.0
 10
4.784476
 20
15.058019
 30
0.0
 10
4.790287
 20
15.219278
 30
0.0
 10
4.807723
 20
15.389257
 30
0.0
  0
LWPOLYLINE
  5
102
100
AcDbEntity
  8
Layer_1
 62
7
100
AcDbPolyline
 90
77
 70
0
 10
1.297853
 20
7.811667
 30
0.0
 10
1.916729
 20
10.369983
 30
0.0
 10
3.122519
 20
12.373338
 30
0.0
 10
4.915226
 20
13.821730
 30
0.0
 10
7.294849
 20
14.715189
 30
0.0
 10
7.556346
 20
14.715189
 30
0.0
 10
7.817843
 20
14.715189
 30
0.0
 10
8.079340
 20
14.715189
 30
0.0
 10
8.340837
 20
14.715189
 30
0.0
 10
9.516115
 20
14.382506
 30
0.0
 10
10.322395
 20
13.733084
 30
0.0
 10
10.759678
 20
12.767009
 30
0.0
 10
10.827963
 20
11.484225
 30
0.0
 10
10.441524
 20
10.224695
 30
0.0
 10
9.816835
 20
9.421321
 30
0.0
 10
8.953897
 20
9.074103
 30
0.0
 10
7.852709
 20
9.183069
 30
0.0
 10
7.322449
 20
10.105569
 30
0.0
 10
7.312277
 20
10.874088
 30
0.0
 10
7.822198
 20
11.488599
 30
0.0
 10
8.852208
 20
11.949129
 30
0.0
 10
8.904508
 20
11.914275
 30
0.0
 10
8.956807
 20
11.879392
 30
0.0
 10
9.009106
 20
11.844538
 30
0.0
 10
9.061406
 20
11.809655
 30
0.0
 10
9.145661
 20
11.832797
 30
0.0
 10
9.235731
 20
11.879279
 30
0.0
 10
9.331615
 20
11.949016
 30
0.0
 10
9.433312
 20
12.041980
 30
0.0
 10
9.081740
 20
12.569341
 30
0.0
 10
8.584895
 20
12.826474
 30
0.0
 10
7.942776
 20
12.813491
 30
0.0
 10
7.155384
 20
12.530225
 30
0.0
 10
6.112299
 20
11.880832
 30
0.0
 10
5.423690
 20
11.001907
 30
0.0
 10
5.089556
 20
9.893451
 30
0.0
 10
5.109896
 20
8.555464
 30
0.0
 10
5.098271
 20
8.243128
 30
0.0
 10
5.109893
 20
7.910445
 30
0.0
 10
5.144760
 20
7.557413
 30
0.0
 10
5.202872
 20
7.184061
 30
0.0
 10
5.214494
 20
7.114324
 30
0.0
 10
5.226116
 20
7.044615
 30
0.0
 10
5.237738
 20
6.974878
 30
0.0
 10
5.249360
 20
6.905141
 30
0.0
 10
5.275508
 20
6.691583
 30
0.0
 10
5.330712
 20
6.446050
 30
0.0
 10
5.414973
 20
6.168569
 30
0.0
 10
5.528291
 20
5.859141
 30
0.0
 10
5.539913
 20
5.835998
 30
0.0
 10
5.551535
 20
5.812856
 30
0.0
 10
5.563157
 20
5.789714
 30
0.0
 10
5.574778
 20
5.766572
 30
0.0
 10
6.542314
 20
4.836819
 30
0.0
 10
7.538906
 20
4.581126
 30
0.0
 10
8.564556
 20
4.999492
 30
0.0
 10
9.619264
 20
6.091974
 30
0.0
 10
9.741296
 20
6.161711
 30
0.0
 10
9.863328
 20
6.231448
 30
0.0
 10
9.985360
 20
6.301185
 30
0.0
 10
10.107392
 20
6.370922
 30
0.0
 10
10.287529
 20
6.364996
 30
0.0
 10
10.456047
 20
6.324328
 30
0.0
 10
10.612947
 20
6.248777
 30
0.0
 10
10.758229
 20
6.138371
 30
0.0
 10
10.688491
 20
4.242515
 30
0.0
 10
9.991164
 20
2.715665
 30
0.0
 10
8.666248
 20
1.557792
 30
0.0
 10
6.713743
 20
0.768952
 30
0.0
 10
6.405758
 20
0.768952
 30
0.0
 10
6.097772
 20
0.768952
 30
0.0
 10
5.789787
 20
0.768952
 30
0.0
 10
5.481802
 20
0.768952
 30
0.0
 10
3.476991
 20
1.243989
 30
0.0
 10
2.111396
 20
2.576191
 30
0.0
 10
1.385016
 20
4.765501
 30
0.0
 10
1.297851
 20
7.811949
 30
0.0
  0
LWPOLYLINE
  5
103
100
AcDbEntity
  8
Layer_1
 62
7
100
AcDbPolyline
 90
97
 70
0
 10
11.425046
 20
2.233395
 30
0.0
 10
11.942228
 20
5.502093
 30
0.0
 10
12.261835
 20
8.265246
 30
0.0
 10
12.383867
 20
10.522826
 30
0.0
 10
12.308324
 20
12.274862
 30
0.0
 10
12.231327
 20
12.993992
 30
0.0
 10
12.163047
 20
13.617224
 30
0.0
 10
12.103484
 20
14.144556
 30
0.0
 10
12.052638
 20
14.576045
 30
0.0
 10
12.022130
 20
14.914529
 30
0.0
 10
12.000339
 20
15.162949
 30
0.0
 10
11.987264
 20
15.321301
 30
0.0
 10
11.982906
 20
15.389588
 30
0.0
 10
12.988217
 20
15.389588
 30
0.0
 10
13.993527
 20
15.389588
 30
0.0
 10
14.998837
 20
15.389588
 30
0.0
 10
16.004148
 20
15.389588
 30
0.0
 10
15.962015
 20
15.232680
 30
0.0
 10
15.928601
 20
15.064160
 30
0.0
 10
15.903904
 20
14.884020
 30
0.0
 10
15.887927
 20
14.692264
 30
0.0
 10
15.876305
 20
14.651596
 30
0.0
 10
15.864683
 20
14.610928
 30
0.0
 10
15.853061
 20
14.570232
 30
0.0
 10
15.841439
 20
14.529563
 30
0.0
 10
15.818195
 20
14.378490
 30
0.0
 10
15.794952
 20
14.227388
 30
0.0
 10
15.771708
 20
14.076314
 30
0.0
 10
15.748464
 20
13.925213
 30
0.0
 10
15.736839
 20
13.854008
 30
0.0
 10
15.725217
 20
13.779925
 30
0.0
 10
15.713595
 20
13.702934
 30
0.0
 10
15.701976
 20
13.623037
 30
0.0
 10
15.690352
 20
13.551833
 30
0.0
 10
15.678730
 20
13.477749
 30
0.0
 10
15.667108
 20
13.400759
 30
0.0
 10
15.655489
 20
13.320862
 30
0.0
 10
15.643867
 20
13.222084
 30
0.0
 10
15.632245
 20
13.123278
 30
0.0
 10
15.620623
 20
13.024500
 30
0.0
 10
15.609001
 20
12.925694
 30
0.0
 10
15.013367
 20
9.892342
 30
0.0
 10
14.760586
 20
7.556304
 30
0.0
 10
14.850658
 20
5.917580
 30
0.0
 10
15.283583
 20
4.976200
 30
0.0
 10
16.004149
 20
4.672557
 30
0.0
 10
16.933915
 20
4.923904
 30
0.0
 10
18.072880
 20
5.730185
 30
0.0
 10
19.421045
 20
7.091427
 30
0.0
 10
19.421045
 20
6.783438
 30
0.0
 10
19.421045
 20
6.475449
 30
0.0
 10
19.421045
 20
6.167460
 30
0.0
 10
19.421045
 20
5.859471
 30
0.0
 10
19.409423
 20
5.766507
 30
0.0
 10
19.397801
 20
5.673515
 30
0.0
 10
19.386179
 20
5.580522
 30
0.0
 10
19.374558
 20
5.487558
 30
0.0
 10
19.374558
 20
5.348112
 30
0.0
 10
19.374558
 20
5.208638
 30
0.0
 10
19.374558
 20
5.069192
 30
0.0
 10
19.374558
 20
4.929718
 30
0.0
 10
19.362936
 20
4.889022
 30
0.0
 10
19.351314
 20
4.848353
 30
0.0
 10
19.339692
 20
4.807685
 30
0.0
 10
19.328070
 20
4.766989
 30
0.0
 10
19.322259
 20
4.453186
 30
0.0
 10
19.316448
 20
4.139411
 30
0.0
 10
19.310637
 20
3.825608
 30
0.0
 10
19.304826
 20
3.511805
 30
0.0
 10
19.293199
 20
3.439161
 30
0.0
 10
19.281574
 20
3.360732
 30
0.0
 10
19.269955
 20
3.276460
 30
0.0
 10
19.258338
 20
3.186403
 30
0.0
 10
19.258334
 20
3.100692
 30
0.0
 10
19.258332
 20
3.006261
 30
0.0
 10
19.258334
 20
2.903108
 30
0.0
 10
19.258338
 20
2.791236
 30
0.0
 10
19.246717
 20
2.750567
 30
0.0
 10
19.235095
 20
2.709899
 30
0.0
 10
19.223473
 20
2.669203
 30
0.0
 10
19.211851
 20
2.628534
 30
0.0
 10
19.211851
 20
2.477433
 30
0.0
 10
19.211851
 20
2.326359
 30
0.0
 10
19.211851
 20
2.175286
 30
0.0
 10
19.211851
 20
2.024184
 30
0.0
 10
19.200229
 20
1.942819
 30
0.0
 10
19.188607
 20
1.861483
 30
0.0
 10
19.176985
 20
1.780146
 30
0.0
 10
19.165363
 20
1.698782
 30
0.0
 10
17.218664
 20
1.681284
 30
0.0
 10
15.271964
 20
1.663786
 30
0.0
 10
13.325265
 20
1.646288
 30
0.0
 10
11.378566
 20
1.628790
 30
0.0
 10
11.390187
 20
1.779864
 30
0.0
 10
11.401809
 20
1.930966
 30
0.0
 10
11.413431
 20
2.082068
 30
0.0
 10
11.425053
 20
2.233141
 30
0.0
  0
LWPOLYLINE
  5
104
100
AcDbEntity
  8
Layer_1
 62
7
100
AcDbPolyline
 90
149
 70
0
 10
22.793625
 20
15.947448
 30
0.0
 10
22.944712
 20
15.941634
 30
0.0
 10
23.095799
 20
15.935820
 30
0.0
 10
23.246887
 20
15.930006
 30
0.0
 10
23.397974
 20
15.924193
 30
0.0
 10
24.693836
 20
15.912565
 30
0.0
 10
25.989699
 20
15.900938
 30
0.0
 10
27.285561
 20
15.889310
 30
0.0
 10
28.581423
 20
15.877682
 30
0.0
 10
28.581423
 20
15.674296
 30
0.0
 10
28.581423
 20
15.470910
 30
0.0
 10
28.581423
 20
15.267521
 30
0.0
 10
28.581423
 20
15.064135
 30
0.0
 10
28.569796
 20
14.988592
 30
0.0
 10
28.558168
 20
14.913053
 30
0.0
 10
28.546541
 20
14.837510
 30
0.0
 10
28.534913
 20
14.761979
 30
0.0
 10
28.534913
 20
14.227337
 30
0.0
 10
28.534913
 20
13.692724
 30
0.0
 10
28.534913
 20
13.158110
 30
0.0
 10
28.534913
 20
12.623497
 30
0.0
 10
28.545073
 20
12.552320
 30
0.0
 10
28.552326
 20
12.478209
 30
0.0
 10
28.556672
 20
12.401218
 30
0.0
 10
28.558084
 20
12.321321
 30
0.0
 10
28.568244
 20
12.238517
 30
0.0
 10
28.575497
 20
12.152806
 30
0.0
 10
28.579871
 20
12.064189
 30
0.0
 10
28.581282
 20
11.972664
 30
0.0
 10
28.592910
 20
11.716971
 30
0.0
 10
28.604537
 20
11.461277
 30
0.0
 10
28.616165
 20
11.205584
 30
0.0
 10
28.627792
 20
10.949919
 30
0.0
 10
28.648112
 20
10.920850
 30
0.0
 10
28.662647
 20
10.880182
 30
0.0
 10
28.671368
 20
10.827886
 30
0.0
 10
28.674274
 20
10.763963
 30
0.0
 10
28.685902
 20
10.572193
 30
0.0
 10
28.697530
 20
10.380423
 30
0.0
 10
28.709157
 20
10.188653
 30
0.0
 10
28.720785
 20
9.996911
 30
0.0
 10
28.738226
 20
9.744124
 30
0.0
 10
28.767281
 20
9.520379
 30
0.0
 10
28.807958
 20
9.325730
 30
0.0
 10
28.860262
 20
9.160122
 30
0.0
 10
28.871889
 20
9.014834
 30
0.0
 10
28.883517
 20
8.869574
 30
0.0
 10
28.895144
 20
8.724286
 30
0.0
 10
28.906772
 20
8.579026
 30
0.0
 10
28.950350
 20
8.420671
 30
0.0
 10
28.988120
 20
8.247782
 30
0.0
 10
29.020081
 20
8.060387
 30
0.0
 10
29.046243
 20
7.858457
 30
0.0
 10
29.069498
 20
7.788719
 30
0.0
 10
29.092754
 20
7.718982
 30
0.0
 10
29.116009
 20
7.649245
 30
0.0
 10
29.139264
 20
7.579536
 30
0.0
 10
29.145078
 20
7.444408
 30
0.0
 10
29.162519
 20
7.318001
 30
0.0
 10
29.191577
 20
7.200343
 30
0.0
 10
29.232259
 20
7.091405
 30
0.0
 10
29.354292
 20
6.667197
 30
0.0
 10
29.476322
 20
6.242988
 30
0.0
 10
29.598355
 20
5.818780
 30
0.0
 10
29.720385
 20
5.394572
 30
0.0
 10
29.763963
 20
5.305926
 30
0.0
 10
29.801733
 20
5.202774
 30
0.0
 10
29.833694
 20
5.085115
 30
0.0
 10
29.859856
 20
4.952922
 30
0.0
 10
30.028377
 20
4.610051
 30
0.0
 10
30.196897
 20
4.267207
 30
0.0
 10
30.365418
 20
3.924363
 30
0.0
 10
30.533938
 20
3.581520
 30
0.0
 10
30.580426
 20
3.511783
 30
0.0
 10
30.626916
 20
3.442046
 30
0.0
 10
30.673404
 20
3.372309
 30
0.0
 10
30.719892
 20
3.302600
 30
0.0
 10
30.754757
 20
3.261903
 30
0.0
 10
30.789623
 20
3.221235
 30
0.0
 10
30.824489
 20
3.180567
 30
0.0
 10
30.859355
 20
3.139899
 30
0.0
 10
30.882610
 20
3.116756
 30
0.0
 10
30.905865
 20
3.093614
 30
0.0
 10
30.929120
 20
3.070472
 30
0.0
 10
30.952375
 20
3.047330
 30
0.0
 10
30.998863
 20
2.977593
 30
0.0
 10
31.045353
 20
2.907855
 30
0.0
 10
31.091841
 20
2.838118
 30
0.0
 10
31.138328
 20
2.768409
 30
0.0
 10
31.190627
 20
2.698672
 30
0.0
 10
31.242926
 20
2.628935
 30
0.0
 10
31.295227
 20
2.559198
 30
0.0
 10
31.347526
 20
2.489461
 30
0.0
 10
30.592090
 20
2.489461
 30
0.0
 10
29.836655
 20
2.489461
 30
0.0
 10
29.081219
 20
2.489461
 30
0.0
 10
28.325784
 20
2.489461
 30
0.0
 10
28.267674
 20
2.669603
 30
0.0
 10
28.209563
 20
2.849746
 30
0.0
 10
28.151452
 20
3.029888
 30
0.0
 10
28.093341
 20
3.210031
 30
0.0
 10
28.070098
 20
3.256513
 30
0.0
 10
28.046854
 20
3.302995
 30
0.0
 10
28.023610
 20
3.349477
 30
0.0
 10
28.000366
 20
3.395987
 30
0.0
 10
27.930634
 20
3.599356
 30
0.0
 10
27.860901
 20
3.802754
 30
0.0
 10
27.791169
 20
4.006151
 30
0.0
 10
27.721436
 20
4.209549
 30
0.0
 10
27.698192
 20
4.290885
 30
0.0
 10
27.674948
 20
4.372250
 30
0.0
 10
27.651705
 20
4.453587
 30
0.0
 10
27.628461
 20
4.534951
 30
0.0
 10
27.616839
 20
4.581433
 30
0.0
 10
27.605217
 20
4.627915
 30
0.0
 10
27.593595
 20
4.674397
 30
0.0
 10
27.581973
 20
4.720907
 30
0.0
 10
27.541296
 20
4.842940
 30
0.0
 10
27.500618
 20
4.964973
 30
0.0
 10
27.459941
 20
5.087006
 30
0.0
 10
27.419264
 20
5.209039
 30
0.0
 10
27.384398
 20
5.313631
 30
0.0
 10
27.349531
 20
5.418222
 30
0.0
 10
27.314665
 20
5.522814
 30
0.0
 10
27.279799
 20
5.627433
 30
0.0
 10
27.268177
 20
5.673915
 30
0.0
 10
27.256555
 20
5.720397
 30
0.0
 10
27.244933
 20
5.766879
 30
0.0
 10
27.233311
 20
5.813390
 30
0.0
 10
27.093846
 20
6.196901
 30
0.0
 10
26.954381
 20
6.580441
 30
0.0
 10
26.814916
 20
6.963953
 30
0.0
 10
26.675451
 20
7.347493
 30
0.0
 10
26.338411
 20
7.347493
 30
0.0
 10
26.001370
 20
7.347493
 30
0.0
 10
25.664330
 20
7.347493
 30
0.0
 10
25.327289
 20
7.347493
 30
0.0
 10
24.746183
 20
6.369791
 30
0.0
 10
24.467252
 20
5.342671
 30
0.0
 10
24.490495
 20
4.266191
 30
0.0
 10
24.815916
 20
3.140322
 30
0.0
 10
23.589786
 20
3.140322
 30
0.0
 10
22.363656
 20
3.140322
 30
0.0
 10
21.137526
 20
3.140322
 30
0.0
 10
19.911396
 20
3.140322
 30
0.0
 10
21.721534
 20
7.314078
 30
0.0
 10
22.805293
 20
10.839909
 30
0.0
 10
23.162672
 20
13.717841
 30
0.0
 10
22.793673
 20
15.947837
 30
0.0
  0
LWPOLYLINE
  5
105
100
AcDbEntity
  8
Layer_1
 62
7
100
AcDbPolyline
 90
37
 70
0
 10
25.582974
 20
12.112561
 30
0.0
 10
25.565541
 20
12.159043
 30
0.0
 10
25.548108
 20
12.205525
 30
0.0
 10
25.530675
 20
12.252007
 30
0.0
 10
25.513243
 20
12.298518
 30
0.0
 10
25.420266
 20
12.002156
 30
0.0
 10
25.327289
 20
11.705795
 30
0.0
 10
25.234312
 20
11.409433
 30
0.0
 10
25.141336
 20
11.113071
 30
0.0
 10
25.116636
 20
11.027332
 30
0.0
 10
25.089031
 20
10.932901
 30
0.0
 10
25.058524
 20
10.829749
 30
0.0
 10
25.025114
 20
10.717904
 30
0.0
 10
24.985887
 20
10.598750
 30
0.0
 10
24.937944
 20
10.473810
 30
0.0
 10
24.881288
 20
10.343085
 30
0.0
 10
24.815917
 20
10.206545
 30
0.0
 10
25.135524
 20
10.206545
 30
0.0
 10
25.455131
 20
10.206545
 30
0.0
 10
25.774739
 20
10.206545
 30
0.0
 10
26.094346
 20
10.206545
 30
0.0
 10
26.129212
 20
10.218117
 30
0.0
 10
26.164078
 20
10.229688
 30
0.0
 10
26.198945
 20
10.241259
 30
0.0
 10
26.233811
 20
10.252830
 30
0.0
 10
26.123398
 20
10.466359
 30
0.0
 10
26.024609
 20
10.711893
 30
0.0
 10
25.937444
 20
10.989373
 30
0.0
 10
25.861904
 20
11.298830
 30
0.0
 10
25.821223
 20
11.377260
 30
0.0
 10
25.792167
 20
11.449875
 30
0.0
 10
25.774734
 20
11.516706
 30
0.0
 10
25.768926
 20
11.577750
 30
0.0
 10
25.722438
 20
11.711383
 30
0.0
 10
25.675950
 20
11.845043
 30
0.0
 10
25.629461
 20
11.978703
 30
0.0
 10
25.582973
 20
12.112364
 30
0.0
  0
LWPOLYLINE
  5
106
100
AcDbEntity
  8
Layer_1
 62
7
100
AcDbPolyline
 90
193
 70
0
 10
32.296134
 20
15.087415
 30
0.0
 10
32.274346
 20
15.215250
 30
0.0
 10
32.255466
 20
15.319845
 30
0.0
 10
32.239492
 20
15.401201
 30
0.0
 10
32.226425
 20
15.459319
 30
0.0
 10
32.223518
 20
15.518874
 30
0.0
 10
32.214797
 20
15.581341
 30
0.0
 10
32.200263
 20
15.646717
 30
0.0
 10
32.179915
 20
15.715007
 30
0.0
 10
32.761019
 20
15.715007
 30
0.0
 10
33.342123
 20
15.715007
 30
0.0
 10
33.923230
 20
15.715007
 30
0.0
 10
34.504334
 20
15.715007
 30
0.0
 10
38.034536
 20
15.514519
 30
0.0
 10
40.373478
 20
14.401688
 30
0.0
 10
41.521160
 20
12.376546
 30
0.0
 10
41.477585
 20
9.439093
 30
0.0
 10
41.426731
 20
9.309779
 30
0.0
 10
41.367165
 20
9.177586
 30
0.0
 10
41.298887
 20
9.042458
 30
0.0
 10
41.221897
 20
8.904451
 30
0.0
 10
41.149253
 20
8.776604
 30
0.0
 10
41.070804
 20
8.648786
 30
0.0
 10
40.986546
 20
8.520939
 30
0.0
 10
40.896481
 20
8.393093
 30
0.0
 10
40.884853
 20
8.375595
 30
0.0
 10
40.873226
 20
8.358097
 30
0.0
 10
40.861598
 20
8.340599
 30
0.0
 10
40.849971
 20
8.323102
 30
0.0
 10
41.585063
 20
7.059198
 30
0.0
 10
42.116770
 20
5.498932
 30
0.0
 10
42.445096
 20
3.642305
 30
0.0
 10
42.570039
 20
1.489316
 30
0.0
 10
41.791359
 20
1.646204
 30
0.0
 10
41.012680
 20
1.803119
 30
0.0
 10
40.234001
 20
1.960006
 30
0.0
 10
39.455321
 20
2.116922
 30
0.0
 10
39.331832
 20
4.267004
 30
0.0
 10
38.752179
 20
5.789480
 30
0.0
 10
37.716364
 20
6.684378
 30
0.0
 10
36.224382
 20
6.951699
 30
0.0
 10
36.073292
 20
6.992367
 30
0.0
 10
35.898960
 20
7.021408
 30
0.0
 10
35.701385
 20
7.038906
 30
0.0
 10
35.480569
 20
7.044832
 30
0.0
 10
35.428270
 20
7.056404
 30
0.0
 10
35.375969
 20
7.067975
 30
0.0
 10
35.323670
 20
7.079546
 30
0.0
 10
35.271371
 20
7.091117
 30
0.0
 10
35.236506
 20
7.097044
 30
0.0
 10
35.201637
 20
7.102970
 30
0.0
 10
35.166771
 20
7.108615
 30
0.0
 10
35.131906
 20
7.114541
 30
0.0
 10
35.114464
 20
6.972160
 30
0.0
 10
35.108650
 20
6.823994
 30
0.0
 10
35.114464
 20
6.669985
 30
0.0
 10
35.131906
 20
6.510191
 30
0.0
 10
35.155161
 20
6.330048
 30
0.0
 10
35.178416
 20
6.149906
 30
0.0
 10
35.201671
 20
5.969763
 30
0.0
 10
35.224926
 20
5.789621
 30
0.0
 10
35.224926
 20
5.760580
 30
0.0
 10
35.224926
 20
5.731511
 30
0.0
 10
35.224926
 20
5.702442
 30
0.0
 10
35.224926
 20
5.673402
 30
0.0
 10
35.248181
 20
5.568810
 30
0.0
 10
35.271436
 20
5.464190
 30
0.0
 10
35.294691
 20
5.359599
 30
0.0
 10
35.317946
 20
5.255007
 30
0.0
 10
35.370242
 20
5.031290
 30
0.0
 10
35.410919
 20
4.824985
 30
0.0
 10
35.439977
 20
4.636122
 30
0.0
 10
35.457418
 20
4.464700
 30
0.0
 10
35.567826
 20
4.011452
 30
0.0
 10
35.678237
 20
3.558174
 30
0.0
 10
35.788645
 20
3.104926
 30
0.0
 10
35.899056
 20
2.651677
 30
0.0
 10
35.904870
 20
2.610980
 30
0.0
 10
35.910684
 20
2.570312
 30
0.0
 10
35.916497
 20
2.529616
 30
0.0
 10
35.922311
 20
2.488947
 30
0.0
 10
34.957679
 20
2.488947
 30
0.0
 10
33.993046
 20
2.488947
 30
0.0
 10
33.028413
 20
2.488947
 30
0.0
 10
32.063780
 20
2.488947
 30
0.0
 10
32.071033
 20
2.667622
 30
0.0
 10
32.092821
 20
2.878273
 30
0.0
 10
32.129140
 20
3.120899
 30
0.0
 10
32.179988
 20
3.395473
 30
0.0
 10
32.191616
 20
3.471024
 30
0.0
 10
32.203243
 20
3.546547
 30
0.0
 10
32.214871
 20
3.622098
 30
0.0
 10
32.226498
 20
3.697649
 30
0.0
 10
32.232312
 20
3.755758
 30
0.0
 10
32.238126
 20
3.813868
 30
0.0
 10
32.243940
 20
3.871977
 30
0.0
 10
32.249753
 20
3.930087
 30
0.0
 10
32.261381
 20
3.964941
 30
0.0
 10
32.273009
 20
3.999824
 30
0.0
 10
32.284636
 20
4.034678
 30
0.0
 10
32.296264
 20
4.069561
 30
0.0
 10
32.300638
 20
4.193062
 30
0.0
 10
32.313705
 20
4.331068
 30
0.0
 10
32.335493
 20
4.483581
 30
0.0
 10
32.365995
 20
4.650657
 30
0.0
 10
32.377623
 20
4.720394
 30
0.0
 10
32.389250
 20
4.790131
 30
0.0
 10
32.400878
 20
4.859868
 30
0.0
 10
32.412505
 20
4.929605
 30
0.0
 10
32.418319
 20
5.010942
 30
0.0
 10
32.424133
 20
5.092306
 30
0.0
 10
32.429947
 20
5.173643
 30
0.0
 10
32.435760
 20
5.255007
 30
0.0
 10
32.445920
 20
5.314584
 30
0.0
 10
32.453202
 20
5.377040
 30
0.0
 10
32.457576
 20
5.442403
 30
0.0
 10
32.458987
 20
5.510701
 30
0.0
 10
32.469147
 20
5.592037
 30
0.0
 10
32.476400
 20
5.673402
 30
0.0
 10
32.480775
 20
5.754766
 30
0.0
 10
32.482186
 20
5.836131
 30
0.0
 10
32.488000
 20
5.865172
 30
0.0
 10
32.493814
 20
5.894241
 30
0.0
 10
32.499627
 20
5.923281
 30
0.0
 10
32.505441
 20
5.952350
 30
0.0
 10
32.505441
 20
6.039500
 30
0.0
 10
32.505441
 20
6.126679
 30
0.0
 10
32.505441
 20
6.213829
 30
0.0
 10
32.505441
 20
6.301008
 30
0.0
 10
32.517069
 20
6.359117
 30
0.0
 10
32.528696
 20
6.417227
 30
0.0
 10
32.540324
 20
6.475336
 30
0.0
 10
32.551951
 20
6.533446
 30
0.0
 10
32.557765
 20
6.608997
 30
0.0
 10
32.563579
 20
6.684519
 30
0.0
 10
32.569393
 20
6.760070
 30
0.0
 10
32.575206
 20
6.835621
 30
0.0
 10
32.586834
 20
7.062246
 30
0.0
 10
32.598462
 20
7.288870
 30
0.0
 10
32.610089
 20
7.515523
 30
0.0
 10
32.621717
 20
7.742147
 30
0.0
 10
32.621717
 20
7.852552
 30
0.0
 10
32.621717
 20
7.962958
 30
0.0
 10
32.621717
 20
8.073363
 30
0.0
 10
32.621717
 20
8.183768
 30
0.0
 10
32.627530
 20
8.247692
 30
0.0
 10
32.633344
 20
8.311615
 30
0.0
 10
32.639158
 20
8.375538
 30
0.0
 10
32.644972
 20
8.439462
 30
0.0
 10
32.644972
 20
9.078667
 30
0.0
 10
32.644972
 20
9.717900
 30
0.0
 10
32.644972
 20
10.357105
 30
0.0
 10
32.644972
 20
10.996339
 30
0.0
 10
32.634812
 20
11.054448
 30
0.0
 10
32.627530
 20
11.112558
 30
0.0
 10
32.623156
 20
11.170667
 30
0.0
 10
32.621745
 20
11.228777
 30
0.0
 10
32.621742
 20
11.288326
 30
0.0
 10
32.621742
 20
11.350810
 30
0.0
 10
32.621742
 20
11.416172
 30
0.0
 10
32.621745
 20
11.484442
 30
0.0
 10
32.604304
 20
11.786617
 30
0.0
 10
32.586862
 20
12.088793
 30
0.0
 10
32.569421
 20
12.390968
 30
0.0
 10
32.551980
 20
12.693143
 30
0.0
 10
32.540352
 20
12.752692
 30
0.0
 10
32.528724
 20
12.815176
 30
0.0
 10
32.517097
 20
12.880539
 30
0.0
 10
32.505469
 20
12.948837
 30
0.0
 10
32.505469
 20
13.021481
 30
0.0
 10
32.505469
 20
13.099910
 30
0.0
 10
32.505469
 20
13.184182
 30
0.0
 10
32.505469
 20
13.274267
 30
0.0
 10
32.488028
 20
13.407928
 30
0.0
 10
32.470587
 20
13.541560
 30
0.0
 10
32.453145
 20
13.675220
 30
0.0
 10
32.435704
 20
13.808881
 30
0.0
 10
32.425544
 20
13.865523
 30
0.0
 10
32.418263
 20
13.919258
 30
0.0
 10
32.413888
 20
13.970114
 30
0.0
 10
32.412477
 20
14.018064
 30
0.0
 10
32.412477
 20
14.071799
 30
0.0
 10
32.412477
 20
14.116842
 30
0.0
 10
32.412477
 20
14.153164
 30
0.0
 10
32.412477
 20
14.180821
 30
0.0
 10
32.389222
 20
14.355150
 30
0.0
 10
32.365967
 20
14.529479
 30
0.0
 10
32.342712
 20
14.703836
 30
0.0
 10
32.319457
 20
14.878159
 30
0.0
 10
32.313643
 20
14.930457
 30
0.0
 10
32.307829
 20
14.982759
 30
0.0
 10
32.302015
 20
15.035057
 30
0.0
 10
32.296202
 20
15.087359
 30
0.0
  0
LWPOLYLINE
  5
107
100
AcDbEntity
  8
Layer_1
 62
7
100
AcDbPolyline
 90
53
 70
0
 10
38.502395
 20
11.298570
 30
0.0
 10
38.400696
 20
12.194908
 30
0.0
 10
37.886420
 20
12.815233
 30
0.0
 10
36.959560
 20
13.159516
 30
0.0
 10
35.620116
 20
13.227813
 30
0.0
 10
35.567818
 20
13.216242
 30
0.0
 10
35.515519
 20
13.204671
 30
0.0
 10
35.463218
 20
13.193100
 30
0.0
 10
35.410919
 20
13.181529
 30
0.0
 10
35.373146
 20
13.078377
 30
0.0
 10
35.352798
 20
12.954904
 30
0.0
 10
35.349891
 20
12.811084
 30
0.0
 10
35.364426
 20
12.646915
 30
0.0
 10
35.352798
 20
12.588806
 30
0.0
 10
35.341171
 20
12.530696
 30
0.0
 10
35.329543
 20
12.472587
 30
0.0
 10
35.317915
 20
12.414477
 30
0.0
 10
35.317915
 20
12.333112
 30
0.0
 10
35.317915
 20
12.251748
 30
0.0
 10
35.317915
 20
12.170411
 30
0.0
 10
35.317915
 20
12.089047
 30
0.0
 10
35.306288
 20
12.007682
 30
0.0
 10
35.294660
 20
11.926346
 30
0.0
 10
35.283033
 20
11.844981
 30
0.0
 10
35.271405
 20
11.763644
 30
0.0
 10
35.271405
 20
11.728762
 30
0.0
 10
35.271405
 20
11.693907
 30
0.0
 10
35.271405
 20
11.659025
 30
0.0
 10
35.271405
 20
11.624170
 30
0.0
 10
35.265591
 20
11.595101
 30
0.0
 10
35.259778
 20
11.566061
 30
0.0
 10
35.253964
 20
11.536992
 30
0.0
 10
35.248150
 20
11.507951
 30
0.0
 10
35.248150
 20
11.403360
 30
0.0
 10
35.248150
 20
11.298740
 30
0.0
 10
35.248150
 20
11.194148
 30
0.0
 10
35.248150
 20
11.089557
 30
0.0
 10
35.236523
 20
11.054674
 30
0.0
 10
35.224895
 20
11.019820
 30
0.0
 10
35.213267
 20
10.984937
 30
0.0
 10
35.201640
 20
10.950082
 30
0.0
 10
35.201640
 20
10.874532
 30
0.0
 10
35.201640
 20
10.798981
 30
0.0
 10
35.201640
 20
10.723458
 30
0.0
 10
35.201640
 20
10.647907
 30
0.0
 10
35.190012
 20
10.613053
 30
0.0
 10
35.178385
 20
10.578170
 30
0.0
 10
35.166757
 20
10.543316
 30
0.0
 10
35.155130
 20
10.508461
 30
0.0
 10
36.296995
 20
10.357359
 30
0.0
 10
37.235480
 20
10.438724
 30
0.0
 10
37.970576
 20
10.752527
 30
0.0
 10
38.502291
 20
11.298768
 30
0.0
  0
LWPOLYLINE
  5
108
100
AcDbEntity
  8
Layer_1
 62
7
100
AcDbPolyline
 90
149
 70
0
 10
44.040975
 20
15.389588
 30
0.0
 10
44.029348
 20
15.444785
 30
0.0
 10
44.017720
 20
15.494176
 30
0.0
 10
44.006093
 20
15.537763
 30
0.0
 10
43.994465
 20
15.575541
 30
0.0
 10
43.994462
 20
15.608948
 30
0.0
 10
43.994462
 20
15.639453
 30
0.0
 10
43.994462
 20
15.667054
 30
0.0
 10
43.994465
 20
15.691749
 30
0.0
 10
46.156169
 20
15.560992
 30
0.0
 10
48.224900
 20
15.517406
 30
0.0
 10
50.200656
 20
15.560992
 30
0.0
 10
52.083437
 20
15.691749
 30
0.0
 10
52.025327
 20
15.529039
 30
0.0
 10
51.967215
 20
15.366330
 30
0.0
 10
51.909105
 20
15.203620
 30
0.0
 10
51.850993
 20
15.040910
 30
0.0
 10
51.821938
 20
14.971179
 30
0.0
 10
51.792883
 20
14.901450
 30
0.0
 10
51.763828
 20
14.831719
 30
0.0
 10
51.734774
 20
14.761987
 30
0.0
 10
51.641798
 20
14.488881
 30
0.0
 10
51.548820
 20
14.215746
 30
0.0
 10
51.455842
 20
13.942640
 30
0.0
 10
51.362867
 20
13.669505
 30
0.0
 10
51.341079
 20
13.621556
 30
0.0
 10
51.322199
 20
13.570699
 30
0.0
 10
51.306225
 20
13.516936
 30
0.0
 10
51.293158
 20
13.460294
 30
0.0
 10
51.281530
 20
13.400745
 30
0.0
 10
51.269903
 20
13.338261
 30
0.0
 10
51.258275
 20
13.272898
 30
0.0
 10
51.246648
 20
13.204629
 30
0.0
 10
50.581281
 20
13.759562
 30
0.0
 10
49.863615
 20
14.006535
 30
0.0
 10
49.093653
 20
13.945519
 30
0.0
 10
48.271393
 20
13.576541
 30
0.0
 10
47.797791
 20
13.027393
 30
0.0
 10
47.399736
 20
12.402694
 30
0.0
 10
47.077224
 20
11.702473
 30
0.0
 10
46.830257
 20
10.926700
 30
0.0
 10
46.838977
 20
10.842429
 30
0.0
 10
46.865139
 20
10.798854
 30
0.0
 10
46.908720
 20
10.796031
 30
0.0
 10
46.969739
 20
10.833793
 30
0.0
 10
47.870449
 20
11.401821
 30
0.0
 10
48.759536
 20
11.571804
 30
0.0
 10
49.637005
 20
11.343712
 30
0.0
 10
50.502854
 20
10.717574
 30
0.0
 10
50.883473
 20
9.450763
 30
0.0
 10
50.793402
 20
8.486127
 30
0.0
 10
50.232637
 20
7.823667
 30
0.0
 10
49.201180
 20
7.463382
 30
0.0
 10
48.896098
 20
7.704541
 30
0.0
 10
48.701427
 20
8.009623
 30
0.0
 10
48.617166
 20
8.378629
 30
0.0
 10
48.643328
 20
8.811558
 30
0.0
 10
48.750830
 20
9.126800
 30
0.0
 10
48.933876
 20
9.351985
 30
0.0
 10
49.192471
 20
9.487085
 30
0.0
 10
49.526608
 20
9.532127
 30
0.0
 10
48.839447
 20
9.635280
 30
0.0
 10
48.195873
 20
9.526370
 30
0.0
 10
47.595886
 20
9.205314
 30
0.0
 10
47.039482
 20
8.672083
 30
0.0
 10
46.956672
 20
8.538423
 30
0.0
 10
46.894202
 20
8.393163
 30
0.0
 10
46.852072
 20
8.236248
 30
0.0
 10
46.830285
 20
8.067733
 30
0.0
 10
47.656902
 20
6.064378
 30
0.0
 10
48.672380
 20
5.028566
 30
0.0
 10
49.876718
 20
4.960269
 30
0.0
 10
51.269920
 20
5.859541
 30
0.0
 10
51.335291
 20
5.708468
 30
0.0
 10
51.391947
 20
5.534139
 30
0.0
 10
51.439888
 20
5.336555
 30
0.0
 10
51.479117
 20
5.115745
 30
0.0
 10
51.531416
 20
4.964643
 30
0.0
 10
51.583717
 20
4.813569
 30
0.0
 10
51.636016
 20
4.662496
 30
0.0
 10
51.688314
 20
4.511394
 30
0.0
 10
51.699942
 20
4.470698
 30
0.0
 10
51.711569
 20
4.430029
 30
0.0
 10
51.723197
 20
4.389333
 30
0.0
 10
51.734824
 20
4.348665
 30
0.0
 10
51.909156
 20
3.924457
 30
0.0
 10
52.083485
 20
3.500248
 30
0.0
 10
52.257816
 20
3.076068
 30
0.0
 10
52.432148
 20
2.651860
 30
0.0
 10
52.440868
 20
2.601004
 30
0.0
 10
52.420520
 20
2.564682
 30
0.0
 10
52.371128
 20
2.542951
 30
0.0
 10
52.292682
 20
2.535613
 30
0.0
 10
52.164832
 20
2.603882
 30
0.0
 10
52.013745
 20
2.669245
 30
0.0
 10
51.839416
 20
2.731729
 30
0.0
 10
51.641843
 20
2.791278
 30
0.0
 10
51.601167
 20
2.808776
 30
0.0
 10
51.560490
 20
2.826273
 30
0.0
 10
51.519811
 20
2.843771
 30
0.0
 10
51.479134
 20
2.861269
 30
0.0
 10
51.328046
 20
2.896123
 30
0.0
 10
51.176961
 20
2.931006
 30
0.0
 10
51.025874
 20
2.965861
 30
0.0
 10
50.874786
 20
3.000743
 30
0.0
 10
50.793433
 20
3.012314
 30
0.0
 10
50.712076
 20
3.023885
 30
0.0
 10
50.630723
 20
3.035457
 30
0.0
 10
50.549367
 20
3.047028
 30
0.0
 10
50.438959
 20
3.058599
 30
0.0
 10
50.328548
 20
3.070170
 30
0.0
 10
50.218137
 20
3.081741
 30
0.0
 10
50.107729
 20
3.093312
 30
0.0
 10
50.029277
 20
3.103472
 30
0.0
 10
49.956635
 20
3.110810
 30
0.0
 10
49.889811
 20
3.115043
 30
0.0
 10
49.828800
 20
3.117865
 30
0.0
 10
49.783760
 20
3.117865
 30
0.0
 10
49.741627
 20
3.117865
 30
0.0
 10
49.702407
 20
3.117865
 30
0.0
 10
49.666090
 20
3.117865
 30
0.0
 10
49.032688
 20
3.117865
 30
0.0
 10
48.399282
 20
3.117865
 30
0.0
 10
47.765880
 20
3.117865
 30
0.0
 10
47.132474
 20
3.117865
 30
0.0
 10
47.084530
 20
3.117865
 30
0.0
 10
47.033682
 20
3.117865
 30
0.0
 10
46.979933
 20
3.117865
 30
0.0
 10
46.923277
 20
3.117865
 30
0.0
 10
46.875333
 20
3.115043
 30
0.0
 10
46.824488
 20
3.110810
 30
0.0
 10
46.770736
 20
3.103472
 30
0.0
 10
46.714080
 20
3.093312
 30
0.0
 10
46.388661
 20
3.070170
 30
0.0
 10
46.063241
 20
3.047028
 30
0.0
 10
45.737825
 20
3.023885
 30
0.0
 10
45.412406
 20
3.000743
 30
0.0
 10
45.267129
 20
2.986068
 30
0.0
 10
45.086987
 20
2.965748
 30
0.0
 10
44.871979
 20
2.939501
 30
0.0
 10
44.622105
 20
2.907525
 30
0.0
 10
44.347534
 20
2.879867
 30
0.0
 10
44.035190
 20
2.843545
 30
0.0
 10
43.685073
 20
2.798531
 30
0.0
 10
43.297187
 20
2.744768
 30
0.0
 10
43.936401
 20
5.844951
 30
0.0
 10
44.273439
 20
8.985830
 30
0.0
 10
44.308308
 20
12.167377
 30
0.0
 10
44.041001
 20
15.389602
 30
0.0
  0
ENDSEC
  0
SECTION
  2
OBJECTS
  0
DICTIONARY
  5
C
330
0
100
AcDbDictionary
  3
ACAD_GROUP
350
D
  3
ACAD_MLINESTYLE
350
17
  0
DICTIONARY
  5
D
330
C
100
AcDbDictionary
  0
DICTIONARY
  5
1A
330
C
100
AcDbDictionary
  0
DICTIONARY
  5
17
330
C
100
AcDbDictionary
  3
STANDARD
350
18
  0
DICTIONARY
  5
19
330
C
100
AcDbDictionary
  0
ENDSEC
  0
EOF
