999
DXF created by Inkscape
  0
SECTION
  2
HEADER
  9
$ACADVER
  1
AC1014
  9
$HANDSEED
  5
FFFF
  9
$MEASUREMENT
 70
     1
  0
ENDSEC
  0
SECTION
  2
TABLES
  0
TABLE
  2
VPORT
  5
8
330
0
100
AcDbSymbolTable
 70
     4
  0
VPORT
  5
2E
330
8
100
AcDbSymbolTableRecord
100
AcDbViewportTableRecord
  2
*ACTIVE
 70
     0
 10
0.0
 20
0.0
 11
1.0
 21
1.0
 12
210.0
 22
148.5
 13
0.0
 23
0.0
 14
10.0
 24
10.0
 15
10.0
 25
10.0
 16
0.0
 26
0.0
 36
1.0
 17
0.0
 27
0.0
 37
0.0
 40
341.0
 41
1.24
 42
50.0
 43
0.0
 44
0.0
 50
0.0
 51
0.0
 71
     0
 72
   100
 73
     1
 74
     3
 75
     0
 76
     0
 77
     0
 78
     0
  0
ENDTAB
  0
TABLE
  2
LTYPE
  5
5
330
0
100
AcDbSymbolTable
 70
     1
  0
LTYPE
  5
14
330
5
100
AcDbSymbolTableRecord
100
AcDbLinetypeTableRecord
  2
BYBLOCK
 70
     0
  3

 72
    65
 73
     0
 40
0.0
  0
LTYPE
  5
15
330
5
100
AcDbSymbolTableRecord
100
AcDbLinetypeTableRecord
  2
BYLAYER
 70
     0
  3

 72
    65
 73
     0
 40
0.0
  0
LTYPE
  5
16
330
5
100
AcDbSymbolTableRecord
100
AcDbLinetypeTableRecord
  2
CONTINUOUS
 70
     0
  3
Solid line
 72
    65
 73
     0
 40
0.0
  0
ENDTAB
  0
TABLE
  2
LAYER
  5
2
100
AcDbSymbolTable
 70
2
  0
LAYER
  5
50
100
AcDbSymbolTableRecord
100
AcDbLayerTableRecord
  2
0
 70
0
  6
CONTINUOUS
  0
LAYER
  5
51
100
AcDbSymbolTableRecord
100
AcDbLayerTableRecord
  2
Layer_1
 70
0
  6
CONTINUOUS
  0
ENDTAB
  0
TABLE
  2
STYLE
  5
3
330
0
100
AcDbSymbolTable
 70
     1
  0
STYLE
  5
11
330
3
100
AcDbSymbolTableRecord
100
AcDbTextStyleTableRecord
  2
STANDARD
 70
     0
 40
0.0
 41
1.0
 50
0.0
 71
     0
 42
2.5
  3
txt
  4

  0
ENDTAB
  0
TABLE
  2
VIEW
  5
6
330
0
100
AcDbSymbolTable
 70
     0
  0
ENDTAB
  0
TABLE
  2
UCS
  5
7
330
0
100
AcDbSymbolTable
 70
     0
  0
ENDTAB
  0
TABLE
  2
APPID
  5
9
330
0
100
AcDbSymbolTable
 70
     2
  0
APPID
  5
12
330
9
100
AcDbSymbolTableRecord
100
AcDbRegAppTableRecord
  2
ACAD
 70
     0
  0
ENDTAB
  0
TABLE
  2
DIMSTYLE
  5
A
330
0
100
AcDbSymbolTable
 70
     1
  0
DIMSTYLE
105
27
330
A
100
AcDbSymbolTableRecord
100
AcDbDimStyleTableRecord
  2
ISO-25
 70
     0
  3

  4

  5

  6

  7

 40
1.0
 41
2.5
 42
0.625
 43
3.75
 44
1.25
 45
0.0
 46
0.0
 47
0.0
 48
0.0
140
2.5
141
2.5
142
0.0
143
0.03937007874016
144
1.0
145
0.0
146
1.0
147
0.625
 71
     0
 72
     0
 73
     0
 74
     0
 75
     0
 76
     0
 77
     1
 78
     8
170
     0
171
     3
172
     1
173
     0
174
     0
175
     0
176
     0
177
     0
178
     0
270
     2
271
     2
272
     2
273
     2
274
     3
340
11
275
     0
280
     0
281
     0
282
     0
283
     0
284
     8
285
     0
286
     0
287
     3
288
     0
  0
ENDTAB
  0
TABLE
  2
BLOCK_RECORD
  5
1
330
0
100
AcDbSymbolTable
 70
     1
  0
BLOCK_RECORD
  5
1F
330
1
100
AcDbSymbolTableRecord
100
AcDbBlockTableRecord
  2
*MODEL_SPACE
  0
BLOCK_RECORD
  5
1B
330
1
100
AcDbSymbolTableRecord
100
AcDbBlockTableRecord
  2
*PAPER_SPACE
  0
ENDTAB
  0
ENDSEC
  0
SECTION
  2
BLOCKS
  0
BLOCK
  5
20
330
1F
100
AcDbEntity
  8
0
100
AcDbBlockBegin
  2
*MODEL_SPACE
 70
     0
 10
0.0
 20
0.0
 30
0.0
  3
*MODEL_SPACE
  1

  0
ENDBLK
  5
21
330
1F
100
AcDbEntity
  8
0
100
AcDbBlockEnd
  0
BLOCK
  5
1C
330
1B
100
AcDbEntity
 67
     1
  8
0
100
AcDbBlockBegin
  2
*PAPER_SPACE
  1

  0
ENDBLK
  5
1D
330
1B
100
AcDbEntity
 67
     1
  8
0
100
AcDbBlockEnd
  0
ENDSEC
  0
SECTION
  2
ENTITIES
  0
LWPOLYLINE
  5
100
100
AcDbEntity
  8
Layer_1
 62
7
100
AcDbPolyline
 90
229
 70
0
 10
4.270425
 20
10.355130
 30
0.0
 10
4.309936
 20
10.360774
 30
0.0
 10
4.349447
 20
10.366419
 30
0.0
 10
4.885670
 20
10.366419
 30
0.0
 10
5.421892
 20
10.366419
 30
0.0
 10
5.481156
 20
10.372063
 30
0.0
 10
5.546070
 20
10.366419
 30
0.0
 10
5.616623
 20
10.363596
 30
0.0
 10
5.692825
 20
10.355130
 30
0.0
 10
5.850867
 20
10.346663
 30
0.0
 10
5.986336
 20
10.321263
 30
0.0
 10
6.025847
 20
10.315619
 30
0.0
 10
6.065359
 20
10.309974
 30
0.0
 10
6.093581
 20
10.309974
 30
0.0
 10
6.121803
 20
10.309974
 30
0.0
 10
6.150025
 20
10.304330
 30
0.0
 10
6.178247
 20
10.298685
 30
0.0
 10
6.268559
 20
10.287396
 30
0.0
 10
6.358870
 20
10.276108
 30
0.0
 10
6.387092
 20
10.270463
 30
0.0
 10
6.415314
 20
10.264819
 30
0.0
 10
6.539492
 20
10.230952
 30
0.0
 10
6.663670
 20
10.197085
 30
0.0
 10
6.703181
 20
10.191441
 30
0.0
 10
6.742692
 20
10.185796
 30
0.0
 10
6.985403
 20
10.106774
 30
0.0
 10
7.228114
 20
10.027752
 30
0.0
 10
7.259155
 20
10.010819
 30
0.0
 10
7.329714
 20
9.982596
 30
0.0
 10
7.448247
 20
9.926152
 30
0.0
 10
7.566781
 20
9.869708
 30
0.0
 10
7.606292
 20
9.847130
 30
0.0
 10
7.645803
 20
9.824552
 30
0.0
 10
7.657092
 20
9.807619
 30
0.0
 10
7.668381
 20
9.790685
 30
0.0
 10
7.707892
 20
9.768108
 30
0.0
 10
7.747403
 20
9.745530
 30
0.0
 10
7.764336
 20
9.739885
 30
0.0
 10
7.781270
 20
9.734241
 30
0.0
 10
7.950603
 20
9.587485
 30
0.0
 10
8.119936
 20
9.440730
 30
0.0
 10
8.210247
 20
9.322196
 30
0.0
 10
8.300559
 20
9.203663
 30
0.0
 10
8.317492
 20
9.175441
 30
0.0
 10
8.334425
 20
9.147219
 30
0.0
 10
8.407803
 20
9.000463
 30
0.0
 10
8.481181
 20
8.853708
 30
0.0
 10
8.537620
 20
6.776552
 30
0.0
 10
7.284559
 20
5.015485
 30
0.0
 10
7.087003
 20
4.880019
 30
0.0
 10
6.889447
 20
4.744552
 30
0.0
 10
6.878159
 20
4.733263
 30
0.0
 10
6.866870
 20
4.721974
 30
0.0
 10
6.821714
 20
4.693752
 30
0.0
 10
6.776559
 20
4.665530
 30
0.0
 10
6.748336
 20
4.648596
 30
0.0
 10
6.720114
 20
4.631663
 30
0.0
 10
6.533847
 20
4.524419
 30
0.0
 10
6.347581
 20
4.417174
 30
0.0
 10
6.282667
 20
4.380485
 30
0.0
 10
6.223403
 20
4.360730
 30
0.0
 10
6.166956
 20
4.315574
 30
0.0
 10
6.110514
 20
4.292996
 30
0.0
 10
6.087936
 20
4.281708
 30
0.0
 10
6.065359
 20
4.270419
 30
0.0
 10
6.003270
 20
4.242196
 30
0.0
 10
5.941181
 20
4.213974
 30
0.0
 10
5.918603
 20
4.202685
 30
0.0
 10
5.896025
 20
4.191396
 30
0.0
 10
5.853690
 20
4.165996
 30
0.0
 10
5.794425
 20
4.134924
 30
0.0
 10
5.718223
 20
4.106702
 30
0.0
 10
5.625092
 20
4.067162
 30
0.0
 10
5.574292
 20
4.055873
 30
0.0
 10
5.523492
 20
4.044584
 30
0.0
 10
5.450114
 20
4.010718
 30
0.0
 10
5.376736
 20
3.976851
 30
0.0
 10
5.255379
 20
3.940190
 30
0.0
 10
5.094514
 20
3.875251
 30
0.0
 10
5.069111
 20
3.863962
 30
0.0
 10
5.038069
 20
3.852673
 30
0.0
 10
5.001378
 20
3.841384
 30
0.0
 10
4.959046
 20
3.830096
 30
0.0
 10
4.789713
 20
3.784940
 30
0.0
 10
4.620380
 20
3.739784
 30
0.0
 10
4.575224
 20
3.728496
 30
0.0
 10
4.530069
 20
3.717207
 30
0.0
 10
4.484913
 20
3.700273
 30
0.0
 10
4.439757
 20
3.683340
 30
0.0
 10
4.411535
 20
3.677696
 30
0.0
 10
4.383313
 20
3.672051
 30
0.0
 10
4.355091
 20
3.666407
 30
0.0
 10
4.326869
 20
3.660762
 30
0.0
 10
4.273245
 20
3.643829
 30
0.0
 10
4.225269
 20
3.638184
 30
0.0
 10
4.188578
 20
3.626896
 30
0.0
 10
4.146246
 20
3.615607
 30
0.0
 10
4.118024
 20
3.609962
 30
0.0
 10
4.089802
 20
3.604318
 30
0.0
 10
3.965624
 20
3.581740
 30
0.0
 10
3.841446
 20
3.559162
 30
0.0
 10
3.753957
 20
3.542229
 30
0.0
 10
3.672113
 20
3.559162
 30
0.0
 10
3.655180
 20
3.694629
 30
0.0
 10
3.638246
 20
3.830096
 30
0.0
 10
3.621313
 20
3.863962
 30
0.0
 10
3.604380
 20
3.897829
 30
0.0
 10
3.598735
 20
3.937340
 30
0.0
 10
3.593091
 20
3.976851
 30
0.0
 10
3.593091
 20
3.993784
 30
0.0
 10
3.593091
 20
4.010718
 30
0.0
 10
3.564869
 20
4.140540
 30
0.0
 10
3.536646
 20
4.270362
 30
0.0
 10
3.531002
 20
4.304229
 30
0.0
 10
3.525357
 20
4.338096
 30
0.0
 10
3.519713
 20
4.383251
 30
0.0
 10
3.514069
 20
4.428407
 30
0.0
 10
3.508424
 20
4.467918
 30
0.0
 10
3.502780
 20
4.507429
 30
0.0
 10
3.474557
 20
4.566696
 30
0.0
 10
3.457624
 20
4.609029
 30
0.0
 10
3.457623
 20
4.654184
 30
0.0
 10
3.457624
 20
4.699340
 30
0.0
 10
3.564868
 20
4.710629
 30
0.0
 10
3.672113
 20
4.721918
 30
0.0
 10
3.728557
 20
4.727562
 30
0.0
 10
3.785002
 20
4.733207
 30
0.0
 10
3.976913
 20
4.744496
 30
0.0
 10
4.168824
 20
4.755784
 30
0.0
 10
4.191402
 20
4.761429
 30
0.0
 10
4.213979
 20
4.767073
 30
0.0
 10
4.208335
 20
4.964629
 30
0.0
 10
4.202690
 20
5.162184
 30
0.0
 10
4.191402
 20
5.184762
 30
0.0
 10
4.180113
 20
5.207340
 30
0.0
 10
4.180113
 20
5.342807
 30
0.0
 10
4.180113
 20
5.478273
 30
0.0
 10
4.174468
 20
5.512140
 30
0.0
 10
4.168824
 20
5.546007
 30
0.0
 10
4.168824
 20
5.636318
 30
0.0
 10
4.168824
 20
5.726629
 30
0.0
 10
4.171646
 20
5.791540
 30
0.0
 10
4.157535
 20
5.873384
 30
0.0
 10
4.157535
 20
6.037073
 30
0.0
 10
4.157535
 20
6.200762
 30
0.0
 10
4.149068
 20
6.217696
 30
0.0
 10
4.146246
 20
6.245918
 30
0.0
 10
4.134957
 20
6.562007
 30
0.0
 10
4.123668
 20
6.878096
 30
0.0
 10
4.118024
 20
6.900673
 30
0.0
 10
4.112379
 20
6.923251
 30
0.0
 10
4.112379
 20
7.024851
 30
0.0
 10
4.112379
 20
7.126451
 30
0.0
 10
4.106735
 20
7.171607
 30
0.0
 10
4.101090
 20
7.216762
 30
0.0
 10
4.095446
 20
7.510273
 30
0.0
 10
4.089802
 20
7.803784
 30
0.0
 10
4.084157
 20
7.854584
 30
0.0
 10
4.078513
 20
7.905384
 30
0.0
 10
4.078513
 20
8.046496
 30
0.0
 10
4.078513
 20
8.187607
 30
0.0
 10
4.072868
 20
8.238407
 30
0.0
 10
4.067224
 20
8.289207
 30
0.0
 10
4.067224
 20
8.413384
 30
0.0
 10
4.067224
 20
8.537562
 30
0.0
 10
4.061579
 20
8.554496
 30
0.0
 10
4.055935
 20
8.571429
 30
0.0
 10
4.055935
 20
8.706896
 30
0.0
 10
4.055935
 20
8.842362
 30
0.0
 10
3.999489
 20
8.850829
 30
0.0
 10
3.943046
 20
8.853651
 30
0.0
 10
3.895067
 20
8.859296
 30
0.0
 10
3.841446
 20
8.853651
 30
0.0
 10
3.793467
 20
8.862118
 30
0.0
 10
3.739846
 20
8.864940
 30
0.0
 10
3.680579
 20
8.870584
 30
0.0
 10
3.615668
 20
8.864940
 30
0.0
 10
3.598735
 20
8.870584
 30
0.0
 10
3.581802
 20
8.876229
 30
0.0
 10
3.491490
 20
8.876229
 30
0.0
 10
3.401179
 20
8.876229
 30
0.0
 10
3.333446
 20
8.887518
 30
0.0
 10
3.265713
 20
8.898807
 30
0.0
 10
3.192334
 20
8.907273
 30
0.0
 10
3.130246
 20
8.910096
 30
0.0
 10
3.073801
 20
8.910096
 30
0.0
 10
3.017357
 20
8.910096
 30
0.0
 10
2.955268
 20
8.918562
 30
0.0
 10
2.881890
 20
8.921384
 30
0.0
 10
2.808513
 20
8.921384
 30
0.0
 10
2.735135
 20
8.921384
 30
0.0
 10
2.689979
 20
8.927029
 30
0.0
 10
2.644824
 20
8.932673
 30
0.0
 10
2.633535
 20
9.130229
 30
0.0
 10
2.622246
 20
9.327784
 30
0.0
 10
2.608135
 20
9.423740
 30
0.0
 10
2.588379
 20
9.508407
 30
0.0
 10
2.588379
 20
9.576140
 30
0.0
 10
2.588379
 20
9.643873
 30
0.0
 10
2.579913
 20
9.697496
 30
0.0
 10
2.577091
 20
9.745473
 30
0.0
 10
2.574268
 20
9.799096
 30
0.0
 10
2.565802
 20
9.847073
 30
0.0
 10
2.565802
 20
9.903518
 30
0.0
 10
2.565802
 20
9.959962
 30
0.0
 10
2.560157
 20
10.044629
 30
0.0
 10
2.554513
 20
10.129296
 30
0.0
 10
2.633535
 20
10.140584
 30
0.0
 10
2.712557
 20
10.151873
 30
0.0
 10
2.752068
 20
10.157518
 30
0.0
 10
2.791579
 20
10.163162
 30
0.0
 10
2.808513
 20
10.174451
 30
0.0
 10
2.825446
 20
10.185740
 30
0.0
 10
2.943979
 20
10.202673
 30
0.0
 10
3.062513
 20
10.219607
 30
0.0
 10
3.107668
 20
10.225251
 30
0.0
 10
3.197979
 20
10.242184
 30
0.0
 10
3.260068
 20
10.245007
 30
0.0
 10
3.288291
 20
10.253473
 30
0.0
 10
3.316513
 20
10.253473
 30
0.0
 10
3.344735
 20
10.253473
 30
0.0
 10
3.491491
 20
10.270407
 30
0.0
 10
3.638246
 20
10.287340
 30
0.0
 10
3.677757
 20
10.292984
 30
0.0
 10
3.717268
 20
10.298629
 30
0.0
 10
3.762424
 20
10.304273
 30
0.0
 10
3.807579
 20
10.309918
 30
0.0
 10
4.039002
 20
10.332496
 30
0.0
 10
4.270424
 20
10.355073
 30
0.0
  0
LWPOLYLINE
  5
101
100
AcDbEntity
  8
Layer_1
 62
7
100
AcDbPolyline
 90
15
 70
0
 10
6.957179
 20
7.521562
 30
0.0
 10
6.440710
 20
8.193251
 30
0.0
 10
5.591224
 20
8.424673
 30
0.0
 10
5.554533
 20
8.416207
 30
0.0
 10
5.534780
 20
8.390807
 30
0.0
 10
5.534780
 20
6.974051
 30
0.0
 10
5.534780
 20
5.557296
 30
0.0
 10
5.585578
 20
5.562940
 30
0.0
 10
5.647669
 20
5.579873
 30
0.0
 10
5.675891
 20
5.585518
 30
0.0
 10
5.704113
 20
5.591162
 30
0.0
 10
5.754913
 20
5.602451
 30
0.0
 10
5.805713
 20
5.613740
 30
0.0
 10
6.782199
 20
6.322118
 30
0.0
 10
6.957180
 20
7.521562
 30
0.0
  0
LWPOLYLINE
  5
102
100
AcDbEntity
  8
Layer_1
 62
7
100
AcDbPolyline
 90
75
 70
0
 10
10.237132
 20
10.953441
 30
0.0
 10
10.383888
 20
10.947796
 30
0.0
 10
10.530643
 20
10.942152
 30
0.0
 10
11.789354
 20
10.930863
 30
0.0
 10
13.048066
 20
10.919574
 30
0.0
 10
13.048066
 20
10.722019
 30
0.0
 10
13.048066
 20
10.524463
 30
0.0
 10
13.036777
 20
10.451085
 30
0.0
 10
13.025488
 20
10.377708
 30
0.0
 10
13.025488
 20
9.858419
 30
0.0
 10
13.025488
 20
9.339130
 30
0.0
 10
13.033952
 20
9.268574
 30
0.0
 10
13.036777
 20
9.192374
 30
0.0
 10
13.045240
 20
9.110530
 30
0.0
 10
13.048066
 20
9.023041
 30
0.0
 10
13.059354
 20
8.774685
 30
0.0
 10
13.070643
 20
8.526330
 30
0.0
 10
13.087574
 20
8.492491
 30
0.0
 10
13.093221
 20
8.436019
 30
0.0
 10
13.104510
 20
8.249752
 30
0.0
 10
13.115799
 20
8.063485
 30
0.0
 10
13.138374
 20
7.832063
 30
0.0
 10
13.183533
 20
7.657085
 30
0.0
 10
13.194822
 20
7.515974
 30
0.0
 10
13.206111
 20
7.374863
 30
0.0
 10
13.245618
 20
7.213996
 30
0.0
 10
13.273844
 20
7.024908
 30
0.0
 10
13.296422
 20
6.957174
 30
0.0
 10
13.318999
 20
6.889441
 30
0.0
 10
13.330285
 20
6.762441
 30
0.0
 10
13.364155
 20
6.652374
 30
0.0
 10
13.482689
 20
6.240330
 30
0.0
 10
13.601222
 20
5.828285
 30
0.0
 10
13.640729
 20
5.735152
 30
0.0
 10
13.668955
 20
5.613796
 30
0.0
 10
13.832644
 20
5.280774
 30
0.0
 10
13.996333
 20
4.947752
 30
0.0
 10
14.041489
 20
4.880019
 30
0.0
 10
14.086644
 20
4.812285
 30
0.0
 10
14.120511
 20
4.772774
 30
0.0
 10
14.154377
 20
4.733263
 30
0.0
 10
14.176955
 20
4.710685
 30
0.0
 10
14.199533
 20
4.688108
 30
0.0
 10
14.244689
 20
4.620374
 30
0.0
 10
14.289844
 20
4.552641
 30
0.0
 10
14.340644
 20
4.484908
 30
0.0
 10
14.391444
 20
4.417174
 30
0.0
 10
13.657666
 20
4.417174
 30
0.0
 10
12.923889
 20
4.417174
 30
0.0
 10
12.867444
 20
4.592152
 30
0.0
 10
12.811000
 20
4.767130
 30
0.0
 10
12.788422
 20
4.812285
 30
0.0
 10
12.765844
 20
4.857441
 30
0.0
 10
12.698111
 20
5.054996
 30
0.0
 10
12.630377
 20
5.252552
 30
0.0
 10
12.607800
 20
5.331574
 30
0.0
 10
12.585222
 20
5.410596
 30
0.0
 10
12.573933
 20
5.455752
 30
0.0
 10
12.562644
 20
5.500908
 30
0.0
 10
12.523133
 20
5.619441
 30
0.0
 10
12.483622
 20
5.737974
 30
0.0
 10
12.449755
 20
5.839574
 30
0.0
 10
12.415889
 20
5.941174
 30
0.0
 10
12.404600
 20
5.986330
 30
0.0
 10
12.393311
 20
6.031485
 30
0.0
 10
12.257844
 20
6.404019
 30
0.0
 10
12.122377
 20
6.776552
 30
0.0
 10
11.795000
 20
6.776552
 30
0.0
 10
11.467622
 20
6.776552
 30
0.0
 10
11.049931
 20
5.802885
 30
0.0
 10
11.219266
 20
4.733263
 30
0.0
 10
10.028289
 20
4.733263
 30
0.0
 10
8.837311
 20
4.733263
 30
0.0
 10
10.242776
 20
8.472708
 30
0.0
 10
10.237132
 20
10.953441
 30
0.0
  0
LWPOLYLINE
  5
103
100
AcDbEntity
  8
Layer_1
 62
7
100
AcDbPolyline
 90
19
 70
0
 10
11.591799
 20
9.090774
 30
0.0
 10
11.574865
 20
9.135930
 30
0.0
 10
11.557932
 20
9.181085
 30
0.0
 10
11.467621
 20
8.893219
 30
0.0
 10
11.377310
 20
8.605352
 30
0.0
 10
11.351907
 20
8.517863
 30
0.0
 10
11.320864
 20
8.413441
 30
0.0
 10
11.278529
 20
8.294908
 30
0.0
 10
11.219264
 20
8.165085
 30
0.0
 10
11.529709
 20
8.165085
 30
0.0
 10
11.840153
 20
8.165085
 30
0.0
 10
11.874020
 20
8.176374
 30
0.0
 10
11.907886
 20
8.187663
 30
0.0
 10
11.806284
 20
8.410619
 30
0.0
 10
11.727264
 20
8.695663
 30
0.0
 10
11.693395
 20
8.769041
 30
0.0
 10
11.682109
 20
8.831130
 30
0.0
 10
11.636954
 20
8.960952
 30
0.0
 10
11.591798
 20
9.090774
 30
0.0
  0
LWPOLYLINE
  5
104
100
AcDbEntity
  8
Layer_1
 62
7
100
AcDbPolyline
 90
93
 70
0
 10
14.682838
 20
10.095485
 30
0.0
 10
14.654616
 20
10.146285
 30
0.0
 10
14.626393
 20
10.197085
 30
0.0
 10
15.789149
 20
10.197085
 30
0.0
 10
16.951904
 20
10.197085
 30
0.0
 10
16.968835
 20
10.050330
 30
0.0
 10
17.019637
 20
9.903574
 30
0.0
 10
17.028101
 20
9.847130
 30
0.0
 10
17.030926
 20
9.790685
 30
0.0
 10
17.039390
 20
9.745530
 30
0.0
 10
17.042215
 20
9.700374
 30
0.0
 10
17.056323
 20
9.655247
 30
0.0
 10
17.076081
 20
9.564908
 30
0.0
 10
17.081726
 20
9.525396
 30
0.0
 10
17.087370
 20
9.485885
 30
0.0
 10
17.121237
 20
9.350419
 30
0.0
 10
17.155104
 20
9.214952
 30
0.0
 10
17.166392
 20
9.152863
 30
0.0
 10
17.177681
 20
9.090774
 30
0.0
 10
17.335726
 20
8.481174
 30
0.0
 10
17.493770
 20
7.871574
 30
0.0
 10
17.510704
 20
7.820774
 30
0.0
 10
17.527637
 20
7.769974
 30
0.0
 10
17.538926
 20
7.713530
 30
0.0
 10
17.550215
 20
7.657085
 30
0.0
 10
17.603835
 20
7.504685
 30
0.0
 10
17.651815
 20
7.340996
 30
0.0
 10
17.680037
 20
7.267619
 30
0.0
 10
17.708259
 20
7.194241
 30
0.0
 10
17.736481
 20
7.098285
 30
0.0
 10
17.764704
 20
7.002330
 30
0.0
 10
17.775992
 20
6.951530
 30
0.0
 10
17.787281
 20
6.900730
 30
0.0
 10
17.807034
 20
6.878152
 30
0.0
 10
17.821148
 20
6.833025
 30
0.0
 10
17.838079
 20
6.787869
 30
0.0
 10
17.843726
 20
6.742714
 30
0.0
 10
17.866304
 20
6.703202
 30
0.0
 10
17.888881
 20
6.663691
 30
0.0
 10
17.973548
 20
6.940269
 30
0.0
 10
18.058215
 20
7.216847
 30
0.0
 10
18.069504
 20
7.256358
 30
0.0
 10
18.080792
 20
7.295869
 30
0.0
 10
18.103370
 20
7.357958
 30
0.0
 10
18.125948
 20
7.420047
 30
0.0
 10
18.142881
 20
7.487780
 30
0.0
 10
18.159815
 20
7.555514
 30
0.0
 10
18.173923
 20
7.611958
 30
0.0
 10
18.193681
 20
7.668402
 30
0.0
 10
18.216256
 20
7.727669
 30
0.0
 10
18.238837
 20
7.792580
 30
0.0
 10
18.267059
 20
7.899825
 30
0.0
 10
18.295281
 20
8.007069
 30
0.0
 10
18.317859
 20
8.074802
 30
0.0
 10
18.340437
 20
8.142536
 30
0.0
 10
18.351726
 20
8.193336
 30
0.0
 10
18.363015
 20
8.244136
 30
0.0
 10
18.374301
 20
8.297758
 30
0.0
 10
18.385592
 20
8.345736
 30
0.0
 10
18.399701
 20
8.393714
 30
0.0
 10
18.419459
 20
8.447336
 30
0.0
 10
18.430748
 20
8.486847
 30
0.0
 10
18.442037
 20
8.526358
 30
0.0
 10
18.453326
 20
8.571514
 30
0.0
 10
18.464615
 20
8.616669
 30
0.0
 10
18.492837
 20
8.723914
 30
0.0
 10
18.521059
 20
8.831158
 30
0.0
 10
18.552100
 20
9.000491
 30
0.0
 10
18.600081
 20
9.169825
 30
0.0
 10
18.611370
 20
9.226269
 30
0.0
 10
18.622659
 20
9.282714
 30
0.0
 10
18.650881
 20
9.401247
 30
0.0
 10
18.679104
 20
9.519780
 30
0.0
 10
18.693212
 20
9.663714
 30
0.0
 10
18.735549
 20
9.824580
 30
0.0
 10
18.744012
 20
9.881025
 30
0.0
 10
18.746837
 20
9.937469
 30
0.0
 10
18.758124
 20
10.005202
 30
0.0
 10
18.769415
 20
10.072936
 30
0.0
 10
18.769415
 20
10.106802
 30
0.0
 10
18.769415
 20
10.140669
 30
0.0
 10
18.791993
 20
10.168891
 30
0.0
 10
18.814571
 20
10.197114
 30
0.0
 10
19.960393
 20
10.197114
 30
0.0
 10
21.106215
 20
10.197114
 30
0.0
 10
21.092098
 20
10.123736
 30
0.0
 10
21.049770
 20
10.039069
 30
0.0
 10
19.460855
 20
6.658047
 30
0.0
 10
19.051637
 20
3.830180
 30
0.0
 10
17.877592
 20
3.830180
 30
0.0
 10
16.703548
 20
3.830180
 30
0.0
 10
16.328191
 20
7.039047
 30
0.0
 10
14.682837
 20
10.095514
 30
0.0
  0
LWPOLYLINE
  5
105
100
AcDbEntity
  8
Layer_1
 62
7
100
AcDbPolyline
 90
31
 70
0
 10
21.497975
 20
9.869708
 30
0.0
 10
21.475397
 20
9.943085
 30
0.0
 10
21.452820
 20
10.016463
 30
0.0
 10
22.700242
 20
10.016463
 30
0.0
 10
23.947664
 20
10.016463
 30
0.0
 10
23.168729
 20
7.312774
 30
0.0
 10
23.699309
 20
4.372019
 30
0.0
 10
22.570420
 20
4.569574
 30
0.0
 10
21.441531
 20
4.767130
 30
0.0
 10
21.656019
 20
5.746441
 30
0.0
 10
21.712464
 20
6.652374
 30
0.0
 10
21.712464
 20
6.697530
 30
0.0
 10
21.712464
 20
6.742685
 30
0.0
 10
21.720931
 20
6.810419
 30
0.0
 10
21.723753
 20
6.878152
 30
0.0
 10
21.732220
 20
6.957174
 30
0.0
 10
21.735042
 20
7.036196
 30
0.0
 10
21.735042
 20
7.521619
 30
0.0
 10
21.735042
 20
8.007041
 30
0.0
 10
21.706819
 20
8.136863
 30
0.0
 10
21.712464
 20
8.323130
 30
0.0
 10
21.701175
 20
8.447308
 30
0.0
 10
21.689886
 20
8.571485
 30
0.0
 10
21.684242
 20
8.599708
 30
0.0
 10
21.678597
 20
8.627930
 30
0.0
 10
21.599575
 20
9.175441
 30
0.0
 10
21.520553
 20
9.722952
 30
0.0
 10
21.509264
 20
9.773752
 30
0.0
 10
21.497975
 20
9.824552
 30
0.0
 10
21.497975
 20
9.847130
 30
0.0
 10
21.497975
 20
9.869708
 30
0.0
  0
LWPOLYLINE
  5
106
100
AcDbEntity
  8
Layer_1
 62
7
100
AcDbPolyline
 90
231
 70
0
 10
26.203854
 20
10.908285
 30
0.0
 10
26.243366
 20
10.913930
 30
0.0
 10
26.282877
 20
10.919574
 30
0.0
 10
26.819099
 20
10.919574
 30
0.0
 10
27.355321
 20
10.919574
 30
0.0
 10
27.411763
 20
10.925219
 30
0.0
 10
27.468210
 20
10.919574
 30
0.0
 10
27.541585
 20
10.916752
 30
0.0
 10
27.626254
 20
10.908285
 30
0.0
 10
27.710919
 20
10.905463
 30
0.0
 10
27.784299
 20
10.896996
 30
0.0
 10
27.849207
 20
10.894174
 30
0.0
 10
27.908477
 20
10.885708
 30
0.0
 10
27.953632
 20
10.874419
 30
0.0
 10
27.998788
 20
10.863130
 30
0.0
 10
28.027010
 20
10.863130
 30
0.0
 10
28.055232
 20
10.863130
 30
0.0
 10
28.077810
 20
10.857485
 30
0.0
 10
28.100388
 20
10.851841
 30
0.0
 10
28.196343
 20
10.840552
 30
0.0
 10
28.292298
 20
10.829263
 30
0.0
 10
28.314876
 20
10.823619
 30
0.0
 10
28.337454
 20
10.817974
 30
0.0
 10
28.467276
 20
10.784108
 30
0.0
 10
28.597098
 20
10.750241
 30
0.0
 10
28.636609
 20
10.744596
 30
0.0
 10
28.676120
 20
10.738952
 30
0.0
 10
28.918831
 20
10.648641
 30
0.0
 10
29.161542
 20
10.558330
 30
0.0
 10
29.184120
 20
10.538574
 30
0.0
 10
29.251856
 20
10.501885
 30
0.0
 10
29.376034
 20
10.445441
 30
0.0
 10
29.500212
 20
10.388996
 30
0.0
 10
29.534079
 20
10.360774
 30
0.0
 10
29.567945
 20
10.332552
 30
0.0
 10
29.584879
 20
10.321263
 30
0.0
 10
29.601812
 20
10.309974
 30
0.0
 10
29.641323
 20
10.281752
 30
0.0
 10
29.680834
 20
10.253530
 30
0.0
 10
29.692123
 20
10.247885
 30
0.0
 10
29.703412
 20
10.242241
 30
0.0
 10
29.878390
 20
10.078552
 30
0.0
 10
30.053367
 20
9.914863
 30
0.0
 10
30.138034
 20
9.790685
 30
0.0
 10
30.222701
 20
9.666508
 30
0.0
 10
30.245279
 20
9.638285
 30
0.0
 10
30.267856
 20
9.610063
 30
0.0
 10
30.335590
 20
9.452019
 30
0.0
 10
30.403323
 20
9.293974
 30
0.0
 10
30.465406
 20
7.053130
 30
0.0
 10
29.206701
 20
5.139663
 30
0.0
 10
29.014790
 20
4.987263
 30
0.0
 10
28.822879
 20
4.834863
 30
0.0
 10
28.811590
 20
4.823574
 30
0.0
 10
28.800301
 20
4.812285
 30
0.0
 10
28.749501
 20
4.784063
 30
0.0
 10
28.698701
 20
4.755841
 30
0.0
 10
28.670479
 20
4.738908
 30
0.0
 10
28.642256
 20
4.721974
 30
0.0
 10
28.461634
 20
4.609085
 30
0.0
 10
28.281012
 20
4.496196
 30
0.0
 10
28.221744
 20
4.451041
 30
0.0
 10
28.156835
 20
4.428463
 30
0.0
 10
28.097566
 20
4.383308
 30
0.0
 10
28.032657
 20
4.360730
 30
0.0
 10
28.015724
 20
4.343796
 30
0.0
 10
27.998791
 20
4.326863
 30
0.0
 10
27.931057
 20
4.292996
 30
0.0
 10
27.863324
 20
4.259130
 30
0.0
 10
27.840746
 20
4.253485
 30
0.0
 10
27.818168
 20
4.247841
 30
0.0
 10
27.775832
 20
4.222441
 30
0.0
 10
27.716568
 20
4.191368
 30
0.0
 10
27.643188
 20
4.160380
 30
0.0
 10
27.558524
 20
4.112346
 30
0.0
 10
27.502079
 20
4.095413
 30
0.0
 10
27.445635
 20
4.078479
 30
0.0
 10
27.372257
 20
4.044613
 30
0.0
 10
27.298879
 20
4.010746
 30
0.0
 10
27.183166
 20
3.971291
 30
0.0
 10
27.016657
 20
3.897857
 30
0.0
 10
26.954566
 20
3.878102
 30
0.0
 10
26.881191
 20
3.863990
 30
0.0
 10
26.717502
 20
3.807546
 30
0.0
 10
26.553813
 20
3.751102
 30
0.0
 10
26.503013
 20
3.739813
 30
0.0
 10
26.452213
 20
3.728524
 30
0.0
 10
26.407057
 20
3.711590
 30
0.0
 10
26.361902
 20
3.694657
 30
0.0
 10
26.333679
 20
3.689013
 30
0.0
 10
26.305457
 20
3.683368
 30
0.0
 10
26.277235
 20
3.677724
 30
0.0
 10
26.249013
 20
3.672079
 30
0.0
 10
26.195389
 20
3.652324
 30
0.0
 10
26.147413
 20
3.638213
 30
0.0
 10
26.110722
 20
3.626924
 30
0.0
 10
26.068391
 20
3.615635
 30
0.0
 10
26.040168
 20
3.609990
 30
0.0
 10
26.011946
 20
3.604346
 30
0.0
 10
25.893413
 20
3.581768
 30
0.0
 10
25.774879
 20
3.559190
 30
0.0
 10
25.687389
 20
3.542257
 30
0.0
 10
25.605546
 20
3.559190
 30
0.0
 10
25.582968
 20
3.694657
 30
0.0
 10
25.560391
 20
3.830124
 30
0.0
 10
25.549102
 20
3.880924
 30
0.0
 10
25.537813
 20
3.931724
 30
0.0
 10
25.526524
 20
3.971235
 30
0.0
 10
25.515235
 20
4.010746
 30
0.0
 10
25.515235
 20
4.033324
 30
0.0
 10
25.515235
 20
4.055902
 30
0.0
 10
25.492657
 20
4.191368
 30
0.0
 10
25.470079
 20
4.326835
 30
0.0
 10
25.464435
 20
4.366346
 30
0.0
 10
25.458791
 20
4.405857
 30
0.0
 10
25.453146
 20
4.456657
 30
0.0
 10
25.447502
 20
4.507457
 30
0.0
 10
25.436213
 20
4.546968
 30
0.0
 10
25.424924
 20
4.586479
 30
0.0
 10
25.405168
 20
4.654213
 30
0.0
 10
25.391060
 20
4.699368
 30
0.0
 10
25.391059
 20
4.744524
 30
0.0
 10
25.391060
 20
4.789679
 30
0.0
 10
25.498304
 20
4.800968
 30
0.0
 10
25.605549
 20
4.812257
 30
0.0
 10
25.656349
 20
4.817902
 30
0.0
 10
25.707149
 20
4.823546
 30
0.0
 10
25.904704
 20
4.834835
 30
0.0
 10
26.102260
 20
4.846124
 30
0.0
 10
26.119193
 20
4.857413
 30
0.0
 10
26.136127
 20
4.868702
 30
0.0
 10
26.130482
 20
5.077546
 30
0.0
 10
26.124838
 20
5.286390
 30
0.0
 10
26.119193
 20
5.314613
 30
0.0
 10
26.113549
 20
5.342835
 30
0.0
 10
26.113549
 20
5.489590
 30
0.0
 10
26.113549
 20
5.636346
 30
0.0
 10
26.107904
 20
5.670213
 30
0.0
 10
26.102260
 20
5.704079
 30
0.0
 10
26.102260
 20
5.805679
 30
0.0
 10
26.102260
 20
5.907279
 30
0.0
 10
26.102259
 20
5.980657
 30
0.0
 10
26.079684
 20
6.065324
 30
0.0
 10
26.079684
 20
6.240302
 30
0.0
 10
26.079684
 20
6.415279
 30
0.0
 10
26.071214
 20
6.435035
 30
0.0
 10
26.068392
 20
6.471724
 30
0.0
 10
26.062748
 20
6.810390
 30
0.0
 10
26.057103
 20
7.149057
 30
0.0
 10
26.051459
 20
7.177279
 30
0.0
 10
26.045814
 20
7.205502
 30
0.0
 10
26.045814
 20
7.312746
 30
0.0
 10
26.045814
 20
7.419990
 30
0.0
 10
26.034525
 20
7.470790
 30
0.0
 10
26.023236
 20
7.521590
 30
0.0
 10
26.017592
 20
7.837679
 30
0.0
 10
26.011948
 20
8.153768
 30
0.0
 10
26.006303
 20
8.210213
 30
0.0
 10
26.000659
 20
8.266657
 30
0.0
 10
26.000659
 20
8.413413
 30
0.0
 10
26.000659
 20
8.560168
 30
0.0
 10
25.995014
 20
8.616613
 30
0.0
 10
25.989370
 20
8.673057
 30
0.0
 10
25.989370
 20
8.808524
 30
0.0
 10
25.989370
 20
8.943990
 30
0.0
 10
25.983725
 20
8.960924
 30
0.0
 10
25.978081
 20
8.977857
 30
0.0
 10
25.978081
 20
9.124613
 30
0.0
 10
25.978081
 20
9.271368
 30
0.0
 10
25.882124
 20
9.293946
 30
0.0
 10
25.774881
 20
9.293946
 30
0.0
 10
25.726902
 20
9.302413
 30
0.0
 10
25.673281
 20
9.305235
 30
0.0
 10
25.614013
 20
9.310879
 30
0.0
 10
25.549103
 20
9.305235
 30
0.0
 10
25.526525
 20
9.310879
 30
0.0
 10
25.503948
 20
9.316524
 30
0.0
 10
25.419281
 20
9.316524
 30
0.0
 10
25.334614
 20
9.316524
 30
0.0
 10
25.261236
 20
9.322168
 30
0.0
 10
25.187859
 20
9.327813
 30
0.0
 10
25.114480
 20
9.336279
 30
0.0
 10
25.052392
 20
9.339102
 30
0.0
 10
24.998769
 20
9.347568
 30
0.0
 10
24.950792
 20
9.350390
 30
0.0
 10
24.899991
 20
9.358857
 30
0.0
 10
24.860481
 20
9.361679
 30
0.0
 10
24.829436
 20
9.361679
 30
0.0
 10
24.804036
 20
9.361679
 30
0.0
 10
24.736303
 20
9.361679
 30
0.0
 10
24.668569
 20
9.361679
 30
0.0
 10
24.617769
 20
9.367324
 30
0.0
 10
24.566969
 20
9.372968
 30
0.0
 10
24.555681
 20
9.587457
 30
0.0
 10
24.544392
 20
9.801946
 30
0.0
 10
24.535925
 20
9.855568
 30
0.0
 10
24.533103
 20
9.903546
 30
0.0
 10
24.530281
 20
9.948702
 30
0.0
 10
24.521814
 20
9.993857
 30
0.0
 10
24.521814
 20
10.072879
 30
0.0
 10
24.521814
 20
10.151902
 30
0.0
 10
24.510525
 20
10.208346
 30
0.0
 10
24.499236
 20
10.264790
 30
0.0
 10
24.496414
 20
10.318413
 30
0.0
 10
24.487947
 20
10.366390
 30
0.0
 10
24.487947
 20
10.428479
 30
0.0
 10
24.487947
 20
10.490568
 30
0.0
 10
24.482303
 20
10.575235
 30
0.0
 10
24.476658
 20
10.659902
 30
0.0
 10
24.555681
 20
10.676835
 30
0.0
 10
24.634703
 20
10.693768
 30
0.0
 10
24.674214
 20
10.699413
 30
0.0
 10
24.713725
 20
10.705057
 30
0.0
 10
24.736303
 20
10.710702
 30
0.0
 10
24.758881
 20
10.716346
 30
0.0
 10
24.871769
 20
10.738924
 30
0.0
 10
24.984658
 20
10.761502
 30
0.0
 10
25.041102
 20
10.769968
 30
0.0
 10
25.120125
 20
10.795368
 30
0.0
 10
25.182213
 20
10.798190
 30
0.0
 10
25.210436
 20
10.806657
 30
0.0
 10
25.238658
 20
10.806657
 30
0.0
 10
25.266881
 20
10.806657
 30
0.0
 10
25.413636
 20
10.823590
 30
0.0
 10
25.560392
 20
10.840524
 30
0.0
 10
25.599903
 20
10.846168
 30
0.0
 10
25.639414
 20
10.851813
 30
0.0
 10
25.690214
 20
10.857457
 30
0.0
 10
25.741014
 20
10.863102
 30
0.0
 10
25.972436
 20
10.885679
 30
0.0
 10
26.203858
 20
10.908257
 30
0.0
  0
LWPOLYLINE
  5
107
100
AcDbEntity
  8
Layer_1
 62
7
100
AcDbPolyline
 90
15
 70
0
 10
28.879324
 20
7.837679
 30
0.0
 10
28.368499
 20
8.577102
 30
0.0
 10
27.513369
 20
8.831102
 30
0.0
 10
27.482323
 20
8.816990
 30
0.0
 10
27.456926
 20
8.774685
 30
0.0
 10
27.456926
 20
7.250685
 30
0.0
 10
27.456926
 20
5.726685
 30
0.0
 10
27.504901
 20
5.732330
 30
0.0
 10
27.581103
 20
5.749263
 30
0.0
 10
27.603681
 20
5.754908
 30
0.0
 10
27.626259
 20
5.760552
 30
0.0
 10
27.682703
 20
5.771841
 30
0.0
 10
27.739148
 20
5.783130
 30
0.0
 10
28.707166
 20
6.539485
 30
0.0
 10
28.879325
 20
7.837708
 30
0.0
  0
ENDSEC
  0
SECTION
  2
OBJECTS
  0
DICTIONARY
  5
C
330
0
100
AcDbDictionary
  3
ACAD_GROUP
350
D
  3
ACAD_MLINESTYLE
350
17
  0
DICTIONARY
  5
D
330
C
100
AcDbDictionary
  0
DICTIONARY
  5
1A
330
C
100
AcDbDictionary
  0
DICTIONARY
  5
17
330
C
100
AcDbDictionary
  3
STANDARD
350
18
  0
DICTIONARY
  5
19
330
C
100
AcDbDictionary
  0
ENDSEC
  0
EOF
