999
DXF created by Inkscape
  0
SECTION
  2
HEADER
  9
$ACADVER
  1
AC1014
  9
$HANDSEED
  5
FFFF
  9
$MEASUREMENT
 70
     1
  0
ENDSEC
  0
SECTION
  2
TABLES
  0
TABLE
  2
VPORT
  5
8
330
0
100
AcDbSymbolTable
 70
     4
  0
VPORT
  5
2E
330
8
100
AcDbSymbolTableRecord
100
AcDbViewportTableRecord
  2
*ACTIVE
 70
     0
 10
0.0
 20
0.0
 11
1.0
 21
1.0
 12
210.0
 22
148.5
 13
0.0
 23
0.0
 14
10.0
 24
10.0
 15
10.0
 25
10.0
 16
0.0
 26
0.0
 36
1.0
 17
0.0
 27
0.0
 37
0.0
 40
341.0
 41
1.24
 42
50.0
 43
0.0
 44
0.0
 50
0.0
 51
0.0
 71
     0
 72
   100
 73
     1
 74
     3
 75
     0
 76
     0
 77
     0
 78
     0
  0
ENDTAB
  0
TABLE
  2
LTYPE
  5
5
330
0
100
AcDbSymbolTable
 70
     1
  0
LTYPE
  5
14
330
5
100
AcDbSymbolTableRecord
100
AcDbLinetypeTableRecord
  2
BYBLOCK
 70
     0
  3

 72
    65
 73
     0
 40
0.0
  0
LTYPE
  5
15
330
5
100
AcDbSymbolTableRecord
100
AcDbLinetypeTableRecord
  2
BYLAYER
 70
     0
  3

 72
    65
 73
     0
 40
0.0
  0
LTYPE
  5
16
330
5
100
AcDbSymbolTableRecord
100
AcDbLinetypeTableRecord
  2
CONTINUOUS
 70
     0
  3
Solid line
 72
    65
 73
     0
 40
0.0
  0
ENDTAB
  0
TABLE
  2
LAYER
  5
2
100
AcDbSymbolTable
 70
2
  0
LAYER
  5
50
100
AcDbSymbolTableRecord
100
AcDbLayerTableRecord
  2
0
 70
0
  6
CONTINUOUS
  0
LAYER
  5
51
100
AcDbSymbolTableRecord
100
AcDbLayerTableRecord
  2
Layer_1
 70
0
  6
CONTINUOUS
  0
ENDTAB
  0
TABLE
  2
STYLE
  5
3
330
0
100
AcDbSymbolTable
 70
     1
  0
STYLE
  5
11
330
3
100
AcDbSymbolTableRecord
100
AcDbTextStyleTableRecord
  2
STANDARD
 70
     0
 40
0.0
 41
1.0
 50
0.0
 71
     0
 42
2.5
  3
txt
  4

  0
ENDTAB
  0
TABLE
  2
VIEW
  5
6
330
0
100
AcDbSymbolTable
 70
     0
  0
ENDTAB
  0
TABLE
  2
UCS
  5
7
330
0
100
AcDbSymbolTable
 70
     0
  0
ENDTAB
  0
TABLE
  2
APPID
  5
9
330
0
100
AcDbSymbolTable
 70
     2
  0
APPID
  5
12
330
9
100
AcDbSymbolTableRecord
100
AcDbRegAppTableRecord
  2
ACAD
 70
     0
  0
ENDTAB
  0
TABLE
  2
DIMSTYLE
  5
A
330
0
100
AcDbSymbolTable
 70
     1
  0
DIMSTYLE
105
27
330
A
100
AcDbSymbolTableRecord
100
AcDbDimStyleTableRecord
  2
ISO-25
 70
     0
  3

  4

  5

  6

  7

 40
1.0
 41
2.5
 42
0.625
 43
3.75
 44
1.25
 45
0.0
 46
0.0
 47
0.0
 48
0.0
140
2.5
141
2.5
142
0.0
143
0.03937007874016
144
1.0
145
0.0
146
1.0
147
0.625
 71
     0
 72
     0
 73
     0
 74
     0
 75
     0
 76
     0
 77
     1
 78
     8
170
     0
171
     3
172
     1
173
     0
174
     0
175
     0
176
     0
177
     0
178
     0
270
     2
271
     2
272
     2
273
     2
274
     3
340
11
275
     0
280
     0
281
     0
282
     0
283
     0
284
     8
285
     0
286
     0
287
     3
288
     0
  0
ENDTAB
  0
TABLE
  2
BLOCK_RECORD
  5
1
330
0
100
AcDbSymbolTable
 70
     1
  0
BLOCK_RECORD
  5
1F
330
1
100
AcDbSymbolTableRecord
100
AcDbBlockTableRecord
  2
*MODEL_SPACE
  0
BLOCK_RECORD
  5
1B
330
1
100
AcDbSymbolTableRecord
100
AcDbBlockTableRecord
  2
*PAPER_SPACE
  0
ENDTAB
  0
ENDSEC
  0
SECTION
  2
BLOCKS
  0
BLOCK
  5
20
330
1F
100
AcDbEntity
  8
0
100
AcDbBlockBegin
  2
*MODEL_SPACE
 70
     0
 10
0.0
 20
0.0
 30
0.0
  3
*MODEL_SPACE
  1

  0
ENDBLK
  5
21
330
1F
100
AcDbEntity
  8
0
100
AcDbBlockEnd
  0
BLOCK
  5
1C
330
1B
100
AcDbEntity
 67
     1
  8
0
100
AcDbBlockBegin
  2
*PAPER_SPACE
  1

  0
ENDBLK
  5
1D
330
1B
100
AcDbEntity
 67
     1
  8
0
100
AcDbBlockEnd
  0
ENDSEC
  0
SECTION
  2
ENTITIES
  0
LWPOLYLINE
  5
100
100
AcDbEntity
  8
Layer_1
 62
7
100
AcDbPolyline
 90
25
 70
0
 10
8.590139
 20
23.076875
 30
0.0
 10
8.343691
 20
23.071626
 30
0.0
 10
8.099032
 20
23.063074
 30
0.0
 10
7.855186
 20
23.052604
 30
0.0
 10
7.611181
 20
23.041625
 30
0.0
 10
7.400749
 20
23.023535
 30
0.0
 10
7.191372
 20
22.992493
 30
0.0
 10
6.982437
 20
22.957354
 30
0.0
 10
6.773333
 20
22.926944
 30
0.0
 10
7.035901
 20
22.111842
 30
0.0
 10
7.102412
 20
21.262855
 30
0.0
 10
7.055095
 20
20.401451
 30
0.0
 10
6.976181
 20
19.549097
 30
0.0
 10
7.588365
 20
19.325450
 30
0.0
 10
8.232493
 20
19.211946
 30
0.0
 10
8.890080
 20
19.181029
 30
0.0
 10
9.542639
 20
19.205130
 30
0.0
 10
9.702560
 20
20.150454
 30
0.0
 10
10.183053
 20
20.992083
 30
0.0
 10
10.823999
 20
21.767059
 30
0.0
 10
11.465278
 20
22.512422
 30
0.0
 10
10.779385
 20
22.809086
 30
0.0
 10
10.065017
 20
22.983101
 30
0.0
 10
9.331995
 20
23.062888
 30
0.0
 10
8.590139
 20
23.076875
 30
0.0
  0
LWPOLYLINE
  5
101
100
AcDbEntity
  8
Layer_1
 62
7
100
AcDbPolyline
 90
129
 70
0
 10
6.314722
 20
19.399167
 30
0.0
 10
6.120591
 20
19.393296
 30
0.0
 10
5.929626
 20
19.370719
 30
0.0
 10
5.741590
 20
19.329297
 30
0.0
 10
5.556250
 20
19.266869
 30
0.0
 10
5.558451
 20
19.176471
 30
0.0
 10
5.560653
 20
19.086072
 30
0.0
 10
5.562854
 20
18.995671
 30
0.0
 10
5.565055
 20
18.905272
 30
0.0
 10
5.578283
 20
18.832512
 30
0.0
 10
5.591511
 20
18.759753
 30
0.0
 10
5.604739
 20
18.686990
 30
0.0
 10
5.617966
 20
18.614230
 30
0.0
 10
6.465272
 20
18.282684
 30
0.0
 10
7.344673
 20
18.059734
 30
0.0
 10
8.244870
 20
17.937645
 30
0.0
 10
9.154564
 20
17.908675
 30
0.0
 10
9.161086
 20
17.906135
 30
0.0
 10
9.167777
 20
17.904159
 30
0.0
 10
9.174477
 20
17.902184
 30
0.0
 10
9.181025
 20
17.899644
 30
0.0
 10
8.823837
 20
17.899644
 30
0.0
 10
8.466650
 20
17.899644
 30
0.0
 10
8.109462
 20
17.899644
 30
0.0
 10
7.752275
 20
17.899644
 30
0.0
 10
7.260853
 20
17.880707
 30
0.0
 10
6.695732
 20
17.923286
 30
0.0
 10
6.206886
 20
17.903332
 30
0.0
 10
5.944289
 20
17.696799
 30
0.0
 10
6.083143
 20
17.043082
 30
0.0
 10
6.186911
 20
16.382739
 30
0.0
 10
6.272996
 20
15.720171
 30
0.0
 10
6.358803
 20
15.059786
 30
0.0
 10
6.256780
 20
14.236233
 30
0.0
 10
5.512399
 20
13.796192
 30
0.0
 10
4.617957
 20
13.370601
 30
0.0
 10
4.065747
 20
12.590341
 30
0.0
 10
3.687273
 20
11.181826
 30
0.0
 10
4.404621
 20
10.090417
 30
0.0
 10
5.446421
 20
9.880782
 30
0.0
 10
6.041303
 20
11.117480
 30
0.0
 10
5.697887
 20
11.564040
 30
0.0
 10
5.855796
 20
11.995755
 30
0.0
 10
6.214497
 20
12.173527
 30
0.0
 10
6.473455
 20
11.858313
 30
0.0
 10
6.420235
 20
10.305018
 30
0.0
 10
6.275778
 20
8.760049
 30
0.0
 10
6.040541
 20
7.227442
 30
0.0
 10
5.714983
 20
5.711174
 30
0.0
 10
6.898993
 20
5.711174
 30
0.0
 10
8.083004
 20
5.711174
 30
0.0
 10
9.267014
 20
5.711174
 30
0.0
 10
10.451025
 20
5.711174
 30
0.0
 10
9.963100
 20
7.221402
 30
0.0
 10
9.600759
 20
8.761573
 30
0.0
 10
9.390149
 20
10.326552
 30
0.0
 10
9.357414
 20
11.911258
 30
0.0
 10
9.937263
 20
11.688161
 30
0.0
 10
10.457561
 20
11.376362
 30
0.0
 10
10.921674
 20
10.983650
 30
0.0
 10
11.332969
 20
10.517758
 30
0.0
 10
11.935590
 20
9.753302
 30
0.0
 10
12.418736
 20
8.955799
 30
0.0
 10
12.702957
 20
8.083788
 30
0.0
 10
12.708802
 20
7.095813
 30
0.0
 10
12.914812
 20
5.434004
 30
0.0
 10
13.254384
 20
3.746569
 30
0.0
 10
13.925297
 20
2.225617
 30
0.0
 10
15.125329
 20
1.063313
 30
0.0
 10
16.927006
 20
0.555962
 30
0.0
 10
18.829186
 20
0.874902
 30
0.0
 10
20.374334
 20
1.934082
 30
0.0
 10
21.104913
 20
3.647424
 30
0.0
 10
20.833529
 20
5.173936
 30
0.0
 10
19.669928
 20
6.133210
 30
0.0
 10
18.183124
 20
6.277340
 30
0.0
 10
16.942135
 20
5.358397
 30
0.0
 10
16.875080
 20
4.405897
 30
0.0
 10
17.759550
 20
3.959111
 30
0.0
 10
18.471234
 20
3.645336
 30
0.0
 10
17.885816
 20
3.091814
 30
0.0
 10
16.590163
 20
3.123846
 30
0.0
 10
15.885073
 20
4.295886
 30
0.0
 10
15.761431
 20
5.745606
 30
0.0
 10
16.210121
 20
6.610758
 30
0.0
 10
17.655001
 20
6.613580
 30
0.0
 10
18.791407
 20
7.487340
 30
0.0
 10
19.344931
 20
8.820586
 30
0.0
 10
19.041163
 20
10.201048
 30
0.0
 10
17.973643
 20
10.743056
 30
0.0
 10
17.066656
 20
10.219364
 30
0.0
 10
16.245135
 20
9.413112
 30
0.0
 10
15.434010
 20
9.107437
 30
0.0
 10
15.372563
 20
10.289412
 30
0.0
 10
15.372298
 20
11.476777
 30
0.0
 10
15.418324
 20
12.663465
 30
0.0
 10
15.495746
 20
13.843492
 30
0.0
 10
15.659136
 20
14.948237
 30
0.0
 10
16.016126
 20
15.996724
 30
0.0
 10
16.569333
 20
16.954165
 30
0.0
 10
17.321371
 20
17.785784
 30
0.0
 10
15.954357
 20
17.785784
 30
0.0
 10
14.587343
 20
17.785784
 30
0.0
 10
13.220329
 20
17.785784
 30
0.0
 10
11.853316
 20
17.785784
 30
0.0
 10
12.267236
 20
16.484988
 30
0.0
 10
12.458588
 20
15.138472
 30
0.0
 10
12.510464
 20
13.768450
 30
0.0
 10
12.505954
 20
12.397104
 30
0.0
 10
12.073450
 20
12.497744
 30
0.0
 10
11.312475
 20
13.081267
 30
0.0
 10
10.400791
 20
13.735034
 30
0.0
 10
9.516163
 20
14.046326
 30
0.0
 10
9.733764
 20
15.052515
 30
0.0
 10
10.045569
 20
16.036918
 30
0.0
 10
10.449859
 20
16.989553
 30
0.0
 10
10.944913
 20
17.900437
 30
0.0
 10
10.750885
 20
17.900437
 30
0.0
 10
10.556857
 20
17.900437
 30
0.0
 10
10.362829
 20
17.900437
 30
0.0
 10
10.168802
 20
17.900437
 30
0.0
 10
10.566635
 20
18.167721
 30
0.0
 10
10.727277
 20
18.499465
 30
0.0
 10
10.544739
 20
18.798482
 30
0.0
 10
9.913038
 20
18.967590
 30
0.0
 10
9.001183
 20
18.897946
 30
0.0
 10
8.085912
 20
19.059202
 30
0.0
 10
7.184621
 20
19.282688
 30
0.0
 10
6.314722
 20
19.399167
 30
0.0
  0
LWPOLYLINE
  5
102
100
AcDbEntity
  8
Layer_1
 62
7
100
AcDbPolyline
 90
53
 70
0
 10
26.423056
 20
17.432431
 30
0.0
 10
25.824987
 20
17.391429
 30
0.0
 10
25.152835
 20
17.301516
 30
0.0
 10
24.502842
 20
17.239577
 30
0.0
 10
23.971250
 20
17.282500
 30
0.0
 10
22.956827
 20
17.260120
 30
0.0
 10
21.834919
 20
17.362518
 30
0.0
 10
20.811037
 20
17.398440
 30
0.0
 10
20.090694
 20
17.176653
 30
0.0
 10
20.308457
 20
14.747255
 30
0.0
 10
20.328472
 20
12.307049
 30
0.0
 10
20.145814
 20
9.874068
 30
0.0
 10
19.755556
 20
7.466458
 30
0.0
 10
19.488682
 20
6.499847
 30
0.0
 10
19.943818
 20
6.199309
 30
0.0
 10
20.809736
 20
6.258942
 30
0.0
 10
21.775209
 20
6.372847
 30
0.0
 10
23.104321
 20
6.431070
 30
0.0
 10
24.443271
 20
6.464541
 30
0.0
 10
25.768901
 20
6.372819
 30
0.0
 10
27.058056
 20
6.055347
 30
0.0
 10
27.362510
 20
6.114416
 30
0.0
 10
27.244676
 20
6.539415
 30
0.0
 10
26.969591
 20
7.097199
 30
0.0
 10
26.802292
 20
7.554625
 30
0.0
 10
26.453668
 20
8.488978
 30
0.0
 10
25.674170
 20
8.330228
 30
0.0
 10
24.676007
 20
8.010752
 30
0.0
 10
23.671389
 20
8.463041
 30
0.0
 10
22.825803
 20
9.641460
 30
0.0
 10
22.745629
 20
10.978770
 30
0.0
 10
23.432605
 20
11.955626
 30
0.0
 10
24.888473
 20
12.052569
 30
0.0
 10
24.127040
 20
11.510562
 30
0.0
 10
24.273311
 20
10.713256
 30
0.0
 10
24.954263
 20
10.276912
 30
0.0
 10
25.796876
 20
10.817847
 30
0.0
 10
26.082845
 20
12.178469
 30
0.0
 10
25.393034
 20
13.326633
 30
0.0
 10
24.168721
 20
13.853204
 30
0.0
 10
22.851181
 20
13.349014
 30
0.0
 10
22.624948
 20
13.614387
 30
0.0
 10
22.931143
 20
14.426143
 30
0.0
 10
23.523677
 20
15.307864
 30
0.0
 10
24.156459
 20
15.783180
 30
0.0
 10
25.087186
 20
15.934703
 30
0.0
 10
25.873243
 20
15.661201
 30
0.0
 10
26.446932
 20
15.607438
 30
0.0
 10
26.740556
 20
16.418180
 30
0.0
 10
26.978722
 20
16.910540
 30
0.0
 10
26.974740
 20
17.219728
 30
0.0
 10
26.774291
 20
17.381704
 30
0.0
 10
26.423056
 20
17.432431
 30
0.0
  0
LWPOLYLINE
  5
103
100
AcDbEntity
  8
Layer_1
 62
7
100
AcDbPolyline
 90
53
 70
0
 10
42.739028
 20
17.432431
 30
0.0
 10
42.139579
 20
17.391429
 30
0.0
 10
41.464397
 20
17.301516
 30
0.0
 10
40.811371
 20
17.239577
 30
0.0
 10
40.278403
 20
17.282500
 30
0.0
 10
39.263980
 20
17.260120
 30
0.0
 10
38.142071
 20
17.362518
 30
0.0
 10
37.118188
 20
17.398440
 30
0.0
 10
36.397847
 20
17.176653
 30
0.0
 10
36.615610
 20
14.747255
 30
0.0
 10
36.635619
 20
12.307049
 30
0.0
 10
36.452962
 20
9.874068
 30
0.0
 10
36.062706
 20
7.466458
 30
0.0
 10
35.795831
 20
6.499847
 30
0.0
 10
36.250967
 20
6.199309
 30
0.0
 10
37.116885
 20
6.258942
 30
0.0
 10
38.082358
 20
6.372847
 30
0.0
 10
39.412850
 20
6.431070
 30
0.0
 10
40.754831
 20
6.464541
 30
0.0
 10
42.083490
 20
6.372819
 30
0.0
 10
43.374025
 20
6.055347
 30
0.0
 10
43.678481
 20
6.114416
 30
0.0
 10
43.560644
 20
6.539415
 30
0.0
 10
43.285560
 20
7.097199
 30
0.0
 10
43.118261
 20
7.554625
 30
0.0
 10
42.769638
 20
8.488978
 30
0.0
 10
41.990140
 20
8.330228
 30
0.0
 10
40.991976
 20
8.010752
 30
0.0
 10
39.987358
 20
8.463041
 30
0.0
 10
39.140395
 20
9.641460
 30
0.0
 10
39.057188
 20
10.978770
 30
0.0
 10
39.741134
 20
11.955626
 30
0.0
 10
41.195622
 20
12.052569
 30
0.0
 10
40.435567
 20
11.510562
 30
0.0
 10
40.584871
 20
10.713256
 30
0.0
 10
41.268853
 20
10.276912
 30
0.0
 10
42.112844
 20
10.817847
 30
0.0
 10
42.397437
 20
12.178469
 30
0.0
 10
41.704593
 20
13.326633
 30
0.0
 10
40.477248
 20
13.853204
 30
0.0
 10
39.158331
 20
13.349014
 30
0.0
 10
38.932096
 20
13.614387
 30
0.0
 10
39.238293
 20
14.426143
 30
0.0
 10
39.830827
 20
15.307864
 30
0.0
 10
40.463608
 20
15.783180
 30
0.0
 10
41.395715
 20
15.934703
 30
0.0
 10
42.184803
 20
15.661201
 30
0.0
 10
42.761524
 20
15.607438
 30
0.0
 10
43.056525
 20
16.418180
 30
0.0
 10
43.294689
 20
16.910540
 30
0.0
 10
43.290710
 20
17.219728
 30
0.0
 10
43.090262
 20
17.381704
 30
0.0
 10
42.739028
 20
17.432431
 30
0.0
  0
LWPOLYLINE
  5
104
100
AcDbEntity
  8
Layer_1
 62
7
100
AcDbPolyline
 90
37
 70
0
 10
29.015972
 20
17.203125
 30
0.0
 10
28.845792
 20
17.163938
 30
0.0
 10
28.722038
 20
17.082345
 30
0.0
 10
28.654852
 20
16.948693
 30
0.0
 10
28.654288
 20
16.753333
 30
0.0
 10
28.934438
 20
13.976775
 30
0.0
 10
28.875609
 20
11.194910
 30
0.0
 10
28.573826
 20
8.420750
 30
0.0
 10
28.125121
 20
5.667306
 30
0.0
 10
28.116301
 20
5.537201
 30
0.0
 10
28.107482
 20
5.407125
 30
0.0
 10
28.098663
 20
5.277049
 30
0.0
 10
28.089843
 20
5.146944
 30
0.0
 10
29.791996
 20
5.160209
 30
0.0
 10
31.494149
 20
5.173473
 30
0.0
 10
33.196301
 20
5.186738
 30
0.0
 10
34.898454
 20
5.200002
 30
0.0
 10
34.972419
 20
6.267875
 30
0.0
 10
35.033732
 20
7.336312
 30
0.0
 10
35.082528
 20
8.405962
 30
0.0
 10
35.118940
 20
9.477447
 30
0.0
 10
34.571048
 20
9.372968
 30
0.0
 10
33.534130
 20
8.445388
 30
0.0
 10
32.328296
 20
7.764838
 30
0.0
 10
31.273663
 20
8.401446
 30
0.0
 10
31.050151
 20
10.415638
 30
0.0
 10
31.263294
 20
12.432031
 30
0.0
 10
31.662418
 20
14.446167
 30
0.0
 10
31.996857
 20
16.453613
 30
0.0
 10
32.103492
 20
17.040929
 30
0.0
 10
31.697035
 20
17.200689
 30
0.0
 10
31.059047
 20
17.167712
 30
0.0
 10
30.471093
 20
17.176799
 30
0.0
 10
30.151942
 20
17.142921
 30
0.0
 10
29.767476
 20
17.168011
 30
0.0
 10
29.371016
 20
17.204113
 30
0.0
 10
29.015972
 20
17.203125
 30
0.0
  0
LWPOLYLINE
  5
105
100
AcDbEntity
  8
Layer_1
 62
7
100
AcDbPolyline
 90
53
 70
0
 10
50.694167
 20
15.730278
 30
0.0
 10
50.341211
 20
15.661706
 30
0.0
 10
50.115538
 20
15.481657
 30
0.0
 10
50.068934
 20
15.145897
 30
0.0
 10
50.253194
 20
14.610194
 30
0.0
 10
50.396002
 20
12.849974
 30
0.0
 10
50.463597
 20
11.079114
 30
0.0
 10
50.461339
 20
9.305517
 30
0.0
 10
50.394376
 20
7.537028
 30
0.0
 10
49.516625
 20
9.281246
 30
0.0
 10
48.785066
 20
11.091532
 30
0.0
 10
48.154810
 20
12.943587
 30
0.0
 10
47.580973
 20
14.813056
 30
0.0
 10
47.473136
 20
15.187607
 30
0.0
 10
47.037165
 20
15.253212
 30
0.0
 10
46.471812
 20
15.200163
 30
0.0
 10
45.975834
 20
15.218761
 30
0.0
 10
45.469127
 20
15.229345
 30
0.0
 10
44.967646
 20
15.226494
 30
0.0
 10
44.648349
 20
15.050007
 30
0.0
 10
44.688196
 20
14.539644
 30
0.0
 10
44.771033
 20
11.857715
 30
0.0
 10
44.819508
 20
9.165936
 30
0.0
 10
44.756025
 20
6.475483
 30
0.0
 10
44.502987
 20
3.797589
 30
0.0
 10
45.247233
 20
3.752434
 30
0.0
 10
45.991058
 20
3.716620
 30
0.0
 10
46.736090
 20
3.697146
 30
0.0
 10
47.483959
 20
3.700815
 30
0.0
 10
47.363747
 20
4.969940
 30
0.0
 10
47.257002
 20
6.239573
 30
0.0
 10
47.175539
 20
7.512029
 30
0.0
 10
47.131182
 20
8.789621
 30
0.0
 10
47.519500
 20
7.763122
 30
0.0
 10
48.178748
 20
6.410346
 30
0.0
 10
49.024179
 20
5.021305
 30
0.0
 10
49.971043
 20
3.886009
 30
0.0
 10
50.773612
 20
3.886009
 30
0.0
 10
51.576182
 20
3.886009
 30
0.0
 10
52.378751
 20
3.886009
 30
0.0
 10
53.181321
 20
3.886009
 30
0.0
 10
52.652910
 20
6.562746
 30
0.0
 10
52.444896
 20
9.285457
 30
0.0
 10
52.594070
 20
12.007180
 30
0.0
 10
53.137223
 20
14.681009
 30
0.0
 10
53.449206
 20
15.426900
 30
0.0
 10
53.128404
 20
15.703577
 30
0.0
 10
52.463644
 20
15.726945
 30
0.0
 10
51.743751
 20
15.712890
 30
0.0
 10
51.481569
 20
15.718252
 30
0.0
 10
51.211576
 20
15.729541
 30
0.0
 10
50.945291
 20
15.736907
 30
0.0
 10
50.694167
 20
15.730278
 30
0.0
  0
ENDSEC
  0
SECTION
  2
OBJECTS
  0
DICTIONARY
  5
C
330
0
100
AcDbDictionary
  3
ACAD_GROUP
350
D
  3
ACAD_MLINESTYLE
350
17
  0
DICTIONARY
  5
D
330
C
100
AcDbDictionary
  0
DICTIONARY
  5
1A
330
C
100
AcDbDictionary
  0
DICTIONARY
  5
17
330
C
100
AcDbDictionary
  3
STANDARD
350
18
  0
DICTIONARY
  5
19
330
C
100
AcDbDictionary
  0
ENDSEC
  0
EOF
