<?xml version="1.0" encoding="UTF-8" standalone="no"?>
<!-- Created with Inkscape (http://www.inkscape.org/) -->

<svg
   xmlns:dc="http://purl.org/dc/elements/1.1/"
   xmlns:cc="http://creativecommons.org/ns#"
   xmlns:rdf="http://www.w3.org/1999/02/22-rdf-syntax-ns#"
   xmlns:svg="http://www.w3.org/2000/svg"
   xmlns="http://www.w3.org/2000/svg"
   xmlns:sodipodi="http://sodipodi.sourceforge.net/DTD/sodipodi-0.dtd"
   xmlns:inkscape="http://www.inkscape.org/namespaces/inkscape"
   width="744.09448819"
   height="1052.3622047"
   id="svg2"
   version="1.1"
   inkscape:version="0.48.1 r9760"
   sodipodi:docname="drawing_test.dxf">
  <defs
     id="defs4" />
  <sodipodi:namedview
     id="base"
     pagecolor="#ffffff"
     bordercolor="#666666"
     borderopacity="1.0"
     inkscape:pageopacity="0.0"
     inkscape:pageshadow="2"
     inkscape:zoom="2.8"
     inkscape:cx="149.60493"
     inkscape:cy="47.619048"
     inkscape:document-units="mm"
     inkscape:current-layer="layer1"
     showgrid="false"
     inkscape:window-width="1364"
     inkscape:window-height="713"
     inkscape:window-x="0"
     inkscape:window-y="27"
     inkscape:window-maximized="1" />
  <metadata
     id="metadata7">
    <rdf:RDF>
      <cc:Work
         rdf:about="">
        <dc:format>image/svg+xml</dc:format>
        <dc:type
           rdf:resource="http://purl.org/dc/dcmitype/StillImage" />
        <dc:title></dc:title>
      </cc:Work>
    </rdf:RDF>
  </metadata>
  <g
     inkscape:label="Layer 1"
     inkscape:groupmode="layer"
     id="layer1">
    <g
       style="font-size:72px;font-style:normal;font-variant:normal;font-weight:normal;font-stretch:normal;text-align:start;line-height:125%;letter-spacing:0px;word-spacing:0px;writing-mode:lr-tb;text-anchor:start;fill:#000000;fill-opacity:1;stroke:none;font-family:WillyWonka;-inkscape-font-specification:WillyWonka"
       id="text2985">
      <path
         d="m 30.4375,970.59375 -0.873239,0.0186 -0.866904,0.0303 -0.86402,0.0371 -0.864587,0.0389 -0.745624,0.0641 -0.741887,0.10999 -0.740319,0.12451 L 24,971.125 l 0.930359,2.88816 0.235668,3.00822 -0.167658,3.05222 -0.279619,3.02015 2.169157,0.79245 2.282345,0.40218 2.330031,0.10955 2.312217,-0.0854 0.566649,-3.34957 1.702536,-2.98215 2.271068,-2.74598 2.272247,-2.64105 -2.430328,-1.05117 -2.531225,-0.61659 -2.597324,-0.28271 z m -8.0625,13.03125 -0.687865,0.0208 -0.67665,0.08 -0.666267,0.14677 -0.656718,0.2212 0.0078,0.32031 0.0078,0.32031 0.0078,0.32032 0.0078,0.32031 0.04687,0.25781 0.04687,0.25781 0.04687,0.25782 0.04687,0.25781 3.002263,1.17477 3.115988,0.78998 3.189674,0.4326 3.223325,0.10265 0.02311,0.009 0.02371,0.007 0.02374,0.007 0.0232,0.009 -1.265625,0 -1.265625,0 -1.265625,0 -1.265625,0 -1.741258,0.0671 -2.002396,-0.15087 -1.732132,0.0707 -0.930464,0.73181 0.492004,2.31632 0.367681,2.3398 0.305026,2.34768 0.304039,2.33995 -0.361498,2.9181 -2.637568,1.5592 -3.169285,1.508 -1.956649,2.7647 -1.341048,4.9908 2.541784,3.8672 3.691415,0.7428 2.107849,-4.382 -1.216827,-1.5823 0.559522,-1.5297 1.270986,-0.6299 0.917569,1.1169 -0.188577,5.5038 -0.511856,5.4743 -0.833514,5.4305 -1.153553,5.3726 4.195312,0 4.195313,0 4.195312,0 4.195313,0 -1.728868,-5.3512 -1.283884,-5.4573 -0.746257,-5.5452 -0.115991,-5.6151 2.054586,0.7905 1.843574,1.1048 1.644495,1.3915 1.457345,1.6508 2.135272,2.7087 1.711934,2.8258 1.007081,3.0898 0.02071,3.5007 0.729958,5.8883 1.203208,5.9791 2.37725,5.3892 4.252084,4.1184 6.383892,1.7977 6.74001,-1.1301 5.474934,-3.753 2.588664,-6.0709 -0.961596,-5.4089 -4.122997,-3.399 -5.268201,-0.5107 -4.397206,3.2561 -0.237598,3.375 3.133952,1.5831 2.521712,1.1118 -2.074316,1.9613 -4.590895,-0.1135 -2.498349,-4.1529 -0.438102,-5.1368 1.589846,-3.0655 5.119654,-0.01 4.026636,-3.096 1.961304,-4.7241 -1.076344,-4.8914 -3.782552,-1.9205 -3.213731,1.8556 -2.910902,2.8568 -2.874065,1.0831 -0.217726,-4.1881 -9.37e-4,-4.2072 0.163083,-4.2048 0.27433,-4.1812 0.578941,-3.91445 1.264926,-3.71511 1.96018,-3.39251 2.664703,-2.94668 -4.84375,0 -4.84375,0 -4.84375,0 -4.84375,0 1.466646,4.60912 0.678021,4.77112 0.183813,4.85441 -0.01598,4.8591 -1.532496,-0.3566 -2.696369,-2.0676 -3.230374,-2.3165 -3.134511,-1.103 0.771028,-3.56524 1.104821,-3.48804 1.432522,-3.37548 1.754129,-3.22754 -0.6875,0 -0.6875,0 -0.6875,0 -0.6875,0 1.409647,-0.94707 0.569201,-1.17547 -0.646785,-1.05951 -2.238313,-0.5992 -3.230982,0.24677 -3.243084,-0.57138 -3.193551,-0.79188 z m 71.25,6.96875 -2.119142,0.14528 -2.38164,0.31859 -2.303125,0.21947 -1.883593,-0.15209 -3.594411,0.0793 -3.975266,-0.36283 -3.627927,-0.12728 -2.552396,0.78586 0.7716,8.6081 0.07092,8.6464 -0.647216,8.6208 -1.382802,8.5309 -0.945616,3.425 1.612685,1.0649 3.068213,-0.2113 3.420968,-0.4036 4.709452,-0.2063 4.74431,-0.1186 4.697116,0.325 4.567872,1.1249 1.078773,-0.2093 -0.417521,-1.5059 -0.97471,-1.9764 -0.592792,-1.6208 -1.235281,-3.3107 -2.762004,0.5625 -3.536798,1.132 -3.559667,-1.6026 -2.996172,-4.1755 -0.284083,-4.7385 2.434169,-3.4613 5.158586,-0.3435 -2.697989,1.9205 0.518282,2.8251 2.412823,1.5461 2.985634,-1.9167 1.013279,-4.8211 -2.444212,-4.0683 -4.33812,-1.8658 -4.668447,1.7865 -0.801615,-0.9403 1.084946,-2.8763 2.09953,-3.12421 2.242139,-1.68419 3.297852,-0.53689 2.78524,0.9691 2.032756,0.1905 1.040402,-2.87271 0.843896,-1.74458 -0.01411,-1.09555 -0.710252,-0.57393 z m 57.8125,0 -2.12403,0.14528 -2.39238,0.31859 -2.31387,0.21947 -1.88847,-0.15209 -3.59441,0.0793 -3.97527,-0.36283 -3.62793,-0.12728 -2.55239,0.78586 0.7716,8.6081 0.0709,8.6464 -0.64721,8.6208 -1.3828,8.5309 -0.94562,3.425 1.61269,1.0649 3.06821,-0.2113 3.42097,-0.4036 4.71434,-0.2063 4.75505,-0.1186 4.70785,0.325 4.57276,1.1249 1.07878,-0.2093 -0.41753,-1.5059 -0.97471,-1.9764 -0.59279,-1.6208 -1.23528,-3.3107 -2.762,0.5625 -3.5368,1.132 -3.55967,-1.6026 -3.00105,-4.1755 -0.29483,-4.7385 2.42343,-3.4613 5.1537,-0.3435 -2.69311,1.9205 0.52903,2.8251 2.42356,1.5461 2.99052,-1.9167 1.0084,-4.8211 -2.45496,-4.0683 -4.34886,-1.8658 -4.67333,1.7865 -0.80162,-0.9403 1.08495,-2.8763 2.09953,-3.12421 2.24214,-1.68419 3.30274,-0.53689 2.79598,0.9691 2.0435,0.1905 1.04528,-2.87271 0.84389,-1.74458 -0.0141,-1.09555 -0.71025,-0.57393 z m -48.625,0.8125 -0.603,0.13885 -0.4385,0.28911 -0.23806,0.47357 -0.002,0.69222 0.99266,9.8382 -0.20845,9.857 -1.06931,9.8297 -1.5899,9.7563 -0.03125,0.461 -0.03125,0.4609 -0.03125,0.4609 -0.03125,0.461 6.03125,-0.047 6.03125,-0.047 6.03125,-0.047 6.03125,-0.047 0.26208,-3.7838 0.21725,-3.7858 0.1729,-3.7901 0.12902,-3.7966 -1.94135,0.3702 -3.67412,3.2867 -4.27264,2.4114 -3.73689,-2.2557 -0.79197,-7.1369 0.75523,-7.1447 1.41422,-7.1367 1.18502,-7.113 0.37784,-2.08104 -1.4402,-0.56608 -2.26059,0.11685 -2.0833,-0.0322 -1.13085,0.12004 -1.36228,-0.0889 -1.40478,-0.12792 z m 76.8125,5.21875 -1.25063,0.24297 -0.79963,0.63797 -0.16513,1.1897 0.65289,1.89816 0.50601,6.237 0.23951,6.2747 -0.008,6.2844 -0.23727,6.2663 -3.11014,-6.1803 -2.59214,-6.4144 -2.23319,-6.5624 -2.03328,-6.6241 -0.3821,-1.32715 -1.54478,-0.23246 -2.00322,0.18797 -1.7574,-0.0659 -1.79542,-0.0375 -1.7769,0.0101 -1.13137,0.62535 0.14119,1.80837 0.29352,9.5029 0.17176,9.5378 -0.22494,9.5331 -0.89659,9.4886 2.63709,0.16 2.6356,0.1269 2.63988,0.069 2.64993,-0.013 -0.42595,-4.4969 -0.37823,-4.4987 -0.28865,-4.5087 -0.15717,-4.5269 1.37593,3.6372 2.33592,4.7933 2.99562,4.9218 3.35503,4.0227 2.84375,0 2.84375,0 2.84375,0 2.84375,0 -1.87232,-9.4845 -0.73706,-9.6474 0.52857,-9.6439 1.92456,-9.4742 1.10545,-2.64292 -1.1367,-0.98035 -2.35545,-0.0828 -2.5508,0.0498 -0.92899,-0.019 -0.95667,-0.04 -0.94353,-0.0261 z"
         id="path2990"
         inkscape:connector-curvature="0"
         sodipodi:nodetypes="cccccccccccccccccccccccccccccccccccccccccccccccccccccccccccccccccccccccccccccccccccccccccccccccccccccccccccccccccccccccccccccccccccccccccccccccccccccccccccccccccccccccccccccccccccccccccccccccccccccccccccccccccccccccccccccccccccccccccccccccccccccccccccccccccccccccccccccccccccccccccccccccccccccccccccccccccccccccccccccccccccccccccccccccccccccccccccccc" />
    </g>
  </g>
</svg>
