999
DXF created by Inkscape
  0
SECTION
  2
HEADER
  9
$ACADVER
  1
AC1014
  9
$HANDSEED
  5
FFFF
  9
$MEASUREMENT
 70
     1
  0
ENDSEC
  0
SECTION
  2
TABLES
  0
TABLE
  2
VPORT
  5
8
330
0
100
AcDbSymbolTable
 70
     4
  0
VPORT
  5
2E
330
8
100
AcDbSymbolTableRecord
100
AcDbViewportTableRecord
  2
*ACTIVE
 70
     0
 10
0.0
 20
0.0
 11
1.0
 21
1.0
 12
210.0
 22
148.5
 13
0.0
 23
0.0
 14
10.0
 24
10.0
 15
10.0
 25
10.0
 16
0.0
 26
0.0
 36
1.0
 17
0.0
 27
0.0
 37
0.0
 40
341.0
 41
1.24
 42
50.0
 43
0.0
 44
0.0
 50
0.0
 51
0.0
 71
     0
 72
   100
 73
     1
 74
     3
 75
     0
 76
     0
 77
     0
 78
     0
  0
ENDTAB
  0
TABLE
  2
LTYPE
  5
5
330
0
100
AcDbSymbolTable
 70
     1
  0
LTYPE
  5
14
330
5
100
AcDbSymbolTableRecord
100
AcDbLinetypeTableRecord
  2
BYBLOCK
 70
     0
  3

 72
    65
 73
     0
 40
0.0
  0
LTYPE
  5
15
330
5
100
AcDbSymbolTableRecord
100
AcDbLinetypeTableRecord
  2
BYLAYER
 70
     0
  3

 72
    65
 73
     0
 40
0.0
  0
LTYPE
  5
16
330
5
100
AcDbSymbolTableRecord
100
AcDbLinetypeTableRecord
  2
CONTINUOUS
 70
     0
  3
Solid line
 72
    65
 73
     0
 40
0.0
  0
ENDTAB
  0
TABLE
  2
LAYER
  5
2
100
AcDbSymbolTable
 70
2
  0
LAYER
  5
50
100
AcDbSymbolTableRecord
100
AcDbLayerTableRecord
  2
0
 70
0
  6
CONTINUOUS
  0
LAYER
  5
51
100
AcDbSymbolTableRecord
100
AcDbLayerTableRecord
  2
Layer_1
 70
0
  6
CONTINUOUS
  0
ENDTAB
  0
TABLE
  2
STYLE
  5
3
330
0
100
AcDbSymbolTable
 70
     1
  0
STYLE
  5
11
330
3
100
AcDbSymbolTableRecord
100
AcDbTextStyleTableRecord
  2
STANDARD
 70
     0
 40
0.0
 41
1.0
 50
0.0
 71
     0
 42
2.5
  3
txt
  4

  0
ENDTAB
  0
TABLE
  2
VIEW
  5
6
330
0
100
AcDbSymbolTable
 70
     0
  0
ENDTAB
  0
TABLE
  2
UCS
  5
7
330
0
100
AcDbSymbolTable
 70
     0
  0
ENDTAB
  0
TABLE
  2
APPID
  5
9
330
0
100
AcDbSymbolTable
 70
     2
  0
APPID
  5
12
330
9
100
AcDbSymbolTableRecord
100
AcDbRegAppTableRecord
  2
ACAD
 70
     0
  0
ENDTAB
  0
TABLE
  2
DIMSTYLE
  5
A
330
0
100
AcDbSymbolTable
 70
     1
  0
DIMSTYLE
105
27
330
A
100
AcDbSymbolTableRecord
100
AcDbDimStyleTableRecord
  2
ISO-25
 70
     0
  3

  4

  5

  6

  7

 40
1.0
 41
2.5
 42
0.625
 43
3.75
 44
1.25
 45
0.0
 46
0.0
 47
0.0
 48
0.0
140
2.5
141
2.5
142
0.0
143
0.03937007874016
144
1.0
145
0.0
146
1.0
147
0.625
 71
     0
 72
     0
 73
     0
 74
     0
 75
     0
 76
     0
 77
     1
 78
     8
170
     0
171
     3
172
     1
173
     0
174
     0
175
     0
176
     0
177
     0
178
     0
270
     2
271
     2
272
     2
273
     2
274
     3
340
11
275
     0
280
     0
281
     0
282
     0
283
     0
284
     8
285
     0
286
     0
287
     3
288
     0
  0
ENDTAB
  0
TABLE
  2
BLOCK_RECORD
  5
1
330
0
100
AcDbSymbolTable
 70
     1
  0
BLOCK_RECORD
  5
1F
330
1
100
AcDbSymbolTableRecord
100
AcDbBlockTableRecord
  2
*MODEL_SPACE
  0
BLOCK_RECORD
  5
1B
330
1
100
AcDbSymbolTableRecord
100
AcDbBlockTableRecord
  2
*PAPER_SPACE
  0
ENDTAB
  0
ENDSEC
  0
SECTION
  2
BLOCKS
  0
BLOCK
  5
20
330
1F
100
AcDbEntity
  8
0
100
AcDbBlockBegin
  2
*MODEL_SPACE
 70
     0
 10
0.0
 20
0.0
 30
0.0
  3
*MODEL_SPACE
  1

  0
ENDBLK
  5
21
330
1F
100
AcDbEntity
  8
0
100
AcDbBlockEnd
  0
BLOCK
  5
1C
330
1B
100
AcDbEntity
 67
     1
  8
0
100
AcDbBlockBegin
  2
*PAPER_SPACE
  1

  0
ENDBLK
  5
1D
330
1B
100
AcDbEntity
 67
     1
  8
0
100
AcDbBlockEnd
  0
ENDSEC
  0
SECTION
  2
ENTITIES
  0
LWPOLYLINE
  5
100
100
AcDbEntity
  8
Layer_1
 62
7
100
AcDbPolyline
 90
57
 70
0
 10
11.620362
 20
24.692259
 30
0.0
 10
11.686114
 20
24.884037
 30
0.0
 10
11.751867
 20
25.075813
 30
0.0
 10
11.817619
 20
25.267591
 30
0.0
 10
11.883371
 20
25.459367
 30
0.0
 10
13.013480
 20
25.371686
 30
0.0
 10
14.080581
 20
25.064840
 30
0.0
 10
15.084673
 20
24.538826
 30
0.0
 10
16.025758
 20
23.793646
 30
0.0
 10
16.121639
 20
23.652543
 30
0.0
 10
16.212046
 20
23.492269
 30
0.0
 10
16.296978
 20
23.312824
 30
0.0
 10
16.376437
 20
23.114207
 30
0.0
 10
16.376437
 20
22.944349
 30
0.0
 10
16.376437
 20
22.774488
 30
0.0
 10
16.376437
 20
22.604630
 30
0.0
 10
16.376437
 20
22.434769
 30
0.0
 10
15.454529
 20
21.896413
 30
0.0
 10
14.617556
 20
21.223818
 30
0.0
 10
13.865518
 20
20.416987
 30
0.0
 10
13.198415
 20
19.475920
 30
0.0
 10
13.176497
 20
19.464970
 30
0.0
 10
13.154580
 20
19.454019
 30
0.0
 10
13.132662
 20
19.443069
 30
0.0
 10
13.110745
 20
19.432119
 30
0.0
 10
12.632666
 20
20.045797
 30
0.0
 10
12.053223
 20
20.549894
 30
0.0
 10
11.372416
 20
20.944410
 30
0.0
 10
10.590245
 20
21.229344
 30
0.0
 10
10.612162
 20
21.327972
 30
0.0
 10
10.634079
 20
21.426600
 30
0.0
 10
10.655997
 20
21.525229
 30
0.0
 10
10.677914
 20
21.623857
 30
0.0
 10
10.751880
 20
21.800559
 30
0.0
 10
10.820370
 20
22.001922
 30
0.0
 10
10.883385
 20
22.227948
 30
0.0
 10
10.940923
 20
22.478637
 30
0.0
 10
10.968321
 20
22.571788
 30
0.0
 10
10.995716
 20
22.664935
 30
0.0
 10
11.023114
 20
22.758082
 30
0.0
 10
11.050510
 20
22.851233
 30
0.0
 10
11.069681
 20
22.878608
 30
0.0
 10
11.083377
 20
22.916959
 30
0.0
 10
11.091598
 20
22.966278
 30
0.0
 10
11.094336
 20
23.026560
 30
0.0
 10
11.182005
 20
23.284088
 30
0.0
 10
11.269675
 20
23.541619
 30
0.0
 10
11.357345
 20
23.799147
 30
0.0
 10
11.445014
 20
24.056677
 30
0.0
 10
11.477890
 20
24.171742
 30
0.0
 10
11.510766
 20
24.286810
 30
0.0
 10
11.543642
 20
24.401874
 30
0.0
 10
11.576518
 20
24.516942
 30
0.0
 10
11.587477
 20
24.560777
 30
0.0
 10
11.598436
 20
24.604612
 30
0.0
 10
11.609395
 20
24.648446
 30
0.0
 10
11.620353
 20
24.692281
 30
0.0
  0
LWPOLYLINE
  5
101
100
AcDbEntity
  8
Layer_1
 62
7
100
AcDbPolyline
 90
29
 70
0
 10
8.617670
 20
20.286885
 30
0.0
 10
8.516299
 20
20.589611
 30
0.0
 10
8.540953
 20
20.862204
 30
0.0
 10
8.691637
 20
21.104669
 30
0.0
 10
8.968347
 20
21.317002
 30
0.0
 10
9.728602
 20
21.238914
 30
0.0
 10
10.475162
 20
21.048502
 30
0.0
 10
11.208026
 20
20.745773
 30
0.0
 10
11.927196
 20
20.330720
 30
0.0
 10
12.890184
 20
19.200598
 30
0.0
 10
13.302503
 20
18.352664
 30
0.0
 10
13.164152
 20
17.786924
 30
0.0
 10
12.475130
 20
17.503376
 30
0.0
 10
12.431290
 20
17.526659
 30
0.0
 10
12.387453
 20
17.552680
 30
0.0
 10
12.343620
 20
17.581447
 30
0.0
 10
12.299791
 20
17.612960
 30
0.0
 10
12.255951
 20
17.647199
 30
0.0
 10
12.212114
 20
17.684184
 30
0.0
 10
12.168281
 20
17.723910
 30
0.0
 10
12.124452
 20
17.766381
 30
0.0
 10
11.645004
 20
18.699233
 30
0.0
 10
10.951865
 20
19.393740
 30
0.0
 10
10.045035
 20
19.849898
 30
0.0
 10
8.924513
 20
20.067709
 30
0.0
 10
8.847802
 20
20.122502
 30
0.0
 10
8.771091
 20
20.177296
 30
0.0
 10
8.694380
 20
20.232089
 30
0.0
 10
8.617669
 20
20.286883
 30
0.0
  0
LWPOLYLINE
  5
102
100
AcDbEntity
  8
Layer_1
 62
7
100
AcDbPolyline
 90
105
 70
0
 10
2.962981
 20
16.780099
 30
0.0
 10
3.630091
 20
18.123903
 30
0.0
 10
4.645140
 20
19.086893
 30
0.0
 10
6.008128
 20
19.669078
 30
0.0
 10
7.719056
 20
19.870452
 30
0.0
 10
9.998459
 20
19.532093
 30
0.0
 10
11.401171
 20
18.626631
 30
0.0
 10
11.927190
 20
17.154058
 30
0.0
 10
11.576517
 20
15.114379
 30
0.0
 10
11.529937
 20
15.048621
 30
0.0
 10
11.477882
 20
14.982866
 30
0.0
 10
11.420351
 20
14.917117
 30
0.0
 10
11.357343
 20
14.851370
 30
0.0
 10
11.299805
 20
14.796571
 30
0.0
 10
11.236790
 20
14.741786
 30
0.0
 10
11.168300
 20
14.686978
 30
0.0
 10
11.094335
 20
14.632199
 30
0.0
 10
10.392974
 20
14.443167
 30
0.0
 10
9.691616
 20
14.423976
 30
0.0
 10
8.990261
 20
14.574654
 30
0.0
 10
8.288908
 20
14.895205
 30
0.0
 10
7.823160
 20
15.455461
 30
0.0
 10
7.631382
 20
16.062298
 30
0.0
 10
7.713574
 20
16.715710
 30
0.0
 10
8.069734
 20
17.415703
 30
0.0
 10
7.987541
 20
17.500627
 30
0.0
 10
7.894391
 20
17.580075
 30
0.0
 10
7.790284
 20
17.654048
 30
0.0
 10
7.675221
 20
17.722547
 30
0.0
 10
7.119065
 20
17.597886
 30
0.0
 10
6.634142
 20
17.333503
 30
0.0
 10
6.220452
 20
16.929406
 30
0.0
 10
5.877995
 20
16.385586
 30
0.0
 10
5.809501
 20
15.966410
 30
0.0
 10
5.867033
 20
15.563676
 30
0.0
 10
6.050592
 20
15.177385
 30
0.0
 10
6.360177
 20
14.807535
 30
0.0
 10
6.523185
 20
14.692454
 30
0.0
 10
6.705373
 20
14.588342
 30
0.0
 10
6.906740
 20
14.495208
 30
0.0
 10
7.127286
 20
14.413025
 30
0.0
 10
7.198518
 20
14.385650
 30
0.0
 10
7.269750
 20
14.358274
 30
0.0
 10
7.340981
 20
14.330899
 30
0.0
 10
7.412212
 20
14.303523
 30
0.0
 10
8.958754
 20
13.940501
 30
0.0
 10
10.288864
 20
13.333666
 30
0.0
 10
11.402543
 20
12.482992
 30
0.0
 10
12.299791
 20
11.388506
 30
0.0
 10
12.395674
 20
11.121383
 30
0.0
 10
12.464164
 20
10.824146
 30
0.0
 10
12.505261
 20
10.496740
 30
0.0
 10
12.518966
 20
10.139221
 30
0.0
 10
12.475131
 20
9.662520
 30
0.0
 10
12.431296
 20
9.185790
 30
0.0
 10
12.387461
 20
8.709088
 30
0.0
 10
12.343627
 20
8.232387
 30
0.0
 10
11.124467
 20
6.054365
 30
0.0
 10
9.505318
 20
4.758485
 30
0.0
 10
7.486180
 20
4.344804
 30
0.0
 10
5.067052
 20
4.813293
 30
0.0
 10
3.482150
 20
5.957111
 30
0.0
 10
2.475320
 20
7.240630
 30
0.0
 10
2.046561
 20
8.663905
 30
0.0
 10
2.195873
 20
10.226880
 30
0.0
 10
3.087636
 20
11.332344
 30
0.0
 10
4.184875
 20
11.930937
 30
0.0
 10
5.487590
 20
12.022744
 30
0.0
 10
6.995783
 20
11.607680
 30
0.0
 10
7.384813
 20
11.155616
 30
0.0
 10
7.565630
 20
10.654277
 30
0.0
 10
7.538235
 20
10.103605
 30
0.0
 10
7.302626
 20
9.503600
 30
0.0
 10
6.919069
 20
8.884433
 30
0.0
 10
6.404010
 20
8.429632
 30
0.0
 10
5.757448
 20
8.139225
 30
0.0
 10
4.979383
 20
8.013213
 30
0.0
 10
5.169788
 20
7.480349
 30
0.0
 10
5.478001
 20
7.087214
 30
0.0
 10
5.904021
 20
6.833806
 30
0.0
 10
6.447848
 20
6.720099
 30
0.0
 10
6.864275
 20
6.705141
 30
0.0
 10
7.258788
 20
6.791445
 30
0.0
 10
7.631384
 20
6.979123
 30
0.0
 10
7.982066
 20
7.268146
 30
0.0
 10
8.650542
 20
8.664018
 30
0.0
 10
8.814921
 20
9.980415
 30
0.0
 10
8.475203
 20
11.217395
 30
0.0
 10
7.631387
 20
12.374901
 30
0.0
 10
6.943726
 20
12.857078
 30
0.0
 10
6.195795
 20
13.251596
 30
0.0
 10
5.387592
 20
13.558428
 30
0.0
 10
4.519117
 20
13.777602
 30
0.0
 10
4.398572
 20
13.821431
 30
0.0
 10
4.278026
 20
13.865260
 30
0.0
 10
4.157480
 20
13.909118
 30
0.0
 10
4.036935
 20
13.952947
 30
0.0
 10
3.972551
 20
14.010492
 30
0.0
 10
3.888991
 20
14.073484
 30
0.0
 10
3.786253
 20
14.141979
 30
0.0
 10
3.664339
 20
14.215950
 30
0.0
 10
3.250648
 20
14.762529
 30
0.0
 10
2.995858
 20
15.372095
 30
0.0
 10
2.899969
 20
16.044687
 30
0.0
 10
2.962982
 20
16.780297
 30
0.0
  0
LWPOLYLINE
  5
103
100
AcDbEntity
  8
Layer_1
 62
7
100
AcDbPolyline
 90
149
 70
0
 10
15.740832
 20
19.563589
 30
0.0
 10
15.883295
 20
19.558114
 30
0.0
 10
16.025758
 20
19.552639
 30
0.0
 10
16.168222
 20
19.547164
 30
0.0
 10
16.310685
 20
19.541689
 30
0.0
 10
17.532579
 20
19.530739
 30
0.0
 10
18.754474
 20
19.519788
 30
0.0
 10
19.976369
 20
19.508838
 30
0.0
 10
21.198263
 20
19.497888
 30
0.0
 10
21.198263
 20
19.306110
 30
0.0
 10
21.198263
 20
19.114334
 30
0.0
 10
21.198263
 20
18.922555
 30
0.0
 10
21.198263
 20
18.730780
 30
0.0
 10
21.187305
 20
18.659547
 30
0.0
 10
21.176346
 20
18.588314
 30
0.0
 10
21.165387
 20
18.517084
 30
0.0
 10
21.154429
 20
18.445851
 30
0.0
 10
21.154429
 20
17.941751
 30
0.0
 10
21.154429
 20
17.437652
 30
0.0
 10
21.154429
 20
16.933552
 30
0.0
 10
21.154429
 20
16.429452
 30
0.0
 10
21.164013
 20
16.362323
 30
0.0
 10
21.170860
 20
16.292462
 30
0.0
 10
21.174972
 20
16.219863
 30
0.0
 10
21.176355
 20
16.144526
 30
0.0
 10
21.185939
 20
16.066441
 30
0.0
 10
21.192785
 20
15.985618
 30
0.0
 10
21.196897
 20
15.902061
 30
0.0
 10
21.198280
 20
15.815766
 30
0.0
 10
21.209239
 20
15.574675
 30
0.0
 10
21.220198
 20
15.333583
 30
0.0
 10
21.231156
 20
15.092492
 30
0.0
 10
21.242115
 20
14.851401
 30
0.0
 10
21.261289
 20
14.823997
 30
0.0
 10
21.274986
 20
14.785640
 30
0.0
 10
21.283207
 20
14.736325
 30
0.0
 10
21.285944
 20
14.676071
 30
0.0
 10
21.296903
 20
14.495251
 30
0.0
 10
21.307862
 20
14.314431
 30
0.0
 10
21.318820
 20
14.133611
 30
0.0
 10
21.329779
 20
13.952791
 30
0.0
 10
21.346213
 20
13.714427
 30
0.0
 10
21.373608
 20
13.503465
 30
0.0
 10
21.411965
 20
13.319936
 30
0.0
 10
21.461285
 20
13.163783
 30
0.0
 10
21.472243
 20
13.026792
 30
0.0
 10
21.483202
 20
12.889801
 30
0.0
 10
21.494161
 20
12.752811
 30
0.0
 10
21.505119
 20
12.615848
 30
0.0
 10
21.546210
 20
12.466525
 30
0.0
 10
21.581823
 20
12.303513
 30
0.0
 10
21.611962
 20
12.126785
 30
0.0
 10
21.636625
 20
11.936398
 30
0.0
 10
21.658542
 20
11.870641
 30
0.0
 10
21.680460
 20
11.804883
 30
0.0
 10
21.702377
 20
11.739125
 30
0.0
 10
21.724295
 20
11.673395
 30
0.0
 10
21.729770
 20
11.546000
 30
0.0
 10
21.746206
 20
11.426818
 30
0.0
 10
21.773604
 20
11.315848
 30
0.0
 10
21.811965
 20
11.213119
 30
0.0
 10
21.927031
 20
10.813126
 30
0.0
 10
22.042097
 20
10.413132
 30
0.0
 10
22.157164
 20
10.013139
 30
0.0
 10
22.272230
 20
9.613145
 30
0.0
 10
22.313320
 20
9.529579
 30
0.0
 10
22.348934
 20
9.432325
 30
0.0
 10
22.379072
 20
9.321384
 30
0.0
 10
22.403736
 20
9.196726
 30
0.0
 10
22.562637
 20
8.873441
 30
0.0
 10
22.721538
 20
8.550155
 30
0.0
 10
22.880439
 20
8.226869
 30
0.0
 10
23.039340
 20
7.903584
 30
0.0
 10
23.083175
 20
7.837826
 30
0.0
 10
23.127010
 20
7.772068
 30
0.0
 10
23.170844
 20
7.706311
 30
0.0
 10
23.214679
 20
7.640581
 30
0.0
 10
23.247555
 20
7.602227
 30
0.0
 10
23.280431
 20
7.563873
 30
0.0
 10
23.313308
 20
7.525519
 30
0.0
 10
23.346184
 20
7.487165
 30
0.0
 10
23.368101
 20
7.465152
 30
0.0
 10
23.390018
 20
7.443138
 30
0.0
 10
23.411936
 20
7.421125
 30
0.0
 10
23.433853
 20
7.399112
 30
0.0
 10
23.477688
 20
7.333354
 30
0.0
 10
23.521523
 20
7.267596
 30
0.0
 10
23.565357
 20
7.201838
 30
0.0
 10
23.609192
 20
7.136081
 30
0.0
 10
23.658506
 20
7.070323
 30
0.0
 10
23.707820
 20
7.004565
 30
0.0
 10
23.757135
 20
6.938807
 30
0.0
 10
23.806449
 20
6.873078
 30
0.0
 10
23.094134
 20
6.873078
 30
0.0
 10
22.381818
 20
6.873078
 30
0.0
 10
21.669503
 20
6.873078
 30
0.0
 10
20.957188
 20
6.873078
 30
0.0
 10
20.902394
 20
7.042919
 30
0.0
 10
20.847601
 20
7.212789
 30
0.0
 10
20.792807
 20
7.382658
 30
0.0
 10
20.738014
 20
7.552528
 30
0.0
 10
20.716096
 20
7.596357
 30
0.0
 10
20.694179
 20
7.640186
 30
0.0
 10
20.672262
 20
7.684015
 30
0.0
 10
20.650344
 20
7.727872
 30
0.0
 10
20.584592
 20
7.919642
 30
0.0
 10
20.518840
 20
8.111412
 30
0.0
 10
20.453088
 20
8.303182
 30
0.0
 10
20.387336
 20
8.494981
 30
0.0
 10
20.365418
 20
8.571689
 30
0.0
 10
20.343501
 20
8.648397
 30
0.0
 10
20.321584
 20
8.725105
 30
0.0
 10
20.299666
 20
8.801813
 30
0.0
 10
20.288707
 20
8.845642
 30
0.0
 10
20.277749
 20
8.889471
 30
0.0
 10
20.266790
 20
8.933300
 30
0.0
 10
20.255831
 20
8.977157
 30
0.0
 10
20.217476
 20
9.092219
 30
0.0
 10
20.179121
 20
9.207281
 30
0.0
 10
20.140765
 20
9.322343
 30
0.0
 10
20.102410
 20
9.437433
 30
0.0
 10
20.069534
 20
9.536042
 30
0.0
 10
20.036658
 20
9.634679
 30
0.0
 10
20.003782
 20
9.733287
 30
0.0
 10
19.970906
 20
9.831924
 30
0.0
 10
19.959947
 20
9.875753
 30
0.0
 10
19.948988
 20
9.919582
 30
0.0
 10
19.938029
 20
9.963411
 30
0.0
 10
19.927071
 20
10.007268
 30
0.0
 10
19.795566
 20
10.368908
 30
0.0
 10
19.664062
 20
10.730547
 30
0.0
 10
19.532557
 20
11.092187
 30
0.0
 10
19.401053
 20
11.453827
 30
0.0
 10
19.083251
 20
11.453827
 30
0.0
 10
18.765449
 20
11.453827
 30
0.0
 10
18.447647
 20
11.453827
 30
0.0
 10
18.129844
 20
11.453827
 30
0.0
 10
17.581907
 20
10.531891
 30
0.0
 10
17.318898
 20
9.563417
 30
0.0
 10
17.340815
 20
8.548377
 30
0.0
 10
17.647661
 20
7.486770
 30
0.0
 10
16.491518
 20
7.486770
 30
0.0
 10
15.335376
 20
7.486770
 30
0.0
 10
14.179233
 20
7.486770
 30
0.0
 10
13.023091
 20
7.486770
 30
0.0
 10
14.729906
 20
11.422302
 30
0.0
 10
15.751804
 20
14.746880
 30
0.0
 10
16.088784
 20
17.460540
 30
0.0
 10
15.740848
 20
19.563245
 30
0.0
  0
LWPOLYLINE
  5
104
100
AcDbEntity
  8
Layer_1
 62
7
100
AcDbPolyline
 90
37
 70
0
 10
18.370935
 20
15.946875
 30
0.0
 10
18.354498
 20
15.990710
 30
0.0
 10
18.338059
 20
16.034544
 30
0.0
 10
18.321622
 20
16.078379
 30
0.0
 10
18.305186
 20
16.122214
 30
0.0
 10
18.217516
 20
15.842766
 30
0.0
 10
18.129846
 20
15.563321
 30
0.0
 10
18.042177
 20
15.283873
 30
0.0
 10
17.954507
 20
15.004428
 30
0.0
 10
17.931218
 20
14.923602
 30
0.0
 10
17.905192
 20
14.834561
 30
0.0
 10
17.876426
 20
14.737313
 30
0.0
 10
17.844923
 20
14.631846
 30
0.0
 10
17.807935
 20
14.519494
 30
0.0
 10
17.762729
 20
14.401694
 30
0.0
 10
17.709306
 20
14.278419
 30
0.0
 10
17.647666
 20
14.149670
 30
0.0
 10
17.949031
 20
14.149670
 30
0.0
 10
18.250394
 20
14.149670
 30
0.0
 10
18.551759
 20
14.149670
 30
0.0
 10
18.853123
 20
14.149670
 30
0.0
 10
18.885999
 20
14.160676
 30
0.0
 10
18.918875
 20
14.171683
 30
0.0
 10
18.951751
 20
14.182690
 30
0.0
 10
18.984627
 20
14.193696
 30
0.0
 10
18.880516
 20
14.395034
 30
0.0
 10
18.787366
 20
14.626541
 30
0.0
 10
18.705177
 20
14.888183
 30
0.0
 10
18.633949
 20
15.179964
 30
0.0
 10
18.595590
 20
15.253929
 30
0.0
 10
18.568192
 20
15.322419
 30
0.0
 10
18.551755
 20
15.385433
 30
0.0
 10
18.546280
 20
15.442973
 30
0.0
 10
18.502445
 20
15.568996
 30
0.0
 10
18.458611
 20
15.695023
 30
0.0
 10
18.414776
 20
15.821046
 30
0.0
 10
18.370941
 20
15.947072
 30
0.0
  0
LWPOLYLINE
  5
105
100
AcDbEntity
  8
Layer_1
 62
7
100
AcDbPolyline
 90
193
 70
0
 10
24.700937
 20
18.752646
 30
0.0
 10
24.680389
 20
18.873183
 30
0.0
 10
24.662580
 20
18.971809
 30
0.0
 10
24.647513
 20
19.048522
 30
0.0
 10
24.635185
 20
19.103324
 30
0.0
 10
24.632448
 20
19.159481
 30
0.0
 10
24.624229
 20
19.218381
 30
0.0
 10
24.610530
 20
19.280027
 30
0.0
 10
24.591353
 20
19.344416
 30
0.0
 10
25.139288
 20
19.344416
 30
0.0
 10
25.687223
 20
19.344416
 30
0.0
 10
26.235158
 20
19.344416
 30
0.0
 10
26.783093
 20
19.344416
 30
0.0
 10
30.111793
 20
19.155369
 30
0.0
 10
32.317227
 20
18.106072
 30
0.0
 10
33.399400
 20
16.196523
 30
0.0
 10
33.358311
 20
13.426724
 30
0.0
 10
33.310362
 20
13.304804
 30
0.0
 10
33.254197
 20
13.180146
 30
0.0
 10
33.189816
 20
13.052751
 30
0.0
 10
33.117220
 20
12.922618
 30
0.0
 10
33.048722
 20
12.802081
 30
0.0
 10
32.974749
 20
12.681516
 30
0.0
 10
32.895300
 20
12.560979
 30
0.0
 10
32.810377
 20
12.440442
 30
0.0
 10
32.799427
 20
12.424073
 30
0.0
 10
32.788476
 20
12.407704
 30
0.0
 10
32.777526
 20
12.391335
 30
0.0
 10
32.766576
 20
12.374966
 30
0.0
 10
33.459708
 20
11.183198
 30
0.0
 10
33.961065
 20
9.712002
 30
0.0
 10
34.270651
 20
7.961349
 30
0.0
 10
34.388462
 20
5.931240
 30
0.0
 10
33.654230
 20
6.079181
 30
0.0
 10
32.919998
 20
6.227122
 30
0.0
 10
32.185763
 20
6.375091
 30
0.0
 10
31.451531
 20
6.523032
 30
0.0
 10
31.335091
 20
8.550375
 30
0.0
 10
30.788526
 20
9.985955
 30
0.0
 10
29.811834
 20
10.829799
 30
0.0
 10
28.405015
 20
11.081852
 30
0.0
 10
28.262549
 20
11.120206
 30
0.0
 10
28.098167
 20
11.147582
 30
0.0
 10
27.911870
 20
11.163950
 30
0.0
 10
27.703657
 20
11.169313
 30
0.0
 10
27.654343
 20
11.180319
 30
0.0
 10
27.605029
 20
11.191326
 30
0.0
 10
27.555715
 20
11.202333
 30
0.0
 10
27.506401
 20
11.213339
 30
0.0
 10
27.473524
 20
11.218702
 30
0.0
 10
27.440648
 20
11.224064
 30
0.0
 10
27.407772
 20
11.229426
 30
0.0
 10
27.374896
 20
11.234788
 30
0.0
 10
27.358457
 20
11.100535
 30
0.0
 10
27.352976
 20
10.960807
 30
0.0
 10
27.358457
 20
10.815604
 30
0.0
 10
27.374896
 20
10.664925
 30
0.0
 10
27.396814
 20
10.495084
 30
0.0
 10
27.418731
 20
10.325214
 30
0.0
 10
27.440648
 20
10.155345
 30
0.0
 10
27.462566
 20
9.985503
 30
0.0
 10
27.462566
 20
9.958128
 30
0.0
 10
27.462566
 20
9.930752
 30
0.0
 10
27.462566
 20
9.903377
 30
0.0
 10
27.462566
 20
9.876001
 30
0.0
 10
27.484483
 20
9.777364
 30
0.0
 10
27.506401
 20
9.678756
 30
0.0
 10
27.528318
 20
9.580119
 30
0.0
 10
27.550235
 20
9.481483
 30
0.0
 10
27.599547
 20
9.270522
 30
0.0
 10
27.637902
 20
9.075986
 30
0.0
 10
27.665300
 20
8.897904
 30
0.0
 10
27.681740
 20
8.736275
 30
0.0
 10
27.785847
 20
8.308878
 30
0.0
 10
27.889955
 20
7.881480
 30
0.0
 10
27.994063
 20
7.454111
 30
0.0
 10
28.098170
 20
7.026714
 30
0.0
 10
28.103648
 20
6.988360
 30
0.0
 10
28.109126
 20
6.950006
 30
0.0
 10
28.114607
 20
6.911652
 30
0.0
 10
28.120085
 20
6.873298
 30
0.0
 10
27.210513
 20
6.873298
 30
0.0
 10
26.300941
 20
6.873298
 30
0.0
 10
25.391369
 20
6.873298
 30
0.0
 10
24.481798
 20
6.873298
 30
0.0
 10
24.488647
 20
7.041784
 30
0.0
 10
24.509196
 20
7.240412
 30
0.0
 10
24.543442
 20
7.469182
 30
0.0
 10
24.591386
 20
7.728092
 30
0.0
 10
24.602345
 20
7.799325
 30
0.0
 10
24.613304
 20
7.870558
 30
0.0
 10
24.624262
 20
7.941763
 30
0.0
 10
24.635221
 20
8.012996
 30
0.0
 10
24.640699
 20
8.067803
 30
0.0
 10
24.646180
 20
8.122583
 30
0.0
 10
24.651658
 20
8.177390
 30
0.0
 10
24.657136
 20
8.232170
 30
0.0
 10
24.668094
 20
8.265048
 30
0.0
 10
24.679053
 20
8.297927
 30
0.0
 10
24.690012
 20
8.330806
 30
0.0
 10
24.700970
 20
8.363685
 30
0.0
 10
24.705079
 20
8.480130
 30
0.0
 10
24.717407
 20
8.610263
 30
0.0
 10
24.737955
 20
8.754083
 30
0.0
 10
24.766722
 20
8.911620
 30
0.0
 10
24.777681
 20
8.977377
 30
0.0
 10
24.788639
 20
9.043135
 30
0.0
 10
24.799598
 20
9.108865
 30
0.0
 10
24.810557
 20
9.174622
 30
0.0
 10
24.816038
 20
9.251330
 30
0.0
 10
24.821516
 20
9.328067
 30
0.0
 10
24.826993
 20
9.404775
 30
0.0
 10
24.832474
 20
9.481483
 30
0.0
 10
24.842061
 20
9.537645
 30
0.0
 10
24.848911
 20
9.596545
 30
0.0
 10
24.853020
 20
9.658182
 30
0.0
 10
24.854403
 20
9.722557
 30
0.0
 10
24.863990
 20
9.799265
 30
0.0
 10
24.870840
 20
9.875973
 30
0.0
 10
24.874949
 20
9.952681
 30
0.0
 10
24.876332
 20
10.029417
 30
0.0
 10
24.881812
 20
10.056793
 30
0.0
 10
24.887290
 20
10.084168
 30
0.0
 10
24.892768
 20
10.111544
 30
0.0
 10
24.898249
 20
10.138919
 30
0.0
 10
24.898249
 20
10.221102
 30
0.0
 10
24.898249
 20
10.303314
 30
0.0
 10
24.898249
 20
10.385497
 30
0.0
 10
24.898249
 20
10.467680
 30
0.0
 10
24.909208
 20
10.522488
 30
0.0
 10
24.920166
 20
10.577267
 30
0.0
 10
24.931125
 20
10.632074
 30
0.0
 10
24.942084
 20
10.686854
 30
0.0
 10
24.947562
 20
10.758087
 30
0.0
 10
24.953040
 20
10.829320
 30
0.0
 10
24.958520
 20
10.900552
 30
0.0
 10
24.963998
 20
10.971785
 30
0.0
 10
24.974957
 20
11.185484
 30
0.0
 10
24.985916
 20
11.399183
 30
0.0
 10
24.996874
 20
11.612853
 30
0.0
 10
25.007833
 20
11.826552
 30
0.0
 10
25.007833
 20
11.930664
 30
0.0
 10
25.007833
 20
12.034775
 30
0.0
 10
25.007833
 20
12.138859
 30
0.0
 10
25.007833
 20
12.242971
 30
0.0
 10
25.013311
 20
12.303253
 30
0.0
 10
25.018789
 20
12.363536
 30
0.0
 10
25.024270
 20
12.423790
 30
0.0
 10
25.029748
 20
12.484073
 30
0.0
 10
25.029748
 20
13.086815
 30
0.0
 10
25.029748
 20
13.689529
 30
0.0
 10
25.029748
 20
14.292271
 30
0.0
 10
25.029748
 20
14.894987
 30
0.0
 10
25.020158
 20
14.949775
 30
0.0
 10
25.013308
 20
15.004566
 30
0.0
 10
25.009199
 20
15.059362
 30
0.0
 10
25.007816
 20
15.114161
 30
0.0
 10
25.007816
 20
15.170318
 30
0.0
 10
25.007816
 20
15.229220
 30
0.0
 10
25.007816
 20
15.290863
 30
0.0
 10
25.007816
 20
15.355252
 30
0.0
 10
24.991379
 20
15.640178
 30
0.0
 10
24.974943
 20
15.925104
 30
0.0
 10
24.958506
 20
16.210030
 30
0.0
 10
24.942070
 20
16.494956
 30
0.0
 10
24.931111
 20
16.551113
 30
0.0
 10
24.920152
 20
16.610015
 30
0.0
 10
24.909194
 20
16.671658
 30
0.0
 10
24.898235
 20
16.736047
 30
0.0
 10
24.898234
 20
16.804531
 30
0.0
 10
24.898234
 20
16.878502
 30
0.0
 10
24.898234
 20
16.957953
 30
0.0
 10
24.898235
 20
17.042891
 30
0.0
 10
24.881798
 20
17.168914
 30
0.0
 10
24.865362
 20
17.294940
 30
0.0
 10
24.848925
 20
17.420964
 30
0.0
 10
24.832488
 20
17.546990
 30
0.0
 10
24.822898
 20
17.600409
 30
0.0
 10
24.816049
 20
17.651091
 30
0.0
 10
24.811940
 20
17.699037
 30
0.0
 10
24.810557
 20
17.744247
 30
0.0
 10
24.810556
 20
17.794925
 30
0.0
 10
24.810556
 20
17.837386
 30
0.0
 10
24.810556
 20
17.871636
 30
0.0
 10
24.810557
 20
17.897657
 30
0.0
 10
24.788639
 20
18.062037
 30
0.0
 10
24.766722
 20
18.226418
 30
0.0
 10
24.744805
 20
18.390798
 30
0.0
 10
24.722887
 20
18.555178
 30
0.0
 10
24.717407
 20
18.604494
 30
0.0
 10
24.711929
 20
18.653806
 30
0.0
 10
24.706451
 20
18.703122
 30
0.0
 10
24.700970
 20
18.752438
 30
0.0
  0
LWPOLYLINE
  5
106
100
AcDbEntity
  8
Layer_1
 62
7
100
AcDbPolyline
 90
53
 70
0
 10
30.552914
 20
15.179902
 30
0.0
 10
30.457023
 20
16.025084
 30
0.0
 10
29.972098
 20
16.610004
 30
0.0
 10
29.098143
 20
16.934655
 30
0.0
 10
27.835157
 20
16.999044
 30
0.0
 10
27.785843
 20
16.988094
 30
0.0
 10
27.736529
 20
16.977144
 30
0.0
 10
27.687215
 20
16.966194
 30
0.0
 10
27.637901
 20
16.955244
 30
0.0
 10
27.602283
 20
16.857979
 30
0.0
 10
27.583106
 20
16.741539
 30
0.0
 10
27.580368
 20
16.605929
 30
0.0
 10
27.594067
 20
16.451144
 30
0.0
 10
27.583109
 20
16.396350
 30
0.0
 10
27.572150
 20
16.341557
 30
0.0
 10
27.561191
 20
16.286764
 30
0.0
 10
27.550232
 20
16.231970
 30
0.0
 10
27.550232
 20
16.155259
 30
0.0
 10
27.550232
 20
16.078548
 30
0.0
 10
27.550232
 20
16.001838
 30
0.0
 10
27.550232
 20
15.925127
 30
0.0
 10
27.539274
 20
15.848416
 30
0.0
 10
27.528315
 20
15.771705
 30
0.0
 10
27.517356
 20
15.694994
 30
0.0
 10
27.506398
 20
15.618284
 30
0.0
 10
27.506398
 20
15.585407
 30
0.0
 10
27.506398
 20
15.552531
 30
0.0
 10
27.506398
 20
15.519655
 30
0.0
 10
27.506398
 20
15.486779
 30
0.0
 10
27.500920
 20
15.459375
 30
0.0
 10
27.495439
 20
15.431972
 30
0.0
 10
27.489961
 20
15.404568
 30
0.0
 10
27.484483
 20
15.377164
 30
0.0
 10
27.484483
 20
15.278536
 30
0.0
 10
27.484483
 20
15.179908
 30
0.0
 10
27.484483
 20
15.081280
 30
0.0
 10
27.484483
 20
14.982651
 30
0.0
 10
27.473524
 20
14.949775
 30
0.0
 10
27.462566
 20
14.916899
 30
0.0
 10
27.451607
 20
14.884023
 30
0.0
 10
27.440648
 20
14.851147
 30
0.0
 10
27.440648
 20
14.779914
 30
0.0
 10
27.440648
 20
14.708684
 30
0.0
 10
27.440648
 20
14.637451
 30
0.0
 10
27.440648
 20
14.566218
 30
0.0
 10
27.429690
 20
14.533339
 30
0.0
 10
27.418731
 20
14.500461
 30
0.0
 10
27.407772
 20
14.467582
 30
0.0
 10
27.396814
 20
14.434703
 30
0.0
 10
28.473502
 20
14.292237
 30
0.0
 10
29.358415
 20
14.368945
 30
0.0
 10
30.051553
 20
14.664855
 30
0.0
 10
30.552918
 20
15.179908
 30
0.0
  0
LWPOLYLINE
  5
107
100
AcDbEntity
  8
Layer_1
 62
7
100
AcDbPolyline
 90
149
 70
0
 10
37.572611
 20
19.563589
 30
0.0
 10
37.715074
 20
19.558114
 30
0.0
 10
37.857537
 20
19.552639
 30
0.0
 10
38.000000
 20
19.547164
 30
0.0
 10
38.142463
 20
19.541689
 30
0.0
 10
39.364358
 20
19.530739
 30
0.0
 10
40.586254
 20
19.519788
 30
0.0
 10
41.808146
 20
19.508838
 30
0.0
 10
43.030041
 20
19.497888
 30
0.0
 10
43.030041
 20
19.306110
 30
0.0
 10
43.030041
 20
19.114334
 30
0.0
 10
43.030041
 20
18.922555
 30
0.0
 10
43.030041
 20
18.730780
 30
0.0
 10
43.019091
 20
18.659547
 30
0.0
 10
43.008141
 20
18.588314
 30
0.0
 10
42.997191
 20
18.517084
 30
0.0
 10
42.986240
 20
18.445851
 30
0.0
 10
42.986240
 20
17.941751
 30
0.0
 10
42.986240
 20
17.437652
 30
0.0
 10
42.986240
 20
16.933552
 30
0.0
 10
42.986240
 20
16.429452
 30
0.0
 10
42.995808
 20
16.362323
 30
0.0
 10
43.002666
 20
16.292462
 30
0.0
 10
43.006786
 20
16.219863
 30
0.0
 10
43.008197
 20
16.144526
 30
0.0
 10
43.017765
 20
16.066441
 30
0.0
 10
43.024623
 20
15.985618
 30
0.0
 10
43.028743
 20
15.902061
 30
0.0
 10
43.030154
 20
15.815766
 30
0.0
 10
43.041104
 20
15.574675
 30
0.0
 10
43.052055
 20
15.333583
 30
0.0
 10
43.063005
 20
15.092492
 30
0.0
 10
43.073955
 20
14.851401
 30
0.0
 10
43.093118
 20
14.823997
 30
0.0
 10
43.106806
 20
14.785640
 30
0.0
 10
43.115018
 20
14.736325
 30
0.0
 10
43.117841
 20
14.676071
 30
0.0
 10
43.128791
 20
14.495251
 30
0.0
 10
43.139741
 20
14.314431
 30
0.0
 10
43.150691
 20
14.133611
 30
0.0
 10
43.161641
 20
13.952791
 30
0.0
 10
43.178067
 20
13.714427
 30
0.0
 10
43.205471
 20
13.503465
 30
0.0
 10
43.243830
 20
13.319936
 30
0.0
 10
43.293151
 20
13.163783
 30
0.0
 10
43.304102
 20
13.026792
 30
0.0
 10
43.315052
 20
12.889801
 30
0.0
 10
43.326002
 20
12.752811
 30
0.0
 10
43.336952
 20
12.615848
 30
0.0
 10
43.378041
 20
12.466525
 30
0.0
 10
43.413655
 20
12.303513
 30
0.0
 10
43.443793
 20
12.126785
 30
0.0
 10
43.468459
 20
11.936398
 30
0.0
 10
43.490388
 20
11.870641
 30
0.0
 10
43.512317
 20
11.804883
 30
0.0
 10
43.534245
 20
11.739125
 30
0.0
 10
43.556174
 20
11.673395
 30
0.0
 10
43.561649
 20
11.546000
 30
0.0
 10
43.578074
 20
11.426818
 30
0.0
 10
43.605478
 20
11.315848
 30
0.0
 10
43.643838
 20
11.213119
 30
0.0
 10
43.758903
 20
10.813126
 30
0.0
 10
43.873970
 20
10.413132
 30
0.0
 10
43.989035
 20
10.013139
 30
0.0
 10
44.104103
 20
9.613145
 30
0.0
 10
44.145192
 20
9.529579
 30
0.0
 10
44.180805
 20
9.432325
 30
0.0
 10
44.210944
 20
9.321384
 30
0.0
 10
44.235610
 20
9.196726
 30
0.0
 10
44.394509
 20
8.873441
 30
0.0
 10
44.553412
 20
8.550155
 30
0.0
 10
44.712311
 20
8.226869
 30
0.0
 10
44.871214
 20
7.903584
 30
0.0
 10
44.915049
 20
7.837826
 30
0.0
 10
44.958883
 20
7.772068
 30
0.0
 10
45.002721
 20
7.706311
 30
0.0
 10
45.046556
 20
7.640581
 30
0.0
 10
45.079432
 20
7.602227
 30
0.0
 10
45.112308
 20
7.563873
 30
0.0
 10
45.145184
 20
7.525519
 30
0.0
 10
45.178060
 20
7.487165
 30
0.0
 10
45.199989
 20
7.465152
 30
0.0
 10
45.221917
 20
7.443138
 30
0.0
 10
45.243846
 20
7.421125
 30
0.0
 10
45.265775
 20
7.399112
 30
0.0
 10
45.309609
 20
7.333354
 30
0.0
 10
45.353444
 20
7.267596
 30
0.0
 10
45.397279
 20
7.201838
 30
0.0
 10
45.441114
 20
7.136081
 30
0.0
 10
45.490426
 20
7.070323
 30
0.0
 10
45.539742
 20
7.004565
 30
0.0
 10
45.589055
 20
6.938807
 30
0.0
 10
45.638370
 20
6.873078
 30
0.0
 10
44.926055
 20
6.873078
 30
0.0
 10
44.213738
 20
6.873078
 30
0.0
 10
43.501423
 20
6.873078
 30
0.0
 10
42.789108
 20
6.873078
 30
0.0
 10
42.734315
 20
7.042919
 30
0.0
 10
42.679521
 20
7.212789
 30
0.0
 10
42.624728
 20
7.382658
 30
0.0
 10
42.569934
 20
7.552528
 30
0.0
 10
42.548006
 20
7.596357
 30
0.0
 10
42.526077
 20
7.640186
 30
0.0
 10
42.504148
 20
7.684015
 30
0.0
 10
42.482220
 20
7.727872
 30
0.0
 10
42.416468
 20
7.919642
 30
0.0
 10
42.350715
 20
8.111412
 30
0.0
 10
42.284963
 20
8.303182
 30
0.0
 10
42.219211
 20
8.494981
 30
0.0
 10
42.197282
 20
8.571689
 30
0.0
 10
42.175354
 20
8.648397
 30
0.0
 10
42.153425
 20
8.725105
 30
0.0
 10
42.131496
 20
8.801813
 30
0.0
 10
42.120546
 20
8.845642
 30
0.0
 10
42.109596
 20
8.889471
 30
0.0
 10
42.098646
 20
8.933300
 30
0.0
 10
42.087696
 20
8.977157
 30
0.0
 10
42.049339
 20
9.092219
 30
0.0
 10
42.010985
 20
9.207281
 30
0.0
 10
41.972628
 20
9.322343
 30
0.0
 10
41.934274
 20
9.437433
 30
0.0
 10
41.901398
 20
9.536042
 30
0.0
 10
41.868522
 20
9.634679
 30
0.0
 10
41.835646
 20
9.733287
 30
0.0
 10
41.802770
 20
9.831924
 30
0.0
 10
41.791819
 20
9.875753
 30
0.0
 10
41.780869
 20
9.919582
 30
0.0
 10
41.769919
 20
9.963411
 30
0.0
 10
41.758969
 20
10.007268
 30
0.0
 10
41.627465
 20
10.368908
 30
0.0
 10
41.495960
 20
10.730547
 30
0.0
 10
41.364456
 20
11.092187
 30
0.0
 10
41.232952
 20
11.453827
 30
0.0
 10
40.915150
 20
11.453827
 30
0.0
 10
40.597345
 20
11.453827
 30
0.0
 10
40.279543
 20
11.453827
 30
0.0
 10
39.961741
 20
11.453827
 30
0.0
 10
39.413804
 20
10.531891
 30
0.0
 10
39.150795
 20
9.563417
 30
0.0
 10
39.172724
 20
8.548377
 30
0.0
 10
39.479570
 20
7.486770
 30
0.0
 10
38.323427
 20
7.486770
 30
0.0
 10
37.167284
 20
7.486770
 30
0.0
 10
36.011144
 20
7.486770
 30
0.0
 10
34.855000
 20
7.486770
 30
0.0
 10
36.561816
 20
11.422302
 30
0.0
 10
37.583714
 20
14.746880
 30
0.0
 10
37.920693
 20
17.460540
 30
0.0
 10
37.572758
 20
19.563245
 30
0.0
  0
LWPOLYLINE
  5
108
100
AcDbEntity
  8
Layer_1
 62
7
100
AcDbPolyline
 90
37
 70
0
 10
40.202843
 20
15.946875
 30
0.0
 10
40.186390
 20
15.990710
 30
0.0
 10
40.169965
 20
16.034544
 30
0.0
 10
40.153511
 20
16.078379
 30
0.0
 10
40.137086
 20
16.122214
 30
0.0
 10
40.049416
 20
15.842766
 30
0.0
 10
39.961747
 20
15.563321
 30
0.0
 10
39.874077
 20
15.283873
 30
0.0
 10
39.786408
 20
15.004428
 30
0.0
 10
39.763124
 20
14.923602
 30
0.0
 10
39.737103
 20
14.834561
 30
0.0
 10
39.708339
 20
14.737313
 30
0.0
 10
39.676835
 20
14.631846
 30
0.0
 10
39.639847
 20
14.519494
 30
0.0
 10
39.594640
 20
14.401694
 30
0.0
 10
39.541219
 20
14.278419
 30
0.0
 10
39.479578
 20
14.149670
 30
0.0
 10
39.780944
 20
14.149670
 30
0.0
 10
40.082306
 20
14.149670
 30
0.0
 10
40.383672
 20
14.149670
 30
0.0
 10
40.685034
 20
14.149670
 30
0.0
 10
40.717910
 20
14.160676
 30
0.0
 10
40.750786
 20
14.171683
 30
0.0
 10
40.783662
 20
14.182690
 30
0.0
 10
40.816538
 20
14.193696
 30
0.0
 10
40.712430
 20
14.395034
 30
0.0
 10
40.619279
 20
14.626541
 30
0.0
 10
40.537088
 20
14.888183
 30
0.0
 10
40.465860
 20
15.179964
 30
0.0
 10
40.427504
 20
15.253929
 30
0.0
 10
40.400100
 20
15.322419
 30
0.0
 10
40.383674
 20
15.385433
 30
0.0
 10
40.378199
 20
15.442973
 30
0.0
 10
40.334365
 20
15.568996
 30
0.0
 10
40.290530
 20
15.695023
 30
0.0
 10
40.246695
 20
15.821046
 30
0.0
 10
40.202860
 20
15.947072
 30
0.0
  0
LWPOLYLINE
  5
109
100
AcDbEntity
  8
Layer_1
 62
7
100
AcDbPolyline
 90
441
 70
0
 10
47.716257
 20
18.489635
 30
0.0
 10
47.710781
 20
18.538951
 30
0.0
 10
47.705306
 20
18.588263
 30
0.0
 10
47.699831
 20
18.637579
 30
0.0
 10
47.694356
 20
18.686894
 30
0.0
 10
48.965564
 20
18.686894
 30
0.0
 10
50.236775
 20
18.686894
 30
0.0
 10
51.507983
 20
18.686894
 30
0.0
 10
52.779191
 20
18.686894
 30
0.0
 10
52.680562
 20
18.506074
 30
0.0
 10
52.581934
 20
18.325255
 30
0.0
 10
52.483306
 20
18.144438
 30
0.0
 10
52.384678
 20
17.963618
 30
0.0
 10
52.365487
 20
17.892379
 30
0.0
 10
52.329870
 20
17.810188
 30
0.0
 10
52.277817
 20
17.717040
 30
0.0
 10
52.209330
 20
17.612940
 30
0.0
 10
52.154537
 20
17.475958
 30
0.0
 10
52.099743
 20
17.338973
 30
0.0
 10
52.044950
 20
17.201988
 30
0.0
 10
51.990157
 20
17.065005
 30
0.0
 10
51.961387
 20
16.963631
 30
0.0
 10
51.918921
 20
16.856782
 30
0.0
 10
51.862759
 20
16.744457
 30
0.0
 10
51.792900
 20
16.626658
 30
0.0
 10
51.760024
 20
16.511590
 30
0.0
 10
51.727148
 20
16.396525
 30
0.0
 10
51.694272
 20
16.281461
 30
0.0
 10
51.661396
 20
16.166393
 30
0.0
 10
51.650446
 20
16.100641
 30
0.0
 10
51.639495
 20
16.034889
 30
0.0
 10
51.628545
 20
15.969137
 30
0.0
 10
51.617595
 20
15.903384
 30
0.0
 10
51.584719
 20
15.810237
 30
0.0
 10
51.551843
 20
15.717087
 30
0.0
 10
51.518967
 20
15.623939
 30
0.0
 10
51.486091
 20
15.530789
 30
0.0
 10
51.476495
 20
15.375993
 30
0.0
 10
51.447728
 20
15.218459
 30
0.0
 10
51.399784
 20
15.058188
 30
0.0
 10
51.332666
 20
14.895185
 30
0.0
 10
51.332666
 20
14.867781
 30
0.0
 10
51.332666
 20
14.840377
 30
0.0
 10
51.332666
 20
14.812974
 30
0.0
 10
51.332666
 20
14.785570
 30
0.0
 10
51.392940
 20
14.752688
 30
0.0
 10
51.453212
 20
14.719809
 30
0.0
 10
51.513486
 20
14.686930
 30
0.0
 10
51.573757
 20
14.654052
 30
0.0
 10
52.349081
 20
14.356787
 30
0.0
 10
53.075092
 20
13.947226
 30
0.0
 10
53.751793
 20
13.425312
 30
0.0
 10
54.379182
 20
12.791074
 30
0.0
 10
54.379182
 20
13.366413
 30
0.0
 10
54.379182
 20
13.941751
 30
0.0
 10
54.379182
 20
14.517089
 30
0.0
 10
54.379182
 20
15.092413
 30
0.0
 10
54.368232
 20
15.136248
 30
0.0
 10
54.357281
 20
15.180083
 30
0.0
 10
54.346331
 20
15.223917
 30
0.0
 10
54.335381
 20
15.267752
 30
0.0
 10
54.335381
 20
15.437613
 30
0.0
 10
54.335381
 20
15.607472
 30
0.0
 10
54.335381
 20
15.777333
 30
0.0
 10
54.335381
 20
15.947191
 30
0.0
 10
54.297021
 20
16.080058
 30
0.0
 10
54.269617
 20
16.237589
 30
0.0
 10
54.253192
 20
16.419778
 30
0.0
 10
54.247717
 20
16.626630
 30
0.0
 10
54.206617
 20
16.769087
 30
0.0
 10
54.171001
 20
16.933464
 30
0.0
 10
54.140865
 20
17.119765
 30
0.0
 10
54.116227
 20
17.327986
 30
0.0
 10
54.105277
 20
17.349914
 30
0.0
 10
54.094326
 20
17.371843
 30
0.0
 10
54.083376
 20
17.393772
 30
0.0
 10
54.072426
 20
17.415700
 30
0.0
 10
54.060093
 20
17.492406
 30
0.0
 10
54.045022
 20
17.569114
 30
0.0
 10
54.027214
 20
17.645827
 30
0.0
 10
54.006668
 20
17.722544
 30
0.0
 10
53.983385
 20
17.800618
 30
0.0
 10
53.957364
 20
17.881435
 30
0.0
 10
53.928597
 20
17.964998
 30
0.0
 10
53.897095
 20
18.051304
 30
0.0
 10
53.877904
 20
18.141706
 30
0.0
 10
53.842288
 20
18.259511
 30
0.0
 10
53.790235
 20
18.404717
 30
0.0
 10
53.721748
 20
18.577324
 30
0.0
 10
55.108023
 20
18.577324
 30
0.0
 10
56.494299
 20
18.577324
 30
0.0
 10
57.880575
 20
18.577324
 30
0.0
 10
59.266850
 20
18.577324
 30
0.0
 10
59.175063
 20
18.499236
 30
0.0
 10
59.075063
 20
18.396496
 30
0.0
 10
58.966848
 20
18.269101
 30
0.0
 10
58.850417
 20
18.117057
 30
0.0
 10
58.836701
 20
18.104723
 30
0.0
 10
58.817510
 20
18.089653
 30
0.0
 10
58.792844
 20
18.071845
 30
0.0
 10
58.762714
 20
18.051299
 30
0.0
 10
58.738048
 20
18.025278
 30
0.0
 10
58.707909
 20
17.991030
 30
0.0
 10
58.672295
 20
17.948567
 30
0.0
 10
58.631207
 20
17.897888
 30
0.0
 10
58.598331
 20
17.854054
 30
0.0
 10
58.565455
 20
17.810219
 30
0.0
 10
58.532578
 20
17.766384
 30
0.0
 10
58.499702
 20
17.722549
 30
0.0
 10
58.390115
 20
17.558169
 30
0.0
 10
58.280529
 20
17.393789
 30
0.0
 10
58.170942
 20
17.229408
 30
0.0
 10
58.061355
 20
17.065028
 30
0.0
 10
58.028479
 20
16.993798
 30
0.0
 10
57.995603
 20
16.922565
 30
0.0
 10
57.962727
 20
16.851335
 30
0.0
 10
57.929851
 20
16.780102
 30
0.0
 10
57.891497
 20
16.697913
 30
0.0
 10
57.853140
 20
16.615722
 30
0.0
 10
57.814786
 20
16.533533
 30
0.0
 10
57.776429
 20
16.451341
 30
0.0
 10
57.754500
 20
16.391070
 30
0.0
 10
57.732572
 20
16.330796
 30
0.0
 10
57.710643
 20
16.270524
 30
0.0
 10
57.688714
 20
16.210250
 30
0.0
 10
57.688714
 20
16.182847
 30
0.0
 10
57.688714
 20
16.155443
 30
0.0
 10
57.688714
 20
16.128039
 30
0.0
 10
57.688714
 20
16.100635
 30
0.0
 10
57.666786
 20
16.051322
 30
0.0
 10
57.644857
 20
16.002007
 30
0.0
 10
57.622928
 20
15.952694
 30
0.0
 10
57.601000
 20
15.903379
 30
0.0
 10
57.590049
 20
15.843107
 30
0.0
 10
57.579099
 20
15.782833
 30
0.0
 10
57.568149
 20
15.722562
 30
0.0
 10
57.557199
 20
15.662288
 30
0.0
 10
57.535270
 20
15.486949
 30
0.0
 10
57.513341
 20
15.311610
 30
0.0
 10
57.491413
 20
15.136271
 30
0.0
 10
57.469484
 20
14.960932
 30
0.0
 10
57.448938
 20
14.854079
 30
0.0
 10
57.431130
 20
14.752711
 30
0.0
 10
57.416059
 20
14.656812
 30
0.0
 10
57.403726
 20
14.566416
 30
0.0
 10
57.391393
 20
14.489708
 30
0.0
 10
57.376322
 20
14.413000
 30
0.0
 10
57.358514
 20
14.336292
 30
0.0
 10
57.337968
 20
14.259584
 30
0.0
 10
57.316040
 20
13.371939
 30
0.0
 10
57.294111
 20
12.484265
 30
0.0
 10
57.272182
 20
11.596620
 30
0.0
 10
57.250254
 20
10.708946
 30
0.0
 10
57.269417
 20
10.591147
 30
0.0
 10
57.283104
 20
10.456893
 30
0.0
 10
57.291317
 20
10.306215
 30
0.0
 10
57.294139
 20
10.139111
 30
0.0
 10
57.542074
 20
7.007658
 30
0.0
 10
58.044802
 20
4.889891
 30
0.0
 10
58.802324
 20
3.785781
 30
0.0
 10
59.814641
 20
3.695385
 30
0.0
 10
59.985862
 20
3.761143
 30
0.0
 10
60.148868
 20
3.848801
 30
0.0
 10
60.303664
 20
3.958388
 30
0.0
 10
60.450245
 20
4.089904
 30
0.0
 10
60.488593
 20
4.180299
 30
0.0
 10
60.515997
 20
4.276199
 30
0.0
 10
60.532450
 20
4.377573
 30
0.0
 10
60.537925
 20
4.484422
 30
0.0
 10
59.861219
 20
4.451543
 30
0.0
 10
59.321500
 20
4.594009
 30
0.0
 10
58.918769
 20
4.911791
 30
0.0
 10
58.653028
 20
5.404946
 30
0.0
 10
58.874934
 20
5.972072
 30
0.0
 10
59.255747
 20
6.424107
 30
0.0
 10
59.795466
 20
6.761081
 30
0.0
 10
60.494091
 20
6.982992
 30
0.0
 10
61.392695
 20
6.913142
 30
0.0
 10
62.115965
 20
6.593977
 30
0.0
 10
62.663903
 20
6.025497
 30
0.0
 10
63.036509
 20
5.207701
 30
0.0
 10
63.047459
 20
3.952941
 30
0.0
 10
62.663903
 20
2.906377
 30
0.0
 10
61.885838
 20
2.068035
 30
0.0
 10
60.713267
 20
1.437890
 30
0.0
 10
59.598213
 20
1.139270
 30
0.0
 10
58.532477
 20
1.120079
 30
0.0
 10
57.516062
 20
1.380345
 30
0.0
 10
56.548963
 20
1.920066
 30
0.0
 10
55.738014
 20
2.900873
 30
0.0
 10
55.124325
 20
4.506294
 30
0.0
 10
54.707897
 20
6.736414
 30
0.0
 10
54.488726
 20
9.591149
 30
0.0
 10
54.412013
 20
9.651403
 30
0.0
 10
54.335299
 20
9.722636
 30
0.0
 10
54.258591
 20
9.804819
 30
0.0
 10
54.181883
 20
9.897981
 30
0.0
 10
54.103798
 20
9.999355
 30
0.0
 10
54.022978
 20
10.106204
 30
0.0
 10
53.939417
 20
10.218529
 30
0.0
 10
53.853122
 20
10.336328
 30
0.0
 10
53.803810
 20
10.396611
 30
0.0
 10
53.754494
 20
10.456865
 30
0.0
 10
53.705181
 20
10.517148
 30
0.0
 10
53.655866
 20
10.577431
 30
0.0
 10
53.628462
 20
10.621260
 30
0.0
 10
53.601058
 20
10.665089
 30
0.0
 10
53.573655
 20
10.708946
 30
0.0
 10
53.546251
 20
10.752775
 30
0.0
 10
53.491457
 20
10.818533
 30
0.0
 10
53.436664
 20
10.884291
 30
0.0
 10
53.381870
 20
10.950020
 30
0.0
 10
53.327077
 20
11.015778
 30
0.0
 10
53.288723
 20
11.065082
 30
0.0
 10
53.250366
 20
11.114387
 30
0.0
 10
53.212012
 20
11.163719
 30
0.0
 10
53.173655
 20
11.213023
 30
0.0
 10
53.042151
 20
11.355489
 30
0.0
 10
52.910647
 20
11.497955
 30
0.0
 10
52.779143
 20
11.640421
 30
0.0
 10
52.647638
 20
11.782886
 30
0.0
 10
52.614762
 20
11.821240
 30
0.0
 10
52.581886
 20
11.859594
 30
0.0
 10
52.549010
 20
11.897948
 30
0.0
 10
52.516134
 20
11.936302
 30
0.0
 10
52.439423
 20
11.996585
 30
0.0
 10
52.362712
 20
12.056839
 30
0.0
 10
52.286002
 20
12.117122
 30
0.0
 10
52.209291
 20
12.177405
 30
0.0
 10
52.062713
 20
12.252730
 30
0.0
 10
51.907923
 20
12.325317
 30
0.0
 10
51.744914
 20
12.395196
 30
0.0
 10
51.573687
 20
12.462308
 30
0.0
 10
51.496976
 20
12.495187
 30
0.0
 10
51.420265
 20
12.528066
 30
0.0
 10
51.343552
 20
12.560945
 30
0.0
 10
51.266841
 20
12.593824
 30
0.0
 10
51.244912
 20
12.599186
 30
0.0
 10
51.222983
 20
12.604548
 30
0.0
 10
51.201055
 20
12.609910
 30
0.0
 10
51.179126
 20
12.615273
 30
0.0
 10
51.162672
 20
12.405666
 30
0.0
 10
51.157197
 20
12.171422
 30
0.0
 10
51.162672
 20
11.912539
 30
0.0
 10
51.179126
 20
11.628991
 30
0.0
 10
51.190076
 20
11.426242
 30
0.0
 10
51.201026
 20
11.223494
 30
0.0
 10
51.211977
 20
11.020773
 30
0.0
 10
51.222927
 20
10.818025
 30
0.0
 10
51.233877
 20
10.801656
 30
0.0
 10
51.244827
 20
10.785287
 30
0.0
 10
51.255778
 20
10.768918
 30
0.0
 10
51.266728
 20
10.752549
 30
0.0
 10
51.266728
 20
10.681317
 30
0.0
 10
51.266728
 20
10.610084
 30
0.0
 10
51.266728
 20
10.538851
 30
0.0
 10
51.266728
 20
10.467618
 30
0.0
 10
51.277678
 20
10.385435
 30
0.0
 10
51.288628
 20
10.303223
 30
0.0
 10
51.299578
 20
10.221040
 30
0.0
 10
51.310529
 20
10.138857
 30
0.0
 10
51.316004
 20
10.089525
 30
0.0
 10
51.321479
 20
10.040221
 30
0.0
 10
51.326954
 20
9.990916
 30
0.0
 10
51.332429
 20
9.941584
 30
0.0
 10
51.361193
 20
9.849805
 30
0.0
 10
51.381739
 20
9.771743
 30
0.0
 10
51.394072
 20
9.707339
 30
0.0
 10
51.398193
 20
9.656681
 30
0.0
 10
51.406405
 20
9.521073
 30
0.0
 10
51.431071
 20
9.377224
 30
0.0
 10
51.472169
 20
9.225163
 30
0.0
 10
51.529705
 20
9.064889
 30
0.0
 10
51.529705
 20
9.032010
 30
0.0
 10
51.529705
 20
8.999159
 30
0.0
 10
51.529705
 20
8.966280
 30
0.0
 10
51.529705
 20
8.933401
 30
0.0
 10
51.551634
 20
8.867644
 30
0.0
 10
51.573563
 20
8.801886
 30
0.0
 10
51.595491
 20
8.736128
 30
0.0
 10
51.617420
 20
8.670370
 30
0.0
 10
51.617420
 20
8.626541
 30
0.0
 10
51.617420
 20
8.582712
 30
0.0
 10
51.617420
 20
8.538883
 30
0.0
 10
51.617420
 20
8.495054
 30
0.0
 10
51.683172
 20
8.275880
 30
0.0
 10
51.748924
 20
8.056706
 30
0.0
 10
51.814676
 20
7.837533
 30
0.0
 10
51.880429
 20
7.618359
 30
0.0
 10
51.891379
 20
7.558076
 30
0.0
 10
51.902329
 20
7.497793
 30
0.0
 10
51.913279
 20
7.437539
 30
0.0
 10
51.924229
 20
7.377256
 30
0.0
 10
52.017377
 20
7.119729
 30
0.0
 10
52.110527
 20
6.862201
 30
0.0
 10
52.203675
 20
6.604673
 30
0.0
 10
52.296825
 20
6.347145
 30
0.0
 10
51.102328
 20
6.347145
 30
0.0
 10
49.907828
 20
6.347145
 30
0.0
 10
48.713331
 20
6.347145
 30
0.0
 10
47.518834
 20
6.347145
 30
0.0
 10
47.551710
 20
6.495086
 30
0.0
 10
47.584586
 20
6.643027
 30
0.0
 10
47.617462
 20
6.790968
 30
0.0
 10
47.650338
 20
6.938909
 30
0.0
 10
47.650338
 20
6.971788
 30
0.0
 10
47.650338
 20
7.004667
 30
0.0
 10
47.650338
 20
7.037545
 30
0.0
 10
47.650338
 20
7.070424
 30
0.0
 10
47.683214
 20
7.180011
 30
0.0
 10
47.716090
 20
7.289598
 30
0.0
 10
47.748966
 20
7.399185
 30
0.0
 10
47.781842
 20
7.508772
 30
0.0
 10
47.791438
 20
7.560814
 30
0.0
 10
47.798296
 20
7.607380
 30
0.0
 10
47.802416
 20
7.648472
 30
0.0
 10
47.803827
 20
7.684088
 30
0.0
 10
47.813423
 20
7.726563
 30
0.0
 10
47.820281
 20
7.766271
 30
0.0
 10
47.824401
 20
7.803271
 30
0.0
 10
47.825812
 20
7.837533
 30
0.0
 10
47.847741
 20
7.974523
 30
0.0
 10
47.869670
 20
8.111486
 30
0.0
 10
47.891598
 20
8.248476
 30
0.0
 10
47.913527
 20
8.385467
 30
0.0
 10
47.924477
 20
8.412843
 30
0.0
 10
47.935428
 20
8.440218
 30
0.0
 10
47.946378
 20
8.467594
 30
0.0
 10
47.957328
 20
8.494969
 30
0.0
 10
47.957325
 20
8.551131
 30
0.0
 10
47.957325
 20
8.610031
 30
0.0
 10
47.957325
 20
8.671669
 30
0.0
 10
47.957328
 20
8.736043
 30
0.0
 10
47.968278
 20
8.814134
 30
0.0
 10
47.979228
 20
8.894935
 30
0.0
 10
47.990179
 20
8.978501
 30
0.0
 10
48.001129
 20
9.064804
 30
0.0
 10
48.012079
 20
9.103158
 30
0.0
 10
48.023029
 20
9.141512
 30
0.0
 10
48.033980
 20
9.179894
 30
0.0
 10
48.044930
 20
9.218248
 30
0.0
 10
48.054525
 20
9.274411
 30
0.0
 10
48.061383
 20
9.333310
 30
0.0
 10
48.065504
 20
9.394948
 30
0.0
 10
48.066915
 20
9.459323
 30
0.0
 10
48.076510
 20
9.537413
 30
0.0
 10
48.083368
 20
9.618214
 30
0.0
 10
48.087489
 20
9.701780
 30
0.0
 10
48.088900
 20
9.788083
 30
0.0
 10
48.099850
 20
9.826437
 30
0.0
 10
48.110800
 20
9.864791
 30
0.0
 10
48.121751
 20
9.903145
 30
0.0
 10
48.132701
 20
9.941499
 30
0.0
 10
48.132698
 20
9.997661
 30
0.0
 10
48.132698
 20
10.056561
 30
0.0
 10
48.132698
 20
10.118199
 30
0.0
 10
48.132701
 20
10.182602
 30
0.0
 10
48.143651
 20
10.259310
 30
0.0
 10
48.154601
 20
10.336018
 30
0.0
 10
48.165552
 20
10.412726
 30
0.0
 10
48.176502
 20
10.489434
 30
0.0
 10
48.176502
 20
10.544213
 30
0.0
 10
48.176502
 20
10.599021
 30
0.0
 10
48.176502
 20
10.653800
 30
0.0
 10
48.176502
 20
10.708607
 30
0.0
 10
48.187452
 20
10.807244
 30
0.0
 10
48.198402
 20
10.905853
 30
0.0
 10
48.209352
 20
11.004489
 30
0.0
 10
48.220303
 20
11.103126
 30
0.0
 10
48.220300
 20
11.179834
 30
0.0
 10
48.220300
 20
11.256542
 30
0.0
 10
48.220300
 20
11.333250
 30
0.0
 10
48.220303
 20
11.409986
 30
0.0
 10
48.231253
 20
11.500382
 30
0.0
 10
48.242203
 20
11.596253
 30
0.0
 10
48.253153
 20
11.697627
 30
0.0
 10
48.264104
 20
11.804476
 30
0.0
 10
48.264104
 20
11.968843
 30
0.0
 10
48.264104
 20
12.133237
 30
0.0
 10
48.264104
 20
12.297603
 30
0.0
 10
48.264104
 20
12.461998
 30
0.0
 10
48.253153
 20
12.571585
 30
0.0
 10
48.242203
 20
12.681171
 30
0.0
 10
48.231253
 20
12.790758
 30
0.0
 10
48.220303
 20
12.900345
 30
0.0
 10
48.120303
 20
12.875792
 30
0.0
 10
48.017565
 20
12.845679
 30
0.0
 10
47.912088
 20
12.810062
 30
0.0
 10
47.803872
 20
12.768971
 30
0.0
 10
47.702504
 20
12.733354
 30
0.0
 10
47.595655
 20
12.692235
 30
0.0
 10
47.483327
 20
12.645668
 30
0.0
 10
47.365522
 20
12.593626
 30
0.0
 10
47.729899
 20
12.075833
 30
0.0
 10
47.836746
 20
11.552537
 30
0.0
 10
47.686064
 20
11.023793
 30
0.0
 10
47.277853
 20
10.489547
 30
0.0
 10
46.502526
 20
10.456668
 30
0.0
 10
45.951851
 20
10.708720
 30
0.0
 10
45.625831
 20
11.245705
 30
0.0
 10
45.524462
 20
12.067620
 30
0.0
 10
45.734049
 20
13.093611
 30
0.0
 10
46.253217
 20
13.914144
 30
0.0
 10
47.081968
 20
14.529191
 30
0.0
 10
48.220303
 20
14.938788
 30
0.0
 10
48.198374
 20
15.196316
 30
0.0
 10
48.176445
 20
15.453847
 30
0.0
 10
48.154517
 20
15.711375
 30
0.0
 10
48.132588
 20
15.968905
 30
0.0
 10
48.121638
 20
16.012740
 30
0.0
 10
48.110688
 20
16.056575
 30
0.0
 10
48.099737
 20
16.100409
 30
0.0
 10
48.088787
 20
16.144244
 30
0.0
 10
48.088787
 20
16.220955
 30
0.0
 10
48.088787
 20
16.297666
 30
0.0
 10
48.088787
 20
16.374377
 30
0.0
 10
48.088787
 20
16.451087
 30
0.0
 10
48.066858
 20
16.549716
 30
0.0
 10
48.044930
 20
16.648344
 30
0.0
 10
48.023001
 20
16.746972
 30
0.0
 10
48.001072
 20
16.845600
 30
0.0
 10
47.998250
 20
16.940114
 30
0.0
 10
47.990038
 20
17.026409
 30
0.0
 10
47.976350
 20
17.104494
 30
0.0
 10
47.957187
 20
17.174361
 30
0.0
 10
47.935258
 20
17.344219
 30
0.0
 10
47.913330
 20
17.514080
 30
0.0
 10
47.891401
 20
17.683939
 30
0.0
 10
47.869472
 20
17.853800
 30
0.0
 10
47.858522
 20
17.914071
 30
0.0
 10
47.847572
 20
17.974345
 30
0.0
 10
47.836622
 20
18.034617
 30
0.0
 10
47.825671
 20
18.094891
 30
0.0
 10
47.814721
 20
18.144203
 30
0.0
 10
47.803771
 20
18.193519
 30
0.0
 10
47.792821
 20
18.242832
 30
0.0
 10
47.781870
 20
18.292147
 30
0.0
 10
47.765445
 20
18.341460
 30
0.0
 10
47.749020
 20
18.390775
 30
0.0
 10
47.732594
 20
18.440088
 30
0.0
 10
47.716169
 20
18.489404
 30
0.0
  0
ENDSEC
  0
SECTION
  2
OBJECTS
  0
DICTIONARY
  5
C
330
0
100
AcDbDictionary
  3
ACAD_GROUP
350
D
  3
ACAD_MLINESTYLE
350
17
  0
DICTIONARY
  5
D
330
C
100
AcDbDictionary
  0
DICTIONARY
  5
1A
330
C
100
AcDbDictionary
  0
DICTIONARY
  5
17
330
C
100
AcDbDictionary
  3
STANDARD
350
18
  0
DICTIONARY
  5
19
330
C
100
AcDbDictionary
  0
ENDSEC
  0
EOF
