  0
SECTION
  2
HEADER
  9
$ACADVER
  1
AC1009
  9
$EXTMIN
 10
0.0
 20
0.0
 30
0.0
  9
$EXTMAX
 10
1000.0
 20
1000.0
 30
0.0
  9
$FILLMODE
 70
 0
  9
$SPLFRAME
 70
 1
  0
ENDSEC
  0
SECTION
  2
TABLES
  0
TABLE
  2
LAYER
 70
1
  0
LAYER
  2
0
 70
     0
 62
     7
  6
CONTINUOUS
  0
ENDTAB
  0
ENDSEC
  0
SECTION
  2
ENTITIES
  0
LINE
  8
0
 62
     0
 10
4.62164
 20
-0
 30
0.0
 11
0.0777453
 21
-0
 31
0.0
  0
LINE
  8
0
 62
     0
 10
0.0777453
 20
-0
 30
0.0
 11
0.0782878
 21
0.0827908
 31
0.0
  0
LINE
  8
0
 62
     0
 10
0.0782878
 20
0.0827908
 30
0.0
 11
0.108073
 21
0.136339
 31
0.0
  0
LINE
  8
0
 62
     0
 10
0.108073
 20
0.136339
 30
0.0
 11
0.161079
 21
0.166667
 31
0.0
  0
LINE
  8
0
 62
     0
 10
0.161079
 20
0.166667
 30
0.0
 11
0.231392
 21
0.179688
 31
0.0
  0
LINE
  8
0
 62
     0
 10
0.231392
 20
0.179688
 30
0.0
 11
0.313043
 21
0.181369
 31
0.0
  0
LINE
  8
0
 62
     0
 10
0.313043
 20
0.181369
 30
0.0
 11
0.400119
 21
0.177626
 31
0.0
  0
LINE
  8
0
 62
     0
 10
0.400119
 20
0.177626
 30
0.0
 11
0.4866
 21
0.174479
 31
0.0
  0
LINE
  8
0
 62
     0
 10
0.4866
 20
0.174479
 30
0.0
 11
0.566624
 21
0.177789
 31
0.0
  0
LINE
  8
0
 62
     0
 10
0.566624
 20
0.177789
 30
0.0
 11
0.528211
 21
0.247288
 31
0.0
  0
LINE
  8
0
 62
     0
 10
0.528211
 20
0.247288
 30
0.0
 11
0.483182
 21
0.311035
 31
0.0
  0
LINE
  8
0
 62
     0
 10
0.483182
 20
0.311035
 30
0.0
 11
0.440972
 21
0.377604
 31
0.0
  0
LINE
  8
0
 62
     0
 10
0.440972
 20
0.377604
 30
0.0
 11
0.411079
 21
0.455513
 31
0.0
  0
LINE
  8
0
 62
     0
 10
0.411079
 20
0.455513
 30
0.0
 11
0.392036
 21
0.656793
 31
0.0
  0
LINE
  8
0
 62
     0
 10
0.392036
 20
0.656793
 30
0.0
 11
0.416775
 21
0.851346
 31
0.0
  0
LINE
  8
0
 62
     0
 10
0.416775
 20
0.851346
 30
0.0
 11
0.463704
 21
1.0313
 31
0.0
  0
LINE
  8
0
 62
     0
 10
0.463704
 20
1.0313
 30
0.0
 11
0.511068
 21
1.18875
 31
0.0
  0
LINE
  8
0
 62
     0
 10
0.511068
 20
1.18875
 30
0.0
 11
0.536187
 21
1.26969
 31
0.0
  0
LINE
  8
0
 62
     0
 10
0.536187
 20
1.26969
 30
0.0
 11
0.567165
 21
1.36773
 31
0.0
  0
LINE
  8
0
 62
     0
 10
0.567165
 20
1.36773
 30
0.0
 11
0.592285
 21
1.4624
 31
0.0
  0
LINE
  8
0
 62
     0
 10
0.592285
 20
1.4624
 30
0.0
 11
0.599935
 21
1.53315
 31
0.0
  0
LINE
  8
0
 62
     0
 10
0.599935
 20
1.53315
 30
0.0
 11
0.576714
 21
1.60232
 31
0.0
  0
LINE
  8
0
 62
     0
 10
0.576714
 20
1.60232
 30
0.0
 11
0.531847
 21
1.66868
 31
0.0
  0
LINE
  8
0
 62
     0
 10
0.531847
 20
1.66868
 30
0.0
 11
0.48215
 21
1.73112
 31
0.0
  0
LINE
  8
0
 62
     0
 10
0.48215
 20
1.73112
 30
0.0
 11
0.44439
 21
1.78868
 31
0.0
  0
LINE
  8
0
 62
     0
 10
0.44439
 20
1.78868
 30
0.0
 11
0.416124
 21
1.86019
 31
0.0
  0
LINE
  8
0
 62
     0
 10
0.416124
 20
1.86019
 30
0.0
 11
0.3935
 21
1.92899
 31
0.0
  0
LINE
  8
0
 62
     0
 10
0.3935
 20
1.92899
 30
0.0
 11
0.365776
 21
1.99425
 31
0.0
  0
LINE
  8
0
 62
     0
 10
0.365776
 20
1.99425
 30
0.0
 11
0.322211
 21
2.05533
 31
0.0
  0
LINE
  8
0
 62
     0
 10
0.322211
 20
2.05533
 30
0.0
 11
0.198187
 21
2.06743
 31
0.0
  0
LINE
  8
0
 62
     0
 10
0.198187
 20
2.06743
 30
0.0
 11
0.101834
 21
2.10721
 31
0.0
  0
LINE
  8
0
 62
     0
 10
0.101834
 20
2.10721
 30
0.0
 11
0.0351019
 21
2.17654
 31
0.0
  0
LINE
  8
0
 62
     0
 10
0.0351019
 20
2.17654
 30
0.0
 11
0
 21
2.2775
 31
0.0
  0
LINE
  8
0
 62
     0
 10
0
 20
2.2775
 30
0.0
 11
0.0534939
 21
2.30453
 31
0.0
  0
LINE
  8
0
 62
     0
 10
0.0534939
 20
2.30453
 30
0.0
 11
0.118056
 21
2.30757
 31
0.0
  0
LINE
  8
0
 62
     0
 10
0.118056
 20
2.30757
 30
0.0
 11
0.190267
 21
2.30117
 31
0.0
  0
LINE
  8
0
 62
     0
 10
0.190267
 20
2.30117
 30
0.0
 11
0.266656
 21
2.29975
 31
0.0
  0
LINE
  8
0
 62
     0
 10
0.266656
 20
2.29975
 30
0.0
 11
0.352647
 21
2.44413
 31
0.0
  0
LINE
  8
0
 62
     0
 10
0.352647
 20
2.44413
 30
0.0
 11
0.468207
 21
2.56287
 31
0.0
  0
LINE
  8
0
 62
     0
 10
0.468207
 20
2.56287
 30
0.0
 11
0.610732
 21
2.65842
 31
0.0
  0
LINE
  8
0
 62
     0
 10
0.610732
 20
2.65842
 30
0.0
 11
0.777669
 21
2.73301
 31
0.0
  0
LINE
  8
0
 62
     0
 10
0.777669
 20
2.73301
 30
0.0
 11
0.910428
 21
2.77761
 31
0.0
  0
LINE
  8
0
 62
     0
 10
0.910428
 20
2.77761
 30
0.0
 11
1.05192
 21
2.81521
 31
0.0
  0
LINE
  8
0
 62
     0
 10
1.05192
 20
2.81521
 30
0.0
 11
1.19515
 21
2.83951
 31
0.0
  0
LINE
  8
0
 62
     0
 10
1.19515
 20
2.83951
 30
0.0
 11
1.33317
 21
2.84412
 31
0.0
  0
LINE
  8
0
 62
     0
 10
1.33317
 20
2.84412
 30
0.0
 11
1.48406
 21
2.81597
 31
0.0
  0
LINE
  8
0
 62
     0
 10
1.48406
 20
2.81597
 30
0.0
 11
1.63092
 21
2.76449
 31
0.0
  0
LINE
  8
0
 62
     0
 10
1.63092
 20
2.76449
 30
0.0
 11
1.77615
 21
2.71392
 31
0.0
  0
LINE
  8
0
 62
     0
 10
1.77615
 20
2.71392
 30
0.0
 11
1.92199
 21
2.68858
 31
0.0
  0
LINE
  8
0
 62
     0
 10
1.92199
 20
2.68858
 30
0.0
 11
2.03131
 21
2.69726
 31
0.0
  0
LINE
  8
0
 62
     0
 10
2.03131
 20
2.69726
 30
0.0
 11
2.14171
 21
2.72254
 31
0.0
  0
LINE
  8
0
 62
     0
 10
2.14171
 20
2.72254
 30
0.0
 11
2.25336
 21
2.7531
 31
0.0
  0
LINE
  8
0
 62
     0
 10
2.25336
 20
2.7531
 30
0.0
 11
2.36637
 21
2.77746
 31
0.0
  0
LINE
  8
0
 62
     0
 10
2.36637
 20
2.77746
 30
0.0
 11
2.54574
 21
2.79389
 31
0.0
  0
LINE
  8
0
 62
     0
 10
2.54574
 20
2.79389
 30
0.0
 11
2.71143
 21
2.78831
 31
0.0
  0
LINE
  8
0
 62
     0
 10
2.71143
 20
2.78831
 30
0.0
 11
2.86464
 21
2.76454
 31
0.0
  0
LINE
  8
0
 62
     0
 10
2.86464
 20
2.76454
 30
0.0
 11
3.00667
 21
2.72661
 31
0.0
  0
LINE
  8
0
 62
     0
 10
3.00667
 20
2.72661
 30
0.0
 11
3.13878
 21
2.67839
 31
0.0
  0
LINE
  8
0
 62
     0
 10
3.13878
 20
2.67839
 30
0.0
 11
3.26232
 21
2.62375
 31
0.0
  0
LINE
  8
0
 62
     0
 10
3.26232
 20
2.62375
 30
0.0
 11
3.37842
 21
2.56657
 31
0.0
  0
LINE
  8
0
 62
     0
 10
3.37842
 20
2.56657
 30
0.0
 11
3.48844
 21
2.51079
 31
0.0
  0
LINE
  8
0
 62
     0
 10
3.48844
 20
2.51079
 30
0.0
 11
3.47043
 21
2.56825
 31
0.0
  0
LINE
  8
0
 62
     0
 10
3.47043
 20
2.56825
 30
0.0
 11
3.4381
 21
2.61544
 31
0.0
  0
LINE
  8
0
 62
     0
 10
3.4381
 20
2.61544
 30
0.0
 11
3.39382
 21
2.6544
 31
0.0
  0
LINE
  8
0
 62
     0
 10
3.39382
 20
2.6544
 30
0.0
 11
3.34
 21
2.68733
 31
0.0
  0
LINE
  8
0
 62
     0
 10
3.34
 20
2.68733
 30
0.0
 11
3.27903
 21
2.71619
 31
0.0
  0
LINE
  8
0
 62
     0
 10
3.27903
 20
2.71619
 30
0.0
 11
3.21332
 21
2.74317
 31
0.0
  0
LINE
  8
0
 62
     0
 10
3.21332
 20
2.74317
 30
0.0
 11
3.14535
 21
2.77035
 31
0.0
  0
LINE
  8
0
 62
     0
 10
3.14535
 20
2.77035
 30
0.0
 11
3.07742
 21
2.79969
 31
0.0
  0
LINE
  8
0
 62
     0
 10
3.07742
 20
2.79969
 30
0.0
 11
2.95036
 21
2.85965
 31
0.0
  0
LINE
  8
0
 62
     0
 10
2.95036
 20
2.85965
 30
0.0
 11
2.82579
 21
2.92811
 31
0.0
  0
LINE
  8
0
 62
     0
 10
2.82579
 20
2.92811
 30
0.0
 11
2.72424
 21
3.00732
 31
0.0
  0
LINE
  8
0
 62
     0
 10
2.72424
 20
3.00732
 30
0.0
 11
2.66635
 21
3.09967
 31
0.0
  0
LINE
  8
0
 62
     0
 10
2.66635
 20
3.09967
 30
0.0
 11
2.65701
 21
3.1741
 31
0.0
  0
LINE
  8
0
 62
     0
 10
2.65701
 20
3.1741
 30
0.0
 11
2.67025
 21
3.24875
 31
0.0
  0
LINE
  8
0
 62
     0
 10
2.67025
 20
3.24875
 30
0.0
 11
2.70654
 21
3.31
 31
0.0
  0
LINE
  8
0
 62
     0
 10
2.70654
 20
3.31
 30
0.0
 11
2.76633
 21
3.34407
 31
0.0
  0
LINE
  8
0
 62
     0
 10
2.76633
 20
3.34407
 30
0.0
 11
2.86757
 21
3.32878
 31
0.0
  0
LINE
  8
0
 62
     0
 10
2.86757
 20
3.32878
 30
0.0
 11
2.96604
 21
3.26606
 31
0.0
  0
LINE
  8
0
 62
     0
 10
2.96604
 20
3.26606
 30
0.0
 11
3.06743
 21
3.20074
 31
0.0
  0
LINE
  8
0
 62
     0
 10
3.06743
 20
3.20074
 30
0.0
 11
3.17736
 21
3.1774
 31
0.0
  0
LINE
  8
0
 62
     0
 10
3.17736
 20
3.1774
 30
0.0
 11
3.19937
 21
3.22342
 31
0.0
  0
LINE
  8
0
 62
     0
 10
3.19937
 20
3.22342
 30
0.0
 11
3.21175
 21
3.27914
 31
0.0
  0
LINE
  8
0
 62
     0
 10
3.21175
 20
3.27914
 30
0.0
 11
3.21847
 21
3.34044
 31
0.0
  0
LINE
  8
0
 62
     0
 10
3.21847
 20
3.34044
 30
0.0
 11
3.22364
 21
3.40332
 31
0.0
  0
LINE
  8
0
 62
     0
 10
3.22364
 20
3.40332
 30
0.0
 11
3.23139
 21
3.46365
 31
0.0
  0
LINE
  8
0
 62
     0
 10
3.23139
 20
3.46365
 30
0.0
 11
3.24571
 21
3.51736
 31
0.0
  0
LINE
  8
0
 62
     0
 10
3.24571
 20
3.51736
 30
0.0
 11
3.27078
 21
3.56033
 31
0.0
  0
LINE
  8
0
 62
     0
 10
3.27078
 20
3.56033
 30
0.0
 11
3.31071
 21
3.58849
 31
0.0
  0
LINE
  8
0
 62
     0
 10
3.31071
 20
3.58849
 30
0.0
 11
3.36768
 21
3.53993
 31
0.0
  0
LINE
  8
0
 62
     0
 10
3.36768
 20
3.53993
 30
0.0
 11
3.40506
 21
3.47179
 31
0.0
  0
LINE
  8
0
 62
     0
 10
3.40506
 20
3.47179
 30
0.0
 11
3.44249
 21
3.40369
 31
0.0
  0
LINE
  8
0
 62
     0
 10
3.44249
 20
3.40369
 30
0.0
 11
3.49957
 21
3.35514
 31
0.0
  0
LINE
  8
0
 62
     0
 10
3.49957
 20
3.35514
 30
0.0
 11
3.5561
 21
3.44558
 31
0.0
  0
LINE
  8
0
 62
     0
 10
3.5561
 20
3.44558
 30
0.0
 11
3.61068
 21
3.55512
 31
0.0
  0
LINE
  8
0
 62
     0
 10
3.61068
 20
3.55512
 30
0.0
 11
3.62358
 21
3.58399
 31
0.0
  0
LINE
  8
0
 62
     0
 10
3.62358
 20
3.58399
 30
0.0
 11
3.63579
 21
3.61421
 31
0.0
  0
LINE
  8
0
 62
     0
 10
3.63579
 20
3.61421
 30
0.0
 11
3.64822
 21
3.64442
 31
0.0
  0
LINE
  8
0
 62
     0
 10
3.64822
 20
3.64442
 30
0.0
 11
3.66168
 21
3.67312
 31
0.0
  0
LINE
  8
0
 62
     0
 10
3.66168
 20
3.67312
 30
0.0
 11
3.67714
 21
3.69883
 31
0.0
  0
LINE
  8
0
 62
     0
 10
3.67714
 20
3.69883
 30
0.0
 11
3.69542
 21
3.72021
 31
0.0
  0
LINE
  8
0
 62
     0
 10
3.69542
 20
3.72021
 30
0.0
 11
3.71739
 21
3.73579
 31
0.0
  0
LINE
  8
0
 62
     0
 10
3.71739
 20
3.73579
 30
0.0
 11
3.74397
 21
3.74403
 31
0.0
  0
LINE
  8
0
 62
     0
 10
3.74397
 20
3.74403
 30
0.0
 11
3.831
 21
3.72467
 31
0.0
  0
LINE
  8
0
 62
     0
 10
3.831
 20
3.72467
 30
0.0
 11
3.90088
 21
3.65961
 31
0.0
  0
LINE
  8
0
 62
     0
 10
3.90088
 20
3.65961
 30
0.0
 11
3.94781
 21
3.57844
 31
0.0
  0
LINE
  8
0
 62
     0
 10
3.94781
 20
3.57844
 30
0.0
 11
3.96614
 21
3.51069
 31
0.0
  0
LINE
  8
0
 62
     0
 10
3.96614
 20
3.51069
 30
0.0
 11
3.95665
 21
3.43181
 31
0.0
  0
LINE
  8
0
 62
     0
 10
3.95665
 20
3.43181
 30
0.0
 11
3.92676
 21
3.3514
 31
0.0
  0
LINE
  8
0
 62
     0
 10
3.92676
 20
3.3514
 30
0.0
 11
3.88406
 21
3.27001
 31
0.0
  0
LINE
  8
0
 62
     0
 10
3.88406
 20
3.27001
 30
0.0
 11
3.8361
 21
3.1881
 31
0.0
  0
LINE
  8
0
 62
     0
 10
3.8361
 20
3.1881
 30
0.0
 11
3.79058
 21
3.10628
 31
0.0
  0
LINE
  8
0
 62
     0
 10
3.79058
 20
3.10628
 30
0.0
 11
3.75493
 21
3.02507
 31
0.0
  0
LINE
  8
0
 62
     0
 10
3.75493
 20
3.02507
 30
0.0
 11
3.73687
 21
2.94488
 31
0.0
  0
LINE
  8
0
 62
     0
 10
3.73687
 20
2.94488
 30
0.0
 11
3.74397
 21
2.86632
 31
0.0
  0
LINE
  8
0
 62
     0
 10
3.74397
 20
2.86632
 30
0.0
 11
3.77632
 21
2.81586
 31
0.0
  0
LINE
  8
0
 62
     0
 10
3.77632
 20
2.81586
 30
0.0
 11
3.82954
 21
2.77653
 31
0.0
  0
LINE
  8
0
 62
     0
 10
3.82954
 20
2.77653
 30
0.0
 11
3.88715
 21
2.74322
 31
0.0
  0
LINE
  8
0
 62
     0
 10
3.88715
 20
2.74322
 30
0.0
 11
3.93283
 21
2.71078
 31
0.0
  0
LINE
  8
0
 62
     0
 10
3.93283
 20
2.71078
 30
0.0
 11
3.95572
 21
2.73242
 31
0.0
  0
LINE
  8
0
 62
     0
 10
3.95572
 20
2.73242
 30
0.0
 11
3.98025
 21
2.74983
 31
0.0
  0
LINE
  8
0
 62
     0
 10
3.98025
 20
2.74983
 30
0.0
 11
4.00504
 21
2.76486
 31
0.0
  0
LINE
  8
0
 62
     0
 10
4.00504
 20
2.76486
 30
0.0
 11
4.02886
 21
2.77929
 31
0.0
  0
LINE
  8
0
 62
     0
 10
4.02886
 20
2.77929
 30
0.0
 11
4.0504
 21
2.79486
 31
0.0
  0
LINE
  8
0
 62
     0
 10
4.0504
 20
2.79486
 30
0.0
 11
4.06836
 21
2.81336
 31
0.0
  0
LINE
  8
0
 62
     0
 10
4.06836
 20
2.81336
 30
0.0
 11
4.08143
 21
2.83658
 31
0.0
  0
LINE
  8
0
 62
     0
 10
4.08143
 20
2.83658
 30
0.0
 11
4.08838
 21
2.86632
 31
0.0
  0
LINE
  8
0
 62
     0
 10
4.08838
 20
2.86632
 30
0.0
 11
4.07747
 21
2.91812
 31
0.0
  0
LINE
  8
0
 62
     0
 10
4.07747
 20
2.91812
 30
0.0
 11
4.04796
 21
2.97521
 31
0.0
  0
LINE
  8
0
 62
     0
 10
4.04796
 20
2.97521
 30
0.0
 11
4.01921
 21
3.03624
 31
0.0
  0
LINE
  8
0
 62
     0
 10
4.01921
 20
3.03624
 30
0.0
 11
4.01064
 21
3.09967
 31
0.0
  0
LINE
  8
0
 62
     0
 10
4.01064
 20
3.09967
 30
0.0
 11
4.01839
 21
3.13064
 31
0.0
  0
LINE
  8
0
 62
     0
 10
4.01839
 20
3.13064
 30
0.0
 11
4.03592
 21
3.16054
 31
0.0
  0
LINE
  8
0
 62
     0
 10
4.03592
 20
3.16054
 30
0.0
 11
4.06581
 21
3.18778
 31
0.0
  0
LINE
  8
0
 62
     0
 10
4.06581
 20
3.18778
 30
0.0
 11
4.11062
 21
3.21072
 31
0.0
  0
LINE
  8
0
 62
     0
 10
4.11062
 20
3.21072
 30
0.0
 11
4.14378
 21
3.19114
 31
0.0
  0
LINE
  8
0
 62
     0
 10
4.14378
 20
3.19114
 30
0.0
 11
4.17193
 21
3.16656
 31
0.0
  0
LINE
  8
0
 62
     0
 10
4.17193
 20
3.16656
 30
0.0
 11
4.19683
 21
3.13872
 31
0.0
  0
LINE
  8
0
 62
     0
 10
4.19683
 20
3.13872
 30
0.0
 11
4.22021
 21
3.10932
 31
0.0
  0
LINE
  8
0
 62
     0
 10
4.22021
 20
3.10932
 30
0.0
 11
4.24376
 21
3.08008
 31
0.0
  0
LINE
  8
0
 62
     0
 10
4.24376
 20
3.08008
 30
0.0
 11
4.26926
 21
3.05279
 31
0.0
  0
LINE
  8
0
 62
     0
 10
4.26926
 20
3.05279
 30
0.0
 11
4.29833
 21
3.02914
 31
0.0
  0
LINE
  8
0
 62
     0
 10
4.29833
 20
3.02914
 30
0.0
 11
4.33279
 21
3.01074
 31
0.0
  0
LINE
  8
0
 62
     0
 10
4.33279
 20
3.01074
 30
0.0
 11
4.38704
 21
3.0759
 31
0.0
  0
LINE
  8
0
 62
     0
 10
4.38704
 20
3.0759
 30
0.0
 11
4.43869
 21
3.14367
 31
0.0
  0
LINE
  8
0
 62
     0
 10
4.43869
 20
3.14367
 30
0.0
 11
4.50678
 21
3.19499
 31
0.0
  0
LINE
  8
0
 62
     0
 10
4.50678
 20
3.19499
 30
0.0
 11
4.61051
 21
3.21072
 31
0.0
  0
LINE
  8
0
 62
     0
 10
4.61051
 20
3.21072
 30
0.0
 11
4.63596
 21
3.11664
 31
0.0
  0
LINE
  8
0
 62
     0
 10
4.63596
 20
3.11664
 30
0.0
 11
4.64122
 21
3.02165
 31
0.0
  0
LINE
  8
0
 62
     0
 10
4.64122
 20
3.02165
 30
0.0
 11
4.62836
 21
2.93235
 31
0.0
  0
LINE
  8
0
 62
     0
 10
4.62836
 20
2.93235
 30
0.0
 11
4.59944
 21
2.85525
 31
0.0
  0
LINE
  8
0
 62
     0
 10
4.59944
 20
2.85525
 30
0.0
 11
4.53375
 21
2.77718
 31
0.0
  0
LINE
  8
0
 62
     0
 10
4.53375
 20
2.77718
 30
0.0
 11
4.44581
 21
2.7181
 31
0.0
  0
LINE
  8
0
 62
     0
 10
4.44581
 20
2.7181
 30
0.0
 11
4.35406
 21
2.66656
 31
0.0
  0
LINE
  8
0
 62
     0
 10
4.35406
 20
2.66656
 30
0.0
 11
4.27724
 21
2.61083
 31
0.0
  0
LINE
  8
0
 62
     0
 10
4.27724
 20
2.61083
 30
0.0
 11
4.40349
 21
2.5906
 31
0.0
  0
LINE
  8
0
 62
     0
 10
4.40349
 20
2.5906
 30
0.0
 11
4.52322
 21
2.55626
 31
0.0
  0
LINE
  8
0
 62
     0
 10
4.52322
 20
2.55626
 30
0.0
 11
4.63103
 21
2.51036
 31
0.0
  0
LINE
  8
0
 62
     0
 10
4.63103
 20
2.51036
 30
0.0
 11
4.72163
 21
2.45529
 31
0.0
  0
LINE
  8
0
 62
     0
 10
4.72163
 20
2.45529
 30
0.0
 11
4.80246
 21
2.39638
 31
0.0
  0
LINE
  8
0
 62
     0
 10
4.80246
 20
2.39638
 30
0.0
 11
4.89279
 21
2.32682
 31
0.0
  0
LINE
  8
0
 62
     0
 10
4.89279
 20
2.32682
 30
0.0
 11
4.97254
 21
2.25489
 31
0.0
  0
LINE
  8
0
 62
     0
 10
4.97254
 20
2.25489
 30
0.0
 11
5.0216
 21
2.18864
 31
0.0
  0
LINE
  8
0
 62
     0
 10
5.0216
 20
2.18864
 30
0.0
 11
5.03825
 21
2.13232
 31
0.0
  0
LINE
  8
0
 62
     0
 10
5.03825
 20
2.13232
 30
0.0
 11
5.04568
 21
2.06396
 31
0.0
  0
LINE
  8
0
 62
     0
 10
5.04568
 20
2.06396
 30
0.0
 11
5.04101
 21
1.99685
 31
0.0
  0
LINE
  8
0
 62
     0
 10
5.04101
 20
1.99685
 30
0.0
 11
5.0216
 21
1.94422
 31
0.0
  0
LINE
  8
0
 62
     0
 10
5.0216
 20
1.94422
 30
0.0
 11
4.97553
 21
1.90918
 31
0.0
  0
LINE
  8
0
 62
     0
 10
4.97553
 20
1.90918
 30
0.0
 11
4.90826
 21
1.89426
 31
0.0
  0
LINE
  8
0
 62
     0
 10
4.90826
 20
1.89426
 30
0.0
 11
4.82824
 21
1.8904
 31
0.0
  0
LINE
  8
0
 62
     0
 10
4.82824
 20
1.8904
 30
0.0
 11
4.74387
 21
1.88867
 31
0.0
  0
LINE
  8
0
 62
     0
 10
4.74387
 20
1.88867
 30
0.0
 11
4.69786
 21
1.88439
 31
0.0
  0
LINE
  8
0
 62
     0
 10
4.69786
 20
1.88439
 30
0.0
 11
4.65056
 21
1.87819
 31
0.0
  0
LINE
  8
0
 62
     0
 10
4.65056
 20
1.87819
 30
0.0
 11
4.60547
 21
1.87451
 31
0.0
  0
LINE
  8
0
 62
     0
 10
4.60547
 20
1.87451
 30
0.0
 11
4.56608
 21
1.87756
 31
0.0
  0
LINE
  8
0
 62
     0
 10
4.56608
 20
1.87756
 30
0.0
 11
4.51183
 21
1.90701
 31
0.0
  0
LINE
  8
0
 62
     0
 10
4.51183
 20
1.90701
 30
0.0
 11
4.45676
 21
1.95606
 31
0.0
  0
LINE
  8
0
 62
     0
 10
4.45676
 20
1.95606
 30
0.0
 11
4.40082
 21
2.00196
 31
0.0
  0
LINE
  8
0
 62
     0
 10
4.40082
 20
2.00196
 30
0.0
 11
4.34392
 21
2.02197
 31
0.0
  0
LINE
  8
0
 62
     0
 10
4.34392
 20
2.02197
 30
0.0
 11
4.29486
 21
2.00103
 31
0.0
  0
LINE
  8
0
 62
     0
 10
4.29486
 20
2.00103
 30
0.0
 11
4.23128
 21
1.95156
 31
0.0
  0
LINE
  8
0
 62
     0
 10
4.23128
 20
1.95156
 30
0.0
 11
4.16846
 21
1.8929
 31
0.0
  0
LINE
  8
0
 62
     0
 10
4.16846
 20
1.8929
 30
0.0
 11
4.12169
 21
1.84424
 31
0.0
  0
LINE
  8
0
 62
     0
 10
4.12169
 20
1.84424
 30
0.0
 11
4.01785
 21
1.72206
 31
0.0
  0
LINE
  8
0
 62
     0
 10
4.01785
 20
1.72206
 30
0.0
 11
3.95508
 21
1.59983
 31
0.0
  0
LINE
  8
0
 62
     0
 10
3.95508
 20
1.59983
 30
0.0
 11
3.954
 21
1.53353
 31
0.0
  0
LINE
  8
0
 62
     0
 10
3.954
 20
1.53353
 30
0.0
 11
3.972
 21
1.46903
 31
0.0
  0
LINE
  8
0
 62
     0
 10
3.972
 20
1.46903
 30
0.0
 11
3.99815
 21
1.40608
 31
0.0
  0
LINE
  8
0
 62
     0
 10
3.99815
 20
1.40608
 30
0.0
 11
4.02169
 21
1.34429
 31
0.0
  0
LINE
  8
0
 62
     0
 10
4.02169
 20
1.34429
 30
0.0
 11
3.99029
 21
1.31272
 31
0.0
  0
LINE
  8
0
 62
     0
 10
3.99029
 20
1.31272
 30
0.0
 11
3.95817
 21
1.28201
 31
0.0
  0
LINE
  8
0
 62
     0
 10
3.95817
 20
1.28201
 30
0.0
 11
3.92171
 21
1.26025
 31
0.0
  0
LINE
  8
0
 62
     0
 10
3.92171
 20
1.26025
 30
0.0
 11
3.87728
 21
1.25543
 31
0.0
  0
LINE
  8
0
 62
     0
 10
3.87728
 20
1.25543
 30
0.0
 11
3.82736
 21
1.28093
 31
0.0
  0
LINE
  8
0
 62
     0
 10
3.82736
 20
1.28093
 30
0.0
 11
3.78217
 21
1.33643
 31
0.0
  0
LINE
  8
0
 62
     0
 10
3.78217
 20
1.33643
 30
0.0
 11
3.74849
 21
1.40978
 31
0.0
  0
LINE
  8
0
 62
     0
 10
3.74849
 20
1.40978
 30
0.0
 11
3.73286
 21
1.48872
 31
0.0
  0
LINE
  8
0
 62
     0
 10
3.73286
 20
1.48872
 30
0.0
 11
3.73757
 21
1.53657
 31
0.0
  0
LINE
  8
0
 62
     0
 10
3.73757
 20
1.53657
 30
0.0
 11
3.7519
 21
1.58333
 31
0.0
  0
LINE
  8
0
 62
     0
 10
3.7519
 20
1.58333
 30
0.0
 11
3.76779
 21
1.63004
 31
0.0
  0
LINE
  8
0
 62
     0
 10
3.76779
 20
1.63004
 30
0.0
 11
3.77729
 21
1.67757
 31
0.0
  0
LINE
  8
0
 62
     0
 10
3.77729
 20
1.67757
 30
0.0
 11
3.77588
 21
1.72917
 31
0.0
  0
LINE
  8
0
 62
     0
 10
3.77588
 20
1.72917
 30
0.0
 11
3.76758
 21
1.77393
 31
0.0
  0
LINE
  8
0
 62
     0
 10
3.76758
 20
1.77393
 30
0.0
 11
3.75857
 21
1.815
 31
0.0
  0
LINE
  8
0
 62
     0
 10
3.75857
 20
1.815
 30
0.0
 11
3.7551
 21
1.85536
 31
0.0
  0
LINE
  8
0
 62
     0
 10
3.7551
 20
1.85536
 30
0.0
 11
3.68326
 21
1.84446
 31
0.0
  0
LINE
  8
0
 62
     0
 10
3.68326
 20
1.84446
 30
0.0
 11
3.61128
 21
1.81299
 31
0.0
  0
LINE
  8
0
 62
     0
 10
3.61128
 20
1.81299
 30
0.0
 11
3.54443
 21
1.76937
 31
0.0
  0
LINE
  8
0
 62
     0
 10
3.54443
 20
1.76937
 30
0.0
 11
3.48844
 21
1.72206
 31
0.0
  0
LINE
  8
0
 62
     0
 10
3.48844
 20
1.72206
 30
0.0
 11
3.52175
 21
1.63232
 31
0.0
  0
LINE
  8
0
 62
     0
 10
3.52175
 20
1.63232
 30
0.0
 11
3.53244
 21
1.54839
 31
0.0
  0
LINE
  8
0
 62
     0
 10
3.53244
 20
1.54839
 30
0.0
 11
3.52588
 21
1.4681
 31
0.0
  0
LINE
  8
0
 62
     0
 10
3.52588
 20
1.4681
 30
0.0
 11
3.50743
 21
1.38921
 31
0.0
  0
LINE
  8
0
 62
     0
 10
3.50743
 20
1.38921
 30
0.0
 11
3.48242
 21
1.30962
 31
0.0
  0
LINE
  8
0
 62
     0
 10
3.48242
 20
1.30962
 30
0.0
 11
3.45622
 21
1.22705
 31
0.0
  0
LINE
  8
0
 62
     0
 10
3.45622
 20
1.22705
 30
0.0
 11
3.43425
 21
1.13938
 31
0.0
  0
LINE
  8
0
 62
     0
 10
3.43425
 20
1.13938
 30
0.0
 11
3.42182
 21
1.04432
 31
0.0
  0
LINE
  8
0
 62
     0
 10
3.42182
 20
1.04432
 30
0.0
 11
3.43246
 21
0.912924
 31
0.0
  0
LINE
  8
0
 62
     0
 10
3.43246
 20
0.912924
 30
0.0
 11
3.45514
 21
0.766601
 31
0.0
  0
LINE
  8
0
 62
     0
 10
3.45514
 20
0.766601
 30
0.0
 11
3.46664
 21
0.617188
 31
0.0
  0
LINE
  8
0
 62
     0
 10
3.46664
 20
0.617188
 30
0.0
 11
3.48844
 21
0.488878
 31
0.0
  0
LINE
  8
0
 62
     0
 10
3.48844
 20
0.488878
 30
0.0
 11
3.50211
 21
0.456054
 31
0.0
  0
LINE
  8
0
 62
     0
 10
3.50211
 20
0.456054
 30
0.0
 11
3.52365
 21
0.413465
 31
0.0
  0
LINE
  8
0
 62
     0
 10
3.52365
 20
0.413465
 30
0.0
 11
3.55117
 21
0.365126
 31
0.0
  0
LINE
  8
0
 62
     0
 10
3.55117
 20
0.365126
 30
0.0
 11
3.58268
 21
0.31505
 31
0.0
  0
LINE
  8
0
 62
     0
 10
3.58268
 20
0.31505
 30
0.0
 11
3.61632
 21
0.267253
 31
0.0
  0
LINE
  8
0
 62
     0
 10
3.61632
 20
0.267253
 30
0.0
 11
3.65017
 21
0.225749
 31
0.0
  0
LINE
  8
0
 62
     0
 10
3.65017
 20
0.225749
 30
0.0
 11
3.68224
 21
0.194607
 31
0.0
  0
LINE
  8
0
 62
     0
 10
3.68224
 20
0.194607
 30
0.0
 11
3.71067
 21
0.177789
 31
0.0
  0
LINE
  8
0
 62
     0
 10
3.71067
 20
0.177789
 30
0.0
 11
3.79829
 21
0.164171
 31
0.0
  0
LINE
  8
0
 62
     0
 10
3.79829
 20
0.164171
 30
0.0
 11
3.9036
 21
0.16569
 31
0.0
  0
LINE
  8
0
 62
     0
 10
3.9036
 20
0.16569
 30
0.0
 11
4.01796
 21
0.173286
 31
0.0
  0
LINE
  8
0
 62
     0
 10
4.01796
 20
0.173286
 30
0.0
 11
4.13281
 21
0.177789
 31
0.0
  0
LINE
  8
0
 62
     0
 10
4.13281
 20
0.177789
 30
0.0
 11
4.21832
 21
0.179904
 31
0.0
  0
LINE
  8
0
 62
     0
 10
4.21832
 20
0.179904
 30
0.0
 11
4.3061
 21
0.183431
 31
0.0
  0
LINE
  8
0
 62
     0
 10
4.3061
 20
0.183431
 30
0.0
 11
4.3915
 21
0.18419
 31
0.0
  0
LINE
  8
0
 62
     0
 10
4.3915
 20
0.18419
 30
0.0
 11
4.46994
 21
0.178006
 31
0.0
  0
LINE
  8
0
 62
     0
 10
4.46994
 20
0.178006
 30
0.0
 11
4.53678
 21
0.160644
 31
0.0
  0
LINE
  8
0
 62
     0
 10
4.53678
 20
0.160644
 30
0.0
 11
4.5874
 21
0.127984
 31
0.0
  0
LINE
  8
0
 62
     0
 10
4.5874
 20
0.127984
 30
0.0
 11
4.61719
 21
0.0758464
 31
0.0
  0
LINE
  8
0
 62
     0
 10
4.61719
 20
0.0758464
 30
0.0
 11
4.62164
 21
-0
 31
0.0
  0
LINE
  8
0
 62
     0
 10
1.38873
 20
1.38873
 30
0.0
 11
1.34348
 21
1.30897
 31
0.0
  0
LINE
  8
0
 62
     0
 10
1.34348
 20
1.30897
 30
0.0
 11
1.32069
 21
1.23085
 31
0.0
  0
LINE
  8
0
 62
     0
 10
1.32069
 20
1.23085
 30
0.0
 11
1.31679
 21
1.15397
 31
0.0
  0
LINE
  8
0
 62
     0
 10
1.31679
 20
1.15397
 30
0.0
 11
1.32813
 21
1.07807
 31
0.0
  0
LINE
  8
0
 62
     0
 10
1.32813
 20
1.07807
 30
0.0
 11
1.35129
 21
1.00288
 31
0.0
  0
LINE
  8
0
 62
     0
 10
1.35129
 20
1.00288
 30
0.0
 11
1.38254
 21
0.927897
 31
0.0
  0
LINE
  8
0
 62
     0
 10
1.38254
 20
0.927897
 30
0.0
 11
1.41846
 21
0.852974
 31
0.0
  0
LINE
  8
0
 62
     0
 10
1.41846
 20
0.852974
 30
0.0
 11
1.4554
 21
0.777669
 31
0.0
  0
LINE
  8
0
 62
     0
 10
1.4554
 20
0.777669
 30
0.0
 11
1.52463
 21
0.637696
 31
0.0
  0
LINE
  8
0
 62
     0
 10
1.52463
 20
0.637696
 30
0.0
 11
1.58832
 21
0.499024
 31
0.0
  0
LINE
  8
0
 62
     0
 10
1.58832
 20
0.499024
 30
0.0
 11
1.63824
 21
0.349718
 31
0.0
  0
LINE
  8
0
 62
     0
 10
1.63824
 20
0.349718
 30
0.0
 11
1.66644
 21
0.177789
 31
0.0
  0
LINE
  8
0
 62
     0
 10
1.66644
 20
0.177789
 30
0.0
 11
1.97906
 21
0.179036
 31
0.0
  0
LINE
  8
0
 62
     0
 10
1.97906
 20
0.179036
 30
0.0
 11
2.29551
 21
0.176432
 31
0.0
  0
LINE
  8
0
 62
     0
 10
2.29551
 20
0.176432
 30
0.0
 11
2.6085
 21
0.1773
 31
0.0
  0
LINE
  8
0
 62
     0
 10
2.6085
 20
0.1773
 30
0.0
 11
2.91075
 21
0.188857
 31
0.0
  0
LINE
  8
0
 62
     0
 10
2.91075
 20
0.188857
 30
0.0
 11
2.88829
 21
0.205729
 31
0.0
  0
LINE
  8
0
 62
     0
 10
2.88829
 20
0.205729
 30
0.0
 11
2.86393
 21
0.21696
 31
0.0
  0
LINE
  8
0
 62
     0
 10
2.86393
 20
0.21696
 30
0.0
 11
2.83886
 21
0.224664
 31
0.0
  0
LINE
  8
0
 62
     0
 10
2.83886
 20
0.224664
 30
0.0
 11
2.81429
 21
0.231174
 31
0.0
  0
LINE
  8
0
 62
     0
 10
2.81429
 20
0.231174
 30
0.0
 11
2.79135
 21
0.238661
 31
0.0
  0
LINE
  8
0
 62
     0
 10
2.79135
 20
0.238661
 30
0.0
 11
2.77115
 21
0.249294
 31
0.0
  0
LINE
  8
0
 62
     0
 10
2.77115
 20
0.249294
 30
0.0
 11
2.75504
 21
0.2653
 31
0.0
  0
LINE
  8
0
 62
     0
 10
2.75504
 20
0.2653
 30
0.0
 11
2.74408
 21
0.288846
 31
0.0
  0
LINE
  8
0
 62
     0
 10
2.74408
 20
0.288846
 30
0.0
 11
2.74457
 21
0.328831
 31
0.0
  0
LINE
  8
0
 62
     0
 10
2.74457
 20
0.328831
 30
0.0
 11
2.76042
 21
0.370497
 31
0.0
  0
LINE
  8
0
 62
     0
 10
2.76042
 20
0.370497
 30
0.0
 11
2.77919
 21
0.415853
 31
0.0
  0
LINE
  8
0
 62
     0
 10
2.77919
 20
0.415853
 30
0.0
 11
2.78851
 21
0.466635
 31
0.0
  0
LINE
  8
0
 62
     0
 10
2.78851
 20
0.466635
 30
0.0
 11
2.74181
 21
0.568306
 31
0.0
  0
LINE
  8
0
 62
     0
 10
2.74181
 20
0.568306
 30
0.0
 11
2.72325
 21
0.6824
 31
0.0
  0
LINE
  8
0
 62
     0
 10
2.72325
 20
0.6824
 30
0.0
 11
2.72418
 21
0.805067
 31
0.0
  0
LINE
  8
0
 62
     0
 10
2.72418
 20
0.805067
 30
0.0
 11
2.73606
 21
0.9324
 31
0.0
  0
LINE
  8
0
 62
     0
 10
2.73606
 20
0.9324
 30
0.0
 11
2.75032
 21
1.06055
 31
0.0
  0
LINE
  8
0
 62
     0
 10
2.75032
 20
1.06055
 30
0.0
 11
2.7584
 21
1.18566
 31
0.0
  0
LINE
  8
0
 62
     0
 10
2.7584
 20
1.18566
 30
0.0
 11
2.75179
 21
1.30371
 31
0.0
  0
LINE
  8
0
 62
     0
 10
2.75179
 20
1.30371
 30
0.0
 11
2.7219
 21
1.41097
 31
0.0
  0
LINE
  8
0
 62
     0
 10
2.7219
 20
1.41097
 30
0.0
 11
2.69965
 21
1.41097
 31
0.0
  0
LINE
  8
0
 62
     0
 10
2.69965
 20
1.41097
 30
0.0
 11
2.55197
 21
1.36285
 31
0.0
  0
LINE
  8
0
 62
     0
 10
2.55197
 20
1.36285
 30
0.0
 11
2.39154
 21
1.32606
 31
0.0
  0
LINE
  8
0
 62
     0
 10
2.39154
 20
1.32606
 30
0.0
 11
2.2225
 21
1.30138
 31
0.0
  0
LINE
  8
0
 62
     0
 10
2.2225
 20
1.30138
 30
0.0
 11
2.04883
 21
1.28971
 31
0.0
  0
LINE
  8
0
 62
     0
 10
2.04883
 20
1.28971
 30
0.0
 11
1.87451
 21
1.29177
 31
0.0
  0
LINE
  8
0
 62
     0
 10
1.87451
 20
1.29177
 30
0.0
 11
1.70372
 21
1.30843
 31
0.0
  0
LINE
  8
0
 62
     0
 10
1.70372
 20
1.30843
 30
0.0
 11
1.54042
 21
1.34049
 31
0.0
  0
LINE
  8
0
 62
     0
 10
1.54042
 20
1.34049
 30
0.0
 11
1.38873
 21
1.38873
 31
0.0
  0
LINE
  8
0
 62
     0
 10
2.92188
 20
0.666613
 30
0.0
 11
2.9535
 21
0.610406
 31
0.0
  0
LINE
  8
0
 62
     0
 10
2.9535
 20
0.610406
 30
0.0
 11
2.96126
 21
0.546604
 31
0.0
  0
LINE
  8
0
 62
     0
 10
2.96126
 20
0.546604
 30
0.0
 11
2.96039
 21
0.478896
 31
0.0
  0
LINE
  8
0
 62
     0
 10
2.96039
 20
0.478896
 30
0.0
 11
2.96631
 21
0.411079
 31
0.0
  0
LINE
  8
0
 62
     0
 10
2.96631
 20
0.411079
 30
0.0
 11
2.99388
 21
0.344021
 31
0.0
  0
LINE
  8
0
 62
     0
 10
2.99388
 20
0.344021
 30
0.0
 11
3.03614
 21
0.285807
 31
0.0
  0
LINE
  8
0
 62
     0
 10
3.03614
 20
0.285807
 30
0.0
 11
3.07958
 21
0.231933
 31
0.0
  0
LINE
  8
0
 62
     0
 10
3.07958
 20
0.231933
 30
0.0
 11
3.11074
 21
0.177789
 31
0.0
  0
LINE
  8
0
 62
     0
 10
3.11074
 20
0.177789
 30
0.0
 11
3.1984
 21
0.178982
 31
0.0
  0
LINE
  8
0
 62
     0
 10
3.1984
 20
0.178982
 30
0.0
 11
3.28982
 21
0.176432
 31
0.0
  0
LINE
  8
0
 62
     0
 10
3.28982
 20
0.176432
 30
0.0
 11
3.37782
 21
0.1773
 31
0.0
  0
LINE
  8
0
 62
     0
 10
3.37782
 20
0.1773
 30
0.0
 11
3.45514
 21
0.188857
 31
0.0
  0
LINE
  8
0
 62
     0
 10
3.45514
 20
0.188857
 30
0.0
 11
3.43311
 21
0.233561
 31
0.0
  0
LINE
  8
0
 62
     0
 10
3.43311
 20
0.233561
 30
0.0
 11
3.42182
 21
0.288846
 31
0.0
  0
LINE
  8
0
 62
     0
 10
3.42182
 20
0.288846
 30
0.0
 11
3.34685
 21
0.313965
 31
0.0
  0
LINE
  8
0
 62
     0
 10
3.34685
 20
0.313965
 30
0.0
 11
3.28847
 21
0.355524
 31
0.0
  0
LINE
  8
0
 62
     0
 10
3.28847
 20
0.355524
 30
0.0
 11
3.29812
 21
0.501303
 31
0.0
  0
LINE
  8
0
 62
     0
 10
3.29812
 20
0.501303
 30
0.0
 11
3.27485
 21
0.622993
 31
0.0
  0
LINE
  8
0
 62
     0
 10
3.27485
 20
0.622993
 30
0.0
 11
3.23611
 21
0.735949
 31
0.0
  0
LINE
  8
0
 62
     0
 10
3.23611
 20
0.735949
 30
0.0
 11
3.1996
 21
0.855469
 31
0.0
  0
LINE
  8
0
 62
     0
 10
3.1996
 20
0.855469
 30
0.0
 11
3.17942
 21
0.965603
 31
0.0
  0
LINE
  8
0
 62
     0
 10
3.17942
 20
0.965603
 30
0.0
 11
3.16325
 21
1.08073
 31
0.0
  0
LINE
  8
0
 62
     0
 10
3.16325
 20
1.08073
 30
0.0
 11
3.14583
 21
1.18875
 31
0.0
  0
LINE
  8
0
 62
     0
 10
3.14583
 20
1.18875
 30
0.0
 11
3.12185
 21
1.27762
 31
0.0
  0
LINE
  8
0
 62
     0
 10
3.12185
 20
1.27762
 30
0.0
 11
3.01307
 21
0.980957
 31
0.0
  0
LINE
  8
0
 62
     0
 10
3.01307
 20
0.980957
 30
0.0
 11
2.92188
 21
0.666613
 31
0.0
  0
LINE
  8
0
 62
     0
 10
0.622125
 20
0.899903
 30
0.0
 11
0.590007
 21
0.824599
 31
0.0
  0
LINE
  8
0
 62
     0
 10
0.590007
 20
0.824599
 30
0.0
 11
0.566515
 21
0.731119
 31
0.0
  0
LINE
  8
0
 62
     0
 10
0.566515
 20
0.731119
 30
0.0
 11
0.556967
 21
0.630425
 31
0.0
  0
LINE
  8
0
 62
     0
 10
0.556967
 20
0.630425
 30
0.0
 11
0.566569
 21
0.533257
 31
0.0
  0
LINE
  8
0
 62
     0
 10
0.566569
 20
0.533257
 30
0.0
 11
0.607747
 21
0.449436
 31
0.0
  0
LINE
  8
0
 62
     0
 10
0.607747
 20
0.449436
 30
0.0
 11
0.675293
 21
0.384278
 31
0.0
  0
LINE
  8
0
 62
     0
 10
0.675293
 20
0.384278
 30
0.0
 11
0.752388
 21
0.324219
 31
0.0
  0
LINE
  8
0
 62
     0
 10
0.752388
 20
0.324219
 30
0.0
 11
0.822103
 21
0.255533
 31
0.0
  0
LINE
  8
0
 62
     0
 10
0.822103
 20
0.255533
 30
0.0
 11
0.832628
 21
0.235514
 31
0.0
  0
LINE
  8
0
 62
     0
 10
0.832628
 20
0.235514
 30
0.0
 11
0.837403
 21
0.209799
 31
0.0
  0
LINE
  8
0
 62
     0
 10
0.837403
 20
0.209799
 30
0.0
 11
0.845649
 21
0.1875
 31
0.0
  0
LINE
  8
0
 62
     0
 10
0.845649
 20
0.1875
 30
0.0
 11
0.866536
 21
0.177789
 31
0.0
  0
LINE
  8
0
 62
     0
 10
0.866536
 20
0.177789
 30
0.0
 11
1.4776
 21
0.177789
 31
0.0
  0
LINE
  8
0
 62
     0
 10
1.4776
 20
0.177789
 30
0.0
 11
1.4509
 21
0.249783
 31
0.0
  0
LINE
  8
0
 62
     0
 10
1.4509
 20
0.249783
 30
0.0
 11
1.44114
 21
0.322049
 31
0.0
  0
LINE
  8
0
 62
     0
 10
1.44114
 20
0.322049
 30
0.0
 11
1.43571
 21
0.391601
 31
0.0
  0
LINE
  8
0
 62
     0
 10
1.43571
 20
0.391601
 30
0.0
 11
1.42204
 21
0.455513
 31
0.0
  0
LINE
  8
0
 62
     0
 10
1.42204
 20
0.455513
 30
0.0
 11
1.40315
 21
0.4949
 31
0.0
  0
LINE
  8
0
 62
     0
 10
1.40315
 20
0.4949
 30
0.0
 11
1.37462
 21
0.543728
 31
0.0
  0
LINE
  8
0
 62
     0
 10
1.37462
 20
0.543728
 30
0.0
 11
1.34483
 21
0.590169
 31
0.0
  0
LINE
  8
0
 62
     0
 10
1.34483
 20
0.590169
 30
0.0
 11
1.32205
 21
0.622179
 31
0.0
  0
LINE
  8
0
 62
     0
 10
1.32205
 20
0.622179
 30
0.0
 11
1.26986
 21
0.674479
 31
0.0
  0
LINE
  8
0
 62
     0
 10
1.26986
 20
0.674479
 30
0.0
 11
1.21224
 21
0.718913
 31
0.0
  0
LINE
  8
0
 62
     0
 10
1.21224
 20
0.718913
 30
0.0
 11
1.15674
 21
0.765028
 31
0.0
  0
LINE
  8
0
 62
     0
 10
1.15674
 20
0.765028
 30
0.0
 11
1.11095
 21
0.822157
 31
0.0
  0
LINE
  8
0
 62
     0
 10
1.11095
 20
0.822157
 30
0.0
 11
1.07118
 21
0.905653
 31
0.0
  0
LINE
  8
0
 62
     0
 10
1.07118
 20
0.905653
 30
0.0
 11
1.0421
 21
0.992404
 31
0.0
  0
LINE
  8
0
 62
     0
 10
1.0421
 20
0.992404
 30
0.0
 11
1.01411
 21
1.08572
 31
0.0
  0
LINE
  8
0
 62
     0
 10
1.01411
 20
1.08572
 30
0.0
 11
0.977647
 21
1.18875
 31
0.0
  0
LINE
  8
0
 62
     0
 10
0.977647
 20
1.18875
 30
0.0
 11
0.975369
 21
1.19765
 31
0.0
  0
LINE
  8
0
 62
     0
 10
0.975369
 20
1.19765
 30
0.0
 11
0.966525
 21
1.19987
 31
0.0
  0
LINE
  8
0
 62
     0
 10
0.966525
 20
1.19987
 30
0.0
 11
0.887044
 21
1.13303
 31
0.0
  0
LINE
  8
0
 62
     0
 10
0.887044
 20
1.13303
 30
0.0
 11
0.785156
 21
1.05686
 31
0.0
  0
LINE
  8
0
 62
     0
 10
0.785156
 20
1.05686
 30
0.0
 11
0.687879
 21
0.977214
 31
0.0
  0
LINE
  8
0
 62
     0
 10
0.687879
 20
0.977214
 30
0.0
 11
0.622125
 21
0.899903
 31
0.0
  0
ENDSEC
  0
EOF
