999
DXF created by Inkscape
  0
SECTION
  2
HEADER
  9
$ACADVER
  1
AC1014
  9
$HANDSEED
  5
FFFF
  9
$MEASUREMENT
 70
     1
  0
ENDSEC
  0
SECTION
  2
TABLES
  0
TABLE
  2
VPORT
  5
8
330
0
100
AcDbSymbolTable
 70
     4
  0
VPORT
  5
2E
330
8
100
AcDbSymbolTableRecord
100
AcDbViewportTableRecord
  2
*ACTIVE
 70
     0
 10
0.0
 20
0.0
 11
1.0
 21
1.0
 12
210.0
 22
148.5
 13
0.0
 23
0.0
 14
10.0
 24
10.0
 15
10.0
 25
10.0
 16
0.0
 26
0.0
 36
1.0
 17
0.0
 27
0.0
 37
0.0
 40
341.0
 41
1.24
 42
50.0
 43
0.0
 44
0.0
 50
0.0
 51
0.0
 71
     0
 72
   100
 73
     1
 74
     3
 75
     0
 76
     0
 77
     0
 78
     0
  0
ENDTAB
  0
TABLE
  2
LTYPE
  5
5
330
0
100
AcDbSymbolTable
 70
     1
  0
LTYPE
  5
14
330
5
100
AcDbSymbolTableRecord
100
AcDbLinetypeTableRecord
  2
BYBLOCK
 70
     0
  3

 72
    65
 73
     0
 40
0.0
  0
LTYPE
  5
15
330
5
100
AcDbSymbolTableRecord
100
AcDbLinetypeTableRecord
  2
BYLAYER
 70
     0
  3

 72
    65
 73
     0
 40
0.0
  0
LTYPE
  5
16
330
5
100
AcDbSymbolTableRecord
100
AcDbLinetypeTableRecord
  2
CONTINUOUS
 70
     0
  3
Solid line
 72
    65
 73
     0
 40
0.0
  0
ENDTAB
  0
TABLE
  2
LAYER
  5
2
100
AcDbSymbolTable
 70
1
  0
LAYER
  5
50
100
AcDbSymbolTableRecord
100
AcDbLayerTableRecord
  2
0
 70
0
  6
CONTINUOUS
  0
ENDTAB
  0
TABLE
  2
STYLE
  5
3
330
0
100
AcDbSymbolTable
 70
     1
  0
STYLE
  5
11
330
3
100
AcDbSymbolTableRecord
100
AcDbTextStyleTableRecord
  2
STANDARD
 70
     0
 40
0.0
 41
1.0
 50
0.0
 71
     0
 42
2.5
  3
txt
  4

  0
ENDTAB
  0
TABLE
  2
VIEW
  5
6
330
0
100
AcDbSymbolTable
 70
     0
  0
ENDTAB
  0
TABLE
  2
UCS
  5
7
330
0
100
AcDbSymbolTable
 70
     0
  0
ENDTAB
  0
TABLE
  2
APPID
  5
9
330
0
100
AcDbSymbolTable
 70
     2
  0
APPID
  5
12
330
9
100
AcDbSymbolTableRecord
100
AcDbRegAppTableRecord
  2
ACAD
 70
     0
  0
ENDTAB
  0
TABLE
  2
DIMSTYLE
  5
A
330
0
100
AcDbSymbolTable
 70
     1
  0
DIMSTYLE
105
27
330
A
100
AcDbSymbolTableRecord
100
AcDbDimStyleTableRecord
  2
ISO-25
 70
     0
  3

  4

  5

  6

  7

 40
1.0
 41
2.5
 42
0.625
 43
3.75
 44
1.25
 45
0.0
 46
0.0
 47
0.0
 48
0.0
140
2.5
141
2.5
142
0.0
143
0.03937007874016
144
1.0
145
0.0
146
1.0
147
0.625
 71
     0
 72
     0
 73
     0
 74
     0
 75
     0
 76
     0
 77
     1
 78
     8
170
     0
171
     3
172
     1
173
     0
174
     0
175
     0
176
     0
177
     0
178
     0
270
     2
271
     2
272
     2
273
     2
274
     3
340
11
275
     0
280
     0
281
     0
282
     0
283
     0
284
     8
285
     0
286
     0
287
     3
288
     0
  0
ENDTAB
  0
TABLE
  2
BLOCK_RECORD
  5
1
330
0
100
AcDbSymbolTable
 70
     1
  0
BLOCK_RECORD
  5
1F
330
1
100
AcDbSymbolTableRecord
100
AcDbBlockTableRecord
  2
*MODEL_SPACE
  0
BLOCK_RECORD
  5
1B
330
1
100
AcDbSymbolTableRecord
100
AcDbBlockTableRecord
  2
*PAPER_SPACE
  0
ENDTAB
  0
ENDSEC
  0
SECTION
  2
BLOCKS
  0
BLOCK
  5
20
330
1F
100
AcDbEntity
  8
0
100
AcDbBlockBegin
  2
*MODEL_SPACE
 70
     0
 10
0.0
 20
0.0
 30
0.0
  3
*MODEL_SPACE
  1

  0
ENDBLK
  5
21
330
1F
100
AcDbEntity
  8
0
100
AcDbBlockEnd
  0
BLOCK
  5
1C
330
1B
100
AcDbEntity
 67
     1
  8
0
100
AcDbBlockBegin
  2
*PAPER_SPACE
  1

  0
ENDBLK
  5
1D
330
1B
100
AcDbEntity
 67
     1
  8
0
100
AcDbBlockEnd
  0
ENDSEC
  0
SECTION
  2
ENTITIES
  0
LWPOLYLINE
  5
100
100
AcDbEntity
  8
0
 62
7
100
AcDbPolyline
 90
60
 70
0
 10
57.101740
 20
-4.733431
 30
0.0
 10
57.877343
 20
0.581011
 30
0.0
 10
53.522174
 20
5.020056
 30
0.0
 10
46.478246
 20
8.920113
 30
0.0
 10
44.076225
 20
13.290381
 30
0.0
 10
35.742231
 20
20.880070
 30
0.0
 10
25.091221
 20
23.078158
 30
0.0
 10
35.463565
 20
15.797615
 30
0.0
 10
25.834679
 20
16.312078
 30
0.0
 10
9.800421
 20
28.222109
 30
0.0
 10
26.911328
 20
13.158188
 30
0.0
 10
18.498312
 20
10.046942
 30
0.0
 10
3.390420
 20
6.538609
 30
0.0
 10
13.770328
 20
7.361400
 30
0.0
 10
8.537900
 20
2.329660
 30
0.0
 10
-0.000028
 20
-4.699169
 30
0.0
 10
6.539456
 20
-1.164929
 30
0.0
 10
5.389146
 20
-8.078301
 30
0.0
 10
1.597547
 20
-17.302254
 30
0.0
 10
5.765744
 20
-11.385409
 30
0.0
 10
5.851793
 20
-11.836993
 30
0.0
 10
7.652258
 20
-17.186515
 30
0.0
 10
5.502712
 20
-27.597721
 30
0.0
 10
9.091478
 20
-19.627935
 30
0.0
 10
13.389441
 20
-26.308502
 30
0.0
 10
14.563739
 20
-31.916455
 30
0.0
 10
43.725761
 20
-31.916455
 30
0.0
 10
25.101155
 20
-12.701355
 30
0.0
 10
22.331990
 20
-4.989717
 30
0.0
 10
28.354048
 20
2.166451
 30
0.0
 10
30.710745
 20
-0.910534
 30
0.0
 10
39.570237
 20
-11.744734
 30
0.0
 10
44.933249
 20
-11.972685
 30
0.0
 10
41.989784
 20
-11.445296
 30
0.0
 10
43.879798
 20
-9.862284
 30
0.0
 10
39.180685
 20
-9.456561
 30
0.0
 10
42.039709
 20
-8.387729
 30
0.0
 10
38.077338
 20
-7.597309
 30
0.0
 10
36.800254
 20
-5.575667
 30
0.0
 10
40.076600
 20
-5.573409
 30
0.0
 10
35.357788
 20
-2.865459
 30
0.0
 10
33.151346
 20
2.870906
 30
0.0
 10
40.554346
 20
-4.448471
 30
0.0
 10
49.785863
 20
-9.517436
 30
0.0
 10
54.756897
 20
-12.185198
 30
0.0
 10
50.229883
 20
-8.628013
 30
0.0
 10
55.999719
 20
-10.051316
 30
0.0
 10
49.874622
 20
-7.827349
 30
0.0
 10
42.063162
 20
-4.181404
 30
0.0
 10
35.079376
 20
4.096202
 30
0.0
 10
41.206110
 20
-1.118983
 30
0.0
 10
40.395991
 20
3.264210
 30
0.0
 10
46.202515
 20
-2.615410
 30
0.0
 10
45.846944
 20
1.594076
 30
0.0
 10
50.739746
 20
-2.615410
 30
0.0
 10
50.624571
 20
1.045097
 30
0.0
 10
54.887735
 20
-3.823688
 30
0.0
 10
55.600995
 20
-1.154317
 30
0.0
 10
57.101712
 20
-4.733346
 30
0.0
 10
57.101740
 20
-4.733431
 30
0.0
  0
LWPOLYLINE
  5
101
100
AcDbEntity
  8
0
 62
7
100
AcDbPolyline
 90
5
 70
0
 10
53.944379
 20
3.605671
 30
0.0
 10
55.243589
 20
2.051784
 30
0.0
 10
53.753907
 20
2.627489
 30
0.0
 10
52.623861
 20
3.653677
 30
0.0
 10
53.944379
 20
3.605671
 30
0.0
  0
LWPOLYLINE
  5
102
100
AcDbEntity
  8
0
 62
7
100
AcDbPolyline
 90
5
 70
0
 10
40.240091
 20
11.932892
 30
0.0
 10
42.637541
 20
9.138892
 30
0.0
 10
39.545712
 20
10.011325
 30
0.0
 10
36.711777
 20
12.164907
 30
0.0
 10
40.240091
 20
11.932892
 30
0.0
  0
ENDSEC
  0
SECTION
  2
OBJECTS
  0
DICTIONARY
  5
C
330
0
100
AcDbDictionary
  3
ACAD_GROUP
350
D
  3
ACAD_MLINESTYLE
350
17
  0
DICTIONARY
  5
D
330
C
100
AcDbDictionary
  0
DICTIONARY
  5
1A
330
C
100
AcDbDictionary
  0
DICTIONARY
  5
17
330
C
100
AcDbDictionary
  3
STANDARD
350
18
  0
DICTIONARY
  5
19
330
C
100
AcDbDictionary
  0
ENDSEC
  0
EOF
